<?xml version="1.0" encoding="UTF-8" standalone="no"?>
<svg
   xmlns:dc="http://purl.org/dc/elements/1.1/"
   xmlns:cc="http://creativecommons.org/ns#"
   xmlns:rdf="http://www.w3.org/1999/02/22-rdf-syntax-ns#"
   xmlns:svg="http://www.w3.org/2000/svg"
   xmlns="http://www.w3.org/2000/svg"
   xmlns:sodipodi="http://sodipodi.sourceforge.net/DTD/sodipodi-0.dtd"
   xmlns:inkscape="http://www.inkscape.org/namespaces/inkscape"
   width="198.425"
   height="198.425"
   viewBox="0 0 198.425 198.425"
   version="1.1"
   id="svg6"
   sodipodi:docname="hex-sticker-duke.svg"
   inkscape:version="0.92.2 (5c3e80d, 2017-08-06)">
  <metadata
     id="metadata12">
    <rdf:RDF>
      <cc:Work
         rdf:about="">
        <dc:format>image/svg+xml</dc:format>
        <dc:type
           rdf:resource="http://purl.org/dc/dcmitype/StillImage" />
      </cc:Work>
    </rdf:RDF>
  </metadata>
  <defs
     id="defs10" />
  <sodipodi:namedview
     pagecolor="#ffffff"
     bordercolor="#666666"
     borderopacity="1"
     objecttolerance="10"
     gridtolerance="10"
     guidetolerance="10"
     inkscape:pageopacity="0"
     inkscape:pageshadow="2"
     inkscape:window-width="1366"
     inkscape:window-height="713"
     id="namedview8"
     showgrid="false"
     inkscape:zoom="2.8924023"
     inkscape:cx="71.844399"
     inkscape:cy="95.248224"
     inkscape:window-x="0"
     inkscape:window-y="0"
     inkscape:window-maximized="1"
     inkscape:current-layer="svg6" />
  <g
     id="g1014"
     transform="matrix(0.20343022,0,0,0.20343022,75.94381,64.604893)"
     style="opacity:0.3;stroke-width:4.9156909">
    <path
       id="path951"
       d="m 48.859,43.518 c 8.424,17.64 2.736,140.832 -7.128,184.032 -9.864,43.272 -19.728,98.28 -22.032,144.576 -1.008,19.728 2.016,27.504 14.904,27.504 22.752,0 51.624,-47.952 87.84,-46.872 36.288,1.08 47.808,55.008 64.8,54.648 16.992,-0.36 30.672,-6.264 30.816,-58.752 C 218.563,191.981 87.235,64.973 48.859,43.518 Z"
       inkscape:connector-curvature="0"
       style="clip-rule:evenodd;fill-rule:evenodd;stroke-width:4.9156909" />
    <path
       id="path953"
       d="m 162.763,168.726 c 7.992,13.464 28.368,3.096 29.232,-12.096 0.864,-15.192 -1.368,-34.344 -11.232,-35.064 -9.864,-0.72 -16.92,-10.584 -26.784,-11.304 -9.864,-0.72 -20.448,9.144 -25.056,-3.96 -4.608,-13.104 12.384,-18.648 25.056,-20.736 -11.304,-11.304 -17.928,-23.832 -22.896,-36.864 -4.968,-13.032 -8.64,-24.984 5.256,-30.096 13.896,-5.112 12.744,21.168 28.656,33.192 -4.68,-17.712 -6.408,-25.056 -6.048,-35.352 0.36,-10.296 -0.36,-18.144 14.256,-16.128 14.616,2.016 8.28,32.4 19.656,44.784 3.456,-11.736 5.544,-26.64 13.896,-32.76 8.352,-6.12 27.36,-6.264 15.264,18.864 -12.096,25.128 3.528,38.736 -0.144,58.536 -3.672,19.8 -15.048,16.2 -19.944,28.944 -4.896,12.744 2.88,41.76 -6.336,54.792 -9.216,13.032 -10.872,33.048 -4.896,49.032 -18.36,-17.136 -27.936,-53.784 -27.936,-53.784 z"
       inkscape:connector-curvature="0"
       style="clip-rule:evenodd;fill-rule:evenodd;stroke-width:4.9156909" />
    <path
       id="path955"
       d="m 48.355,185.646 c -7.416,50.832 -33.192,56.88 -34.488,77.976 -1.296,21.096 6.84,23.112 6.336,42.624 -0.504,19.512 -17.856,27.432 -19.944,38.016 -2.088,10.584 8.928,13.968 15.336,13.968 6.408,0 12.816,-28.08 15.408,-45.936 2.592,-17.856 -8.496,-28.368 -8.496,-40.608 0,-12.24 16.056,-34.632 13.104,-14.976 13.32,-21.024 19.657,-47.809 12.744,-71.064 z"
       inkscape:connector-curvature="0"
       style="clip-rule:evenodd;fill-rule:evenodd;stroke-width:4.9156909" />
    <path
       id="path957"
       d="m 58.292,205.013 c -5.616,27.504 -40.68,181.08 -22.824,183.024 17.856,1.944 43.272,-47.52 84.888,-47.16 41.688,0.36 58.104,55.44 68.256,55.08 10.152,-0.36 16.848,3.6 17.928,-58.464 1.08,-62.064 -36.792,-141.336 -59.184,-176.256 -30.385,1.944 -63.073,26.281 -89.064,43.776 z"
       inkscape:connector-curvature="0"
       style="clip-rule:evenodd;fill:#ffffff;fill-rule:evenodd;stroke-width:4.9156909" />
    <g
       id="g986"
       style="stroke-width:4.9156909">
      <path
         id="path959"
         d="m 139.162,172.181 c -1.95,-18.251 -19.12,-25.421 -35.661,-23.168 -13.889,1.893 -32.403,13.613 -34.107,28.64 -1.921,16.937 11.402,32.522 28.361,33.203 15.03,0.604 31.176,-6.668 37.93,-20.79 2.73,-5.704 3.797,-11.578 3.477,-17.885"
         inkscape:connector-curvature="0"
         style="fill:none;stroke-width:4.9156909" />
      <path
         id="path961"
         d="m 147.082,171.533 c -1.662,-17.195 -14.407,-27.988 -30.895,-30.627 -15.924,-2.549 -33.26,4.998 -44.408,16.146 -12.538,12.538 -13.039,29.978 -4.26,44.833 8.661,14.657 27.847,19.501 43.563,15.835 21.506,-5.015 37.398,-23.824 36,-46.187"
         inkscape:connector-curvature="0"
         style="stroke-width:4.9156909" />
      <radialGradient
         gradientUnits="userSpaceOnUse"
         r="54.7155"
         cy="167.06931"
         cx="86.629898"
         id="SVGID_1_"
         gradientTransform="matrix(4.9156907,0,0,4.9156907,-1071.0862,-818.5374)">
        <stop
           id="stop963"
           style="stop-color:#FFFFFF"
           offset="0" />
        <stop
           id="stop965"
           style="stop-color:#FBC8B4"
           offset="0.0604" />
        <stop
           id="stop967"
           style="stop-color:#FBC3B0"
           offset="0.0712" />
        <stop
           id="stop969"
           style="stop-color:#F7978B"
           offset="0.1829" />
        <stop
           id="stop971"
           style="stop-color:#F4716B"
           offset="0.2995" />
        <stop
           id="stop973"
           style="stop-color:#F15251"
           offset="0.4199" />
        <stop
           id="stop975"
           style="stop-color:#EF3A3D"
           offset="0.5453" />
        <stop
           id="stop977"
           style="stop-color:#EE292F"
           offset="0.6778" />
        <stop
           id="stop979"
           style="stop-color:#ED1F27"
           offset="0.822" />
        <stop
           id="stop981"
           style="stop-color:#ED1C24"
           offset="1" />
      </radialGradient>
      <path
         id="path984"
         d="m 139.162,177.941 c -1.493,15.627 -13.947,28.182 -28.944,31.824 -15.87,3.854 -33.393,-2.257 -39.096,-18.576 -2.912,-8.332 -2.37,-16.879 2.637,-24.198 4.223,-6.171 11.033,-11 17.779,-14.066 13.924,-6.326 33.832,-7.029 43.531,7.077 3.675,5.346 4.318,11.639 4.093,17.939"
         inkscape:connector-curvature="0"
         style="fill:url(#SVGID_1_);stroke:#000000;stroke-width:4.9156909" />
    </g>
  </g>
  <path
     d="m 98.925,39.81498 57.5,33.119 v 66.221 l -57.5,33.119 -57.5,-33.119 v -66.221 z m 0,-5.771 -62.5,36 v 72.001 l 62.5,36 62.5,-36 v -72.001 z"
     id="path4"
     style="fill:#5382a1;fill-opacity:1"
     inkscape:connector-curvature="0" />
  <g
     aria-label="{   // Grupo de   // Usuarios de Java    // en Nicaragua }"
     transform="matrix(0.19364239,0,0,0.19364239,122.58757,67.319865)"
     style="font-size:40px;line-height:1.25;font-family:'Smartest Kid';-inkscape-font-specification:'Smartest Kid';letter-spacing:0px;word-spacing:0px;stroke-width:5.16415834"
     id="flowRoot1016">
    <path
       d="m -359.45312,110.0247 q -1.26954,0 -2.32422,-0.42969 -1.05469,-0.42969 -1.81641,-1.21094 -0.76172,-0.78125 -1.19141,-1.875 -0.41015,-1.07422 -0.41015,-2.40234 v -6.855471 q 0,-1.230469 -0.46875,-2.070312 -0.44922,-0.859375 -1.21094,-1.386719 -0.76172,-0.527344 -1.73828,-0.78125 -0.95703,-0.253906 -1.95313,-0.292969 v -2.675781 q 0.9961,-0.03906 1.95313,-0.292969 0.97656,-0.253906 1.73828,-0.78125 0.76172,-0.546875 1.21094,-1.386719 0.46875,-0.839843 0.46875,-2.050781 v -6.875 q 0,-1.367187 0.41015,-2.460937 0.42969,-1.09375 1.19141,-1.855469 0.76172,-0.78125 1.81641,-1.191406 1.05468,-0.410157 2.32422,-0.410157 h 5.17578 v 2.714844 h -4.16016 q -0.87891,0 -1.52344,0.214844 -0.625,0.195312 -1.03515,0.644531 -0.41016,0.449219 -0.60547,1.171875 -0.17578,0.722656 -0.17578,1.777344 v 6.757812 q 0,1.113282 -0.41016,2.011719 -0.39062,0.898438 -1.03516,1.582031 -0.64453,0.664063 -1.46484,1.09375 -0.80078,0.429688 -1.60156,0.625 v 0.03906 q 0.83984,0.195312 1.64062,0.644531 0.82032,0.429688 1.44532,1.09375 0.64453,0.664063 1.03515,1.582031 0.39063,0.898438 0.39063,2.03125 v 6.777348 q 0,2.07031 0.78125,2.92969 0.78125,0.8789 2.55859,0.8789 h 4.16016 v 2.71485 z"
       style="font-style:normal;font-variant:normal;font-weight:normal;font-stretch:normal;font-family:'Liberation Mono';-inkscape-font-specification:'Liberation Mono';stroke-width:5.16415834"
       id="path1191"
       inkscape:connector-curvature="0" />
    <path
       d="m -324.80469,156.41351 16.03516,-29.375 h 3.47656 l -15.95703,29.375 z"
       style="font-style:normal;font-variant:normal;font-weight:normal;font-stretch:normal;font-family:'Liberation Mono';-inkscape-font-specification:'Liberation Mono';stroke-width:5.16415834"
       id="path1193"
       inkscape:connector-curvature="0" />
    <path
       d="m -300.82031,156.41351 16.03515,-29.375 h 3.47657 l -15.95703,29.375 z"
       style="font-style:normal;font-variant:normal;font-weight:normal;font-stretch:normal;font-family:'Liberation Mono';-inkscape-font-specification:'Liberation Mono';stroke-width:5.16415834"
       id="path1195"
       inkscape:connector-curvature="0" />
    <path
       d="m -233.57422,153.42522 q -0.70312,0.46875 -1.64062,0.9961 -0.91797,0.52734 -2.05078,0.97656 -1.13282,0.42969 -2.48047,0.72266 -1.32813,0.29297 -2.85157,0.29297 -2.61718,0 -4.55078,-1.01563 -1.93359,-1.03516 -3.20312,-2.85156 -1.26953,-1.81641 -1.89453,-4.31641 -0.625,-2.51953 -0.625,-5.50781 0,-3.26172 0.60547,-5.76172 0.60546,-2.51953 1.875,-4.21875 1.26953,-1.71875 3.22265,-2.59766 1.95313,-0.8789 4.62891,-0.8789 1.95312,0 3.41797,0.50781 1.48437,0.50781 2.55859,1.38672 1.09375,0.85937 1.81641,2.05078 0.74218,1.17188 1.21093,2.51953 l -3.33984,1.09375 q -0.74219,-2.14844 -2.10937,-3.32031 -1.34766,-1.19141 -3.51563,-1.19141 -1.75781,0 -2.98828,0.6836 -1.23047,0.66406 -2.01172,1.99218 -0.76172,1.3086 -1.11328,3.26172 -0.33203,1.9336 -0.33203,4.47266 0,5.23437 1.64062,7.94922 1.66016,2.71484 5.01953,2.71484 0.9375,0 1.73829,-0.15625 0.82031,-0.17578 1.46484,-0.39062 0.66406,-0.23438 1.13281,-0.46875 0.48828,-0.25391 0.74219,-0.42969 v -6.5625 h -5.72266 v -3.125 h 9.35547 z"
       style="font-style:normal;font-variant:normal;font-weight:normal;font-stretch:normal;font-family:'Liberation Mono';-inkscape-font-specification:'Liberation Mono';stroke-width:5.16415834"
       id="path1197"
       inkscape:connector-curvature="0" />
    <path
       d="m -210.68359,138.09319 q -0.91797,-0.15625 -1.9336,-0.2539 -0.99609,-0.11719 -2.20703,-0.11719 -1.64062,0 -2.94922,0.66406 -1.30859,0.66406 -2.20703,1.81641 -0.89844,1.13281 -1.38672,2.65625 -0.46875,1.52344 -0.46875,3.24219 v 9.92187 h -3.51562 v -13.69141 q 0,-1.09375 -0.11719,-2.22656 -0.11719,-1.13281 -0.27344,-2.1289 -0.15625,-1.01563 -0.33203,-1.81641 -0.17578,-0.80078 -0.29297,-1.26953 h 3.33985 q 0.13672,0.46875 0.27343,1.07422 0.15625,0.60547 0.29297,1.26953 0.13672,0.64453 0.23438,1.30859 0.0977,0.66406 0.13672,1.23047 h 0.0977 q 0.54688,-1.21094 1.15235,-2.1875 0.60547,-0.97656 1.42578,-1.66016 0.83984,-0.68359 1.97265,-1.05468 1.13282,-0.3711 2.73438,-0.3711 1.09375,0 2.14844,0.0977 1.05468,0.0977 1.875,0.23437 z"
       style="font-style:normal;font-variant:normal;font-weight:normal;font-stretch:normal;font-family:'Liberation Mono';-inkscape-font-specification:'Liberation Mono';stroke-width:5.16415834"
       id="path1199"
       inkscape:connector-curvature="0" />
    <path
       d="m -199.98047,134.89007 v 13.39844 q 0,1.54296 0.21485,2.57812 0.23437,1.03516 0.74218,1.67969 0.52735,0.625 1.34766,0.89844 0.83984,0.2539 2.07031,0.2539 1.25,0 2.2461,-0.42969 1.01562,-0.44921 1.71875,-1.26953 0.72265,-0.83984 1.09375,-2.05078 0.39062,-1.23047 0.39062,-2.8125 v -12.24609 h 3.53516 v 16.62109 q 0,0.66406 0,1.40625 0.0195,0.72266 0.0391,1.38672 0.0195,0.64453 0.0391,1.11328 0.0195,0.46875 0.0391,0.60547 h -3.32031 q -0.0195,-0.0977 -0.0391,-0.52734 -0.0195,-0.42969 -0.0586,-0.97657 -0.0195,-0.5664 -0.0391,-1.13281 -0.0195,-0.58594 -0.0195,-0.97656 h -0.0586 q -0.50781,0.91797 -1.11328,1.66016 -0.60547,0.74218 -1.40625,1.26953 -0.80078,0.50781 -1.83594,0.78125 -1.03516,0.29297 -2.40234,0.29297 -1.75782,0 -3.02735,-0.42969 -1.26953,-0.42969 -2.08984,-1.32813 -0.82031,-0.89843 -1.21094,-2.30468 -0.37109,-1.42579 -0.37109,-3.37891 v -14.08203 z"
       style="font-style:normal;font-variant:normal;font-weight:normal;font-stretch:normal;font-family:'Liberation Mono';-inkscape-font-specification:'Liberation Mono';stroke-width:5.16415834"
       id="path1201"
       inkscape:connector-curvature="0" />
    <path
       d="m -161.83594,145.35882 q 0,2.40234 -0.39062,4.43359 -0.39063,2.03125 -1.28906,3.4961 -0.89844,1.46484 -2.36329,2.30468 -1.46484,0.82032 -3.61328,0.82032 -1.07422,0 -2.05078,-0.19532 -0.97656,-0.19531 -1.8164,-0.625 -0.83985,-0.42968 -1.50391,-1.11328 -0.64453,-0.68359 -1.09375,-1.66015 h -0.0977 q 0.0195,0.0391 0.0195,0.35156 0.0195,0.29297 0.0195,0.74219 0.0195,0.44921 0.0195,1.01562 0.0195,0.56641 0.0195,1.13281 v 8.26172 h -3.53516 v -25.05859 q 0,-0.78125 -0.0195,-1.50391 0,-0.72265 -0.0195,-1.28906 -0.0195,-0.58594 -0.0391,-0.99609 -0.0195,-0.41016 -0.0391,-0.58594 h 3.41797 q 0.0195,0.0586 0.0391,0.42969 0.0391,0.35156 0.0586,0.85937 0.0391,0.50781 0.0586,1.09375 0.0391,0.58594 0.0391,1.09375 h 0.0781 q 0.48828,-1.01562 1.09375,-1.75781 0.625,-0.74219 1.40625,-1.21094 0.78125,-0.48828 1.75781,-0.70312 0.97657,-0.23438 2.1875,-0.23438 2.14844,0 3.61328,0.78125 1.46485,0.78125 2.36329,2.22656 0.89843,1.42578 1.28906,3.4375 0.39062,2.01172 0.39062,4.45313 z m -3.63281,0 q 0,-1.95313 -0.23437,-3.47656 -0.23438,-1.52344 -0.82032,-2.5586 -0.5664,-1.05469 -1.52343,-1.60156 -0.9375,-0.54688 -2.36329,-0.54688 -1.15234,0 -2.16796,0.3711 -1.01563,0.35156 -1.77735,1.30859 -0.74219,0.9375 -1.1914,2.61719 -0.42969,1.67969 -0.42969,4.31641 0,2.24609 0.35156,3.78906 0.37109,1.52344 1.07422,2.48047 0.70312,0.9375 1.73828,1.34765 1.03516,0.41016 2.36328,0.41016 1.42578,0 2.38281,-0.54688 0.95704,-0.5664 1.52344,-1.64062 0.58594,-1.07422 0.82031,-2.65625 0.25391,-1.58203 0.25391,-3.61328 z"
       style="font-style:normal;font-variant:normal;font-weight:normal;font-stretch:normal;font-family:'Liberation Mono';-inkscape-font-specification:'Liberation Mono';stroke-width:5.16415834"
       id="path1203"
       inkscape:connector-curvature="0" />
    <path
       d="m -137.71484,145.43694 q 0,2.77344 -0.66407,4.84375 -0.64453,2.05078 -1.875,3.41797 -1.23046,1.36719 -3.00781,2.05078 -1.75781,0.66407 -3.98437,0.66407 -2.12891,0 -3.86719,-0.66407 -1.71875,-0.66406 -2.94922,-2.03125 -1.21094,-1.36718 -1.875,-3.41797 -0.66406,-2.07031 -0.66406,-4.86328 0,-5.44922 2.46094,-8.18359 2.48046,-2.75391 7.01171,-2.75391 4.76563,0 7.08985,2.71485 2.32422,2.71484 2.32422,8.22265 z m -3.69141,0 q 0,-2.46093 -0.42969,-4.0625 -0.41015,-1.60156 -1.17187,-2.55859 -0.74219,-0.95703 -1.77735,-1.32813 -1.03515,-0.39062 -2.28515,-0.39062 -1.26953,0 -2.34375,0.41016 -1.07422,0.39062 -1.85547,1.36718 -0.76172,0.95703 -1.21094,2.5586 -0.42969,1.60156 -0.42969,4.0039 0,2.46094 0.44922,4.08203 0.46875,1.60157 1.23047,2.5586 0.78125,0.95703 1.79688,1.34765 1.03515,0.39063 2.14843,0.39063 1.26954,0 2.34375,-0.37109 1.09375,-0.39063 1.875,-1.34766 0.78125,-0.95703 1.21094,-2.57813 0.44922,-1.62109 0.44922,-4.08203 z"
       style="font-style:normal;font-variant:normal;font-weight:normal;font-stretch:normal;font-family:'Liberation Mono';-inkscape-font-specification:'Liberation Mono';stroke-width:5.16415834"
       id="path1205"
       inkscape:connector-curvature="0" />
    <path
       d="m -94.335937,152.62444 q -0.957032,2.05078 -2.539063,2.98828 -1.582031,0.91797 -3.94531,0.91797 -3.94532,0 -5.80078,-2.71484 -1.85547,-2.71484 -1.85547,-8.18359 0,-11.05469 7.65625,-11.05469 2.363279,0 3.94531,0.83984 1.601563,0.83985 2.558594,2.75391 h 0.03906 q 0,-0.0977 -0.01953,-0.50781 0,-0.41016 0,-0.89844 0,-0.48828 -0.01953,-0.91797 0,-0.44922 0,-0.625 v -8.18359 h 3.515625 v 24.6289 q 0,0.76172 0,1.46485 0.01953,0.70312 0.03906,1.28906 0.01953,0.58594 0.03906,1.01562 0.01953,0.41016 0.03906,0.58594 h -3.359375 q -0.01953,-0.0781 -0.05859,-0.42969 -0.03906,-0.35156 -0.07813,-0.83984 -0.01953,-0.48828 -0.03906,-1.05469 -0.01953,-0.5664 -0.01953,-1.07422 z m -10.507813,-7.10937 q 0,2.1875 0.27344,3.75 0.29297,1.5625 0.8789,2.57812 0.60547,1.01563 1.54297,1.50391 0.9375,0.46875 2.246096,0.46875 1.347657,0 2.382813,-0.46875 1.054687,-0.46875 1.757812,-1.48438 0.722657,-1.03515 1.074219,-2.67578 0.371094,-1.64062 0.371094,-3.98437 0,-2.26563 -0.371094,-3.78906 -0.351562,-1.54297 -1.054687,-2.48047 -0.703125,-0.9375 -1.738282,-1.34766 -1.035156,-0.41016 -2.382812,-0.41016 -1.249999,0 -2.187499,0.44922 -0.9375,0.44922 -1.5625,1.44532 -0.60547,0.99609 -0.91797,2.59765 -0.3125,1.58203 -0.3125,3.84766 z"
       style="font-style:normal;font-variant:normal;font-weight:normal;font-stretch:normal;font-family:'Liberation Mono';-inkscape-font-specification:'Liberation Mono';stroke-width:5.16415834"
       id="path1207"
       inkscape:connector-curvature="0" />
    <path
       d="m -80.898437,146.19866 q 0,1.66016 0.371093,3.06641 0.371094,1.38672 1.113282,2.40234 0.742187,0.9961 1.835937,1.5625 1.113281,0.54688 2.558594,0.54688 1.074219,0 1.972656,-0.23438 0.917969,-0.2539 1.640625,-0.68359 0.722656,-0.42969 1.210938,-1.01563 0.488281,-0.60547 0.722656,-1.30859 l 3.085937,0.87891 q -0.3125,0.8789 -0.9375,1.77734 -0.625,0.87891 -1.660156,1.60156 -1.035156,0.70313 -2.519531,1.17188 -1.484375,0.44922 -3.515625,0.44922 -2.246094,0 -4.023438,-0.70313 -1.777343,-0.70312 -3.007812,-2.08984 -1.230469,-1.38672 -1.894531,-3.45703 -0.644532,-2.08985 -0.644532,-4.84375 0,-3.04688 0.761719,-5.11719 0.78125,-2.07031 2.089844,-3.33985 1.308594,-1.26953 3.007812,-1.8164 1.71875,-0.54688 3.59375,-0.54688 2.558594,0 4.316407,0.82032 1.777343,0.82031 2.890625,2.30468 1.113281,1.46485 1.601562,3.53516 0.507813,2.07031 0.507813,4.57031 v 0.46875 z m 5.800781,-9.10156 q -0.898438,0 -1.894531,0.29297 -0.976563,0.27344 -1.816407,0.99609 -0.839843,0.72266 -1.425781,1.97266 -0.566406,1.23047 -0.625,3.14453 h 11.40625 q -0.15625,-1.83594 -0.664062,-3.06641 -0.507813,-1.23047 -1.269532,-1.97265 -0.742187,-0.74219 -1.699218,-1.05469 -0.957032,-0.3125 -2.011719,-0.3125 z"
       style="font-style:normal;font-variant:normal;font-weight:normal;font-stretch:normal;font-family:'Liberation Mono';-inkscape-font-specification:'Liberation Mono';stroke-width:5.16415834"
       id="path1209"
       inkscape:connector-curvature="0" />
    <path
       d="m -324.80469,210.71247 16.03516,-29.375 h 3.47656 l -15.95703,29.375 z"
       style="font-style:normal;font-variant:normal;font-weight:normal;font-stretch:normal;font-family:'Liberation Mono';-inkscape-font-specification:'Liberation Mono';stroke-width:5.16415834"
       id="path1211"
       inkscape:connector-curvature="0" />
    <path
       d="m -300.82031,210.71247 16.03515,-29.375 h 3.47657 l -15.95703,29.375 z"
       style="font-style:normal;font-variant:normal;font-weight:normal;font-stretch:normal;font-family:'Liberation Mono';-inkscape-font-specification:'Liberation Mono';stroke-width:5.16415834"
       id="path1213"
       inkscape:connector-curvature="0" />
    <path
       d="m -233.88672,200.75153 q 0,2.67579 -0.5664,4.57032 -0.56641,1.89453 -1.73829,3.10547 -1.15234,1.1914 -2.92968,1.73828 -1.75782,0.54687 -4.14063,0.54687 -2.26562,0 -3.96484,-0.50781 -1.69922,-0.52734 -2.83203,-1.66016 -1.11328,-1.15234 -1.67969,-2.96875 -0.56641,-1.83593 -0.56641,-4.47265 v -17.12891 h 3.73047 v 16.62109 q 0,1.89454 0.23438,3.24219 0.2539,1.34766 0.83984,2.20703 0.60547,0.85938 1.62109,1.25 1.03516,0.39063 2.59766,0.39063 1.62109,0 2.69531,-0.39063 1.09375,-0.39062 1.75782,-1.25 0.66406,-0.8789 0.9375,-2.28515 0.29296,-1.40625 0.29296,-3.41797 v -16.36719 h 3.71094 z"
       style="font-style:normal;font-variant:normal;font-weight:normal;font-stretch:normal;font-family:'Liberation Mono';-inkscape-font-specification:'Liberation Mono';stroke-width:5.16415834"
       id="path1215"
       inkscape:connector-curvature="0" />
    <path
       d="m -210.39062,204.28669 q 0,1.48438 -0.58594,2.67578 -0.56641,1.19141 -1.66016,2.03125 -1.09375,0.82031 -2.69531,1.26953 -1.58203,0.44922 -3.63281,0.44922 -1.83594,0 -3.32032,-0.27344 -1.46484,-0.2539 -2.57812,-0.85937 -1.11328,-0.60547 -1.875,-1.60156 -0.74219,-1.01563 -1.09375,-2.5 l 3.10547,-0.60547 q 0.23437,1.07422 0.74219,1.71875 0.52734,0.625 1.25,0.95703 0.74218,0.33203 1.69921,0.44922 0.95704,0.0977 2.07032,0.0977 1.13281,0 2.08984,-0.15625 0.97656,-0.17578 1.67969,-0.5664 0.70312,-0.41016 1.09375,-1.03516 0.41015,-0.64453 0.41015,-1.58203 0,-0.97656 -0.50781,-1.5625 -0.48828,-0.60547 -1.34765,-1.01562 -0.85938,-0.41016 -2.05079,-0.70313 -1.17187,-0.29297 -2.55859,-0.66406 -1.25,-0.33203 -2.48047,-0.72266 -1.23047,-0.39062 -2.20703,-1.01562 -0.95703,-0.64453 -1.5625,-1.6211 -0.58594,-0.97656 -0.58594,-2.48047 0,-2.87109 2.07032,-4.49218 2.07031,-1.6211 5.99609,-1.6211 1.54297,0 2.89062,0.29297 1.34766,0.27344 2.40235,0.89844 1.05469,0.60547 1.75781,1.58203 0.72266,0.95703 0.99609,2.30469 l -3.16406,0.39062 q -0.13672,-0.8789 -0.58594,-1.42578 -0.44921,-0.54687 -1.11328,-0.85937 -0.64453,-0.33203 -1.46484,-0.44922 -0.82031,-0.11719 -1.71875,-0.11719 -4.78516,0 -4.78516,2.94922 0,0.89844 0.41016,1.46484 0.42969,0.54688 1.19141,0.91797 0.76171,0.3711 1.8164,0.64453 1.05469,0.25391 2.32422,0.58594 1.26953,0.3125 2.59766,0.72266 1.34765,0.41015 2.4414,1.09375 1.11328,0.68359 1.81641,1.75781 0.72266,1.05469 0.72266,2.67578 z"
       style="font-style:normal;font-variant:normal;font-weight:normal;font-stretch:normal;font-family:'Liberation Mono';-inkscape-font-specification:'Liberation Mono';stroke-width:5.16415834"
       id="path1217"
       inkscape:connector-curvature="0" />
    <path
       d="m -199.98047,189.18903 v 13.39844 q 0,1.54297 0.21485,2.57813 0.23437,1.03515 0.74218,1.67968 0.52735,0.625 1.34766,0.89844 0.83984,0.25391 2.07031,0.25391 1.25,0 2.2461,-0.42969 1.01562,-0.44922 1.71875,-1.26953 0.72265,-0.83984 1.09375,-2.05078 0.39062,-1.23047 0.39062,-2.8125 v -12.2461 h 3.53516 v 16.6211 q 0,0.66406 0,1.40625 0.0195,0.72265 0.0391,1.38672 0.0195,0.64453 0.0391,1.11328 0.0195,0.46875 0.0391,0.60547 h -3.32031 q -0.0195,-0.0977 -0.0391,-0.52735 -0.0195,-0.42968 -0.0586,-0.97656 -0.0195,-0.56641 -0.0391,-1.13281 -0.0195,-0.58594 -0.0195,-0.97656 h -0.0586 q -0.50781,0.91796 -1.11328,1.66015 -0.60547,0.74219 -1.40625,1.26953 -0.80078,0.50782 -1.83594,0.78125 -1.03516,0.29297 -2.40234,0.29297 -1.75782,0 -3.02735,-0.42969 -1.26953,-0.42968 -2.08984,-1.32812 -0.82031,-0.89844 -1.21094,-2.30469 -0.37109,-1.42578 -0.37109,-3.3789 v -14.08204 z"
       style="font-style:normal;font-variant:normal;font-weight:normal;font-stretch:normal;font-family:'Liberation Mono';-inkscape-font-specification:'Liberation Mono';stroke-width:5.16415834"
       id="path1219"
       inkscape:connector-curvature="0" />
    <path
       d="m -161.62109,208.15388 q 0.29297,0 0.58593,-0.0391 0.29297,-0.0391 0.56641,-0.0977 v 2.1875 q -0.66406,0.15625 -1.32812,0.23437 -0.64454,0.0781 -1.38672,0.0781 -0.9961,0 -1.71875,-0.25391 -0.70313,-0.27343 -1.15235,-0.80078 -0.44922,-0.54687 -0.68359,-1.32812 -0.23438,-0.80078 -0.29297,-1.85547 h -0.11719 q -0.54687,1.01562 -1.21093,1.83594 -0.66407,0.82031 -1.52344,1.40625 -0.85938,0.5664 -1.97266,0.8789 -1.11328,0.3125 -2.55859,0.3125 -3.08594,0 -4.64844,-1.67969 -1.5625,-1.67968 -1.5625,-4.60937 0,-2.08984 0.76172,-3.41797 0.78125,-1.34766 2.03125,-2.10937 1.25,-0.76172 2.83203,-1.05469 1.60156,-0.3125 3.24219,-0.33203 l 4.60937,-0.0781 v -1.15234 q 0,-1.3086 -0.27343,-2.22656 -0.25391,-0.91797 -0.80079,-1.48438 -0.52734,-0.56641 -1.34765,-0.82031 -0.82031,-0.27344 -1.91406,-0.27344 -0.97657,0 -1.77735,0.15625 -0.78125,0.13672 -1.34765,0.52734 -0.56641,0.3711 -0.9375,1.03516 -0.35157,0.64453 -0.46875,1.64063 l -3.67188,-0.33204 q 0.19531,-1.25 0.72266,-2.28515 0.54687,-1.05469 1.52343,-1.81641 0.97657,-0.76172 2.44141,-1.17187 1.48438,-0.42969 3.57422,-0.42969 3.90625,0 5.85937,1.83594 1.97266,1.8164 1.97266,5.27343 v 9.10157 q 0,1.5625 0.41016,2.36328 0.41015,0.78125 1.5625,0.78125 z m -11.89453,-0.11719 q 1.62109,0 2.8125,-0.60547 1.1914,-0.625 1.97265,-1.5625 0.80078,-0.9375 1.19141,-2.07031 0.39062,-1.13281 0.39062,-2.16797 v -1.73828 l -3.71093,0.0781 q -1.07422,0.0195 -2.16797,0.17579 -1.07422,0.13671 -1.95313,0.60546 -0.85937,0.46875 -1.40625,1.36719 -0.54687,0.87891 -0.54687,2.36328 0,1.60157 0.85937,2.57813 0.87891,0.97656 2.5586,0.97656 z"
       style="font-style:normal;font-variant:normal;font-weight:normal;font-stretch:normal;font-family:'Liberation Mono';-inkscape-font-specification:'Liberation Mono';stroke-width:5.16415834"
       id="path1221"
       inkscape:connector-curvature="0" />
    <path
       d="m -138.73047,192.39216 q -0.91797,-0.15625 -1.93359,-0.25391 -0.9961,-0.11718 -2.20703,-0.11718 -1.64063,0 -2.94922,0.66406 -1.3086,0.66406 -2.20703,1.8164 -0.89844,1.13282 -1.38672,2.65625 -0.46875,1.52344 -0.46875,3.24219 v 9.92188 h -3.51563 v -13.69141 q 0,-1.09375 -0.11718,-2.22656 -0.11719,-1.13281 -0.27344,-2.12891 -0.15625,-1.01562 -0.33203,-1.8164 -0.17578,-0.80079 -0.29297,-1.26954 h 3.33984 q 0.13672,0.46875 0.27344,1.07422 0.15625,0.60547 0.29297,1.26953 0.13672,0.64454 0.23437,1.3086 0.0977,0.66406 0.13672,1.23047 h 0.0977 q 0.54687,-1.21094 1.15234,-2.1875 0.60547,-0.97657 1.42578,-1.66016 0.83985,-0.68359 1.97266,-1.05469 1.13281,-0.37109 2.73437,-0.37109 1.09375,0 2.14844,0.0977 1.05469,0.0976 1.875,0.23437 z"
       style="font-style:normal;font-variant:normal;font-weight:normal;font-stretch:normal;font-family:'Liberation Mono';-inkscape-font-specification:'Liberation Mono';stroke-width:5.16415834"
       id="path1223"
       inkscape:connector-curvature="0" />
    <path
       d="m -120.60547,207.54841 h 7.42188 v 2.77344 h -19.17969 v -2.77344 h 8.24219 v -15.58594 h -6.23047 v -2.77344 h 9.74609 z m -3.90625,-22.46094 v -3.75 h 3.90625 v 3.75 z"
       style="font-style:normal;font-variant:normal;font-weight:normal;font-stretch:normal;font-family:'Liberation Mono';-inkscape-font-specification:'Liberation Mono';stroke-width:5.16415834"
       id="path1225"
       inkscape:connector-curvature="0" />
    <path
       d="m -89.746094,199.73591 q 0,2.77344 -0.664062,4.84375 -0.644531,2.05078 -1.875,3.41797 -1.230469,1.36719 -3.007813,2.05078 -1.757812,0.66406 -3.984375,0.66406 -2.128906,0 -3.867186,-0.66406 -1.71875,-0.66406 -2.94922,-2.03125 -1.21094,-1.36719 -1.875,-3.41797 -0.66406,-2.07031 -0.66406,-4.86328 0,-5.44922 2.46093,-8.18359 2.48047,-2.75391 7.011724,-2.75391 4.765625,0 7.089844,2.71484 2.324218,2.71485 2.324218,8.22266 z m -3.691406,0 q 0,-2.46094 -0.429687,-4.0625 -0.410157,-1.60156 -1.171875,-2.55859 -0.742188,-0.95704 -1.777344,-1.32813 -1.035156,-0.39062 -2.285156,-0.39062 -1.269528,0 -2.343748,0.41015 -1.07422,0.39063 -1.85547,1.36719 -0.76172,0.95703 -1.21094,2.55859 -0.42969,1.60157 -0.42969,4.00391 0,2.46094 0.44922,4.08203 0.46875,1.60156 1.23047,2.55859 0.78125,0.95704 1.79688,1.34766 1.03515,0.39063 2.148434,0.39063 1.269531,0 2.34375,-0.3711 1.09375,-0.39062 1.875,-1.34765 0.78125,-0.95704 1.210937,-2.57813 0.449219,-1.62109 0.449219,-4.08203 z"
       style="font-style:normal;font-variant:normal;font-weight:normal;font-stretch:normal;font-family:'Liberation Mono';-inkscape-font-specification:'Liberation Mono';stroke-width:5.16415834"
       id="path1227"
       inkscape:connector-curvature="0" />
    <path
       d="m -66.484375,204.28669 q 0,1.48438 -0.585937,2.67578 -0.566407,1.19141 -1.660157,2.03125 -1.09375,0.82031 -2.695312,1.26953 -1.582031,0.44922 -3.632813,0.44922 -1.835937,0 -3.320312,-0.27344 -1.464844,-0.2539 -2.578125,-0.85937 -1.113281,-0.60547 -1.875,-1.60156 -0.742188,-1.01563 -1.09375,-2.5 l 3.105469,-0.60547 q 0.234375,1.07422 0.742187,1.71875 0.527344,0.625 1.25,0.95703 0.742188,0.33203 1.699219,0.44922 0.957031,0.0977 2.070312,0.0977 1.132813,0 2.089844,-0.15625 0.976563,-0.17578 1.679688,-0.5664 0.703125,-0.41016 1.09375,-1.03516 0.410156,-0.64453 0.410156,-1.58203 0,-0.97656 -0.507813,-1.5625 -0.488281,-0.60547 -1.347656,-1.01562 -0.859375,-0.41016 -2.050781,-0.70313 -1.171875,-0.29297 -2.558594,-0.66406 -1.25,-0.33203 -2.480469,-0.72266 -1.230468,-0.39062 -2.207031,-1.01562 -0.957031,-0.64453 -1.5625,-1.6211 -0.585937,-0.97656 -0.585937,-2.48047 0,-2.87109 2.070312,-4.49218 2.070313,-1.6211 5.996094,-1.6211 1.542969,0 2.890625,0.29297 1.347656,0.27344 2.402344,0.89844 1.054687,0.60547 1.757812,1.58203 0.722656,0.95703 0.996094,2.30469 l -3.164063,0.39062 q -0.136718,-0.8789 -0.585937,-1.42578 -0.449219,-0.54687 -1.113281,-0.85937 -0.644532,-0.33203 -1.464844,-0.44922 -0.820313,-0.11719 -1.71875,-0.11719 -4.785156,0 -4.785156,2.94922 0,0.89844 0.410156,1.46484 0.429687,0.54688 1.191406,0.91797 0.761719,0.3711 1.816406,0.64453 1.054688,0.25391 2.324219,0.58594 1.269531,0.3125 2.597656,0.72266 1.347657,0.41015 2.441407,1.09375 1.113281,0.68359 1.816406,1.75781 0.722656,1.05469 0.722656,2.67578 z"
       style="font-style:normal;font-variant:normal;font-weight:normal;font-stretch:normal;font-family:'Liberation Mono';-inkscape-font-specification:'Liberation Mono';stroke-width:5.16415834"
       id="path1229"
       inkscape:connector-curvature="0" />
    <path
       d="m -22.382812,206.92341 q -0.957032,2.05078 -2.539063,2.98828 -1.582031,0.91797 -3.945312,0.91797 -3.945313,0 -5.800782,-2.71484 -1.855468,-2.71485 -1.855468,-8.1836 0,-11.05469 7.65625,-11.05469 2.363281,0 3.945312,0.83985 1.601563,0.83984 2.558594,2.7539 h 0.03906 q 0,-0.0977 -0.01953,-0.50781 0,-0.41015 0,-0.89844 0,-0.48828 -0.01953,-0.91796 0,-0.44922 0,-0.625 v -8.1836 h 3.515625 v 24.62891 q 0,0.76172 0,1.46484 0.01953,0.70313 0.03906,1.28906 0.01953,0.58594 0.03906,1.01563 0.01953,0.41016 0.03906,0.58594 h -3.359375 q -0.01953,-0.0781 -0.05859,-0.42969 -0.03906,-0.35156 -0.07813,-0.83984 -0.01953,-0.48829 -0.03906,-1.05469 -0.01953,-0.56641 -0.01953,-1.07422 z m -10.507813,-7.10938 q 0,2.1875 0.273438,3.75 0.292968,1.5625 0.878906,2.57813 0.605469,1.01562 1.542969,1.50391 0.9375,0.46875 2.246093,0.46875 1.347657,0 2.382813,-0.46875 1.054687,-0.46875 1.757812,-1.48438 0.722657,-1.03516 1.074219,-2.67578 0.371094,-1.64063 0.371094,-3.98438 0,-2.26562 -0.371094,-3.78906 -0.351562,-1.54297 -1.054687,-2.48047 -0.703125,-0.9375 -1.738282,-1.34765 -1.035156,-0.41016 -2.382812,-0.41016 -1.25,0 -2.1875,0.44922 -0.9375,0.44922 -1.5625,1.44531 -0.605469,0.9961 -0.917969,2.59766 -0.3125,1.58203 -0.3125,3.84765 z"
       style="font-style:normal;font-variant:normal;font-weight:normal;font-stretch:normal;font-family:'Liberation Mono';-inkscape-font-specification:'Liberation Mono';stroke-width:5.16415834"
       id="path1231"
       inkscape:connector-curvature="0" />
    <path
       d="m -8.9453125,200.49763 q 0,1.66015 0.3710937,3.0664 0.3710938,1.38672 1.1132813,2.40235 0.7421875,0.99609 1.8359375,1.5625 1.1132813,0.54687 2.5585937,0.54687 1.0742188,0 1.9726563,-0.23437 0.91796875,-0.25391 1.640625,-0.6836 0.7226562,-0.42968 1.2109375,-1.01562 0.4882813,-0.60547 0.7226563,-1.30859 l 3.0859374,0.8789 q -0.3125,0.87891 -0.9375,1.77735 -0.625,0.8789 -1.6601562,1.60156 -1.0351563,0.70312 -2.51953125,1.17187 -1.48437495,0.44922 -3.51562505,0.44922 -2.2460937,0 -4.0234374,-0.70312 -1.7773438,-0.70313 -3.0078123,-2.08985 -1.230469,-1.38672 -1.894532,-3.45703 -0.644531,-2.08984 -0.644531,-4.84375 0,-3.04687 0.761719,-5.11719 0.78125,-2.07031 2.0898437,-3.33984 1.3085938,-1.26953 3.0078126,-1.81641 1.71875,-0.54687 3.5937499,-0.54687 2.5585938,0 4.3164063,0.82031 1.7773438,0.82031 2.890625,2.30469 1.1132812,1.46484 1.6015625,3.53516 0.5078125,2.07031 0.5078125,4.57031 v 0.46875 z m 5.8007812,-9.10156 q -0.8984374,0 -1.8945312,0.29296 -0.9765625,0.27344 -1.8164062,0.9961 -0.8398438,0.72265 -1.4257813,1.97265 -0.5664063,1.23047 -0.625,3.14454 H 2.5 q -0.15625,-1.83594 -0.6640625,-3.06641 -0.5078125,-1.23047 -1.26953125,-1.97266 -0.7421875,-0.74218 -1.69921875,-1.05468 -0.9570313,-0.3125 -2.0117188,-0.3125 z"
       style="font-style:normal;font-variant:normal;font-weight:normal;font-stretch:normal;font-family:'Liberation Mono';-inkscape-font-specification:'Liberation Mono';stroke-width:5.16415834"
       id="path1233"
       inkscape:connector-curvature="0" />
    <path
       d="m 51.992187,202.11872 q 0,1.95313 -0.507812,3.55469 -0.488281,1.58203 -1.484375,2.71484 -0.976563,1.11328 -2.441406,1.71875 -1.464844,0.60547 -3.378907,0.60547 -3.339843,0 -5.332031,-1.73828 -1.992187,-1.73828 -2.675781,-5.48828 l 3.652344,-0.60547 q 0.195312,1.25 0.605468,2.16797 0.410157,0.89844 0.976563,1.48437 0.566406,0.58594 1.269531,0.87891 0.722656,0.27344 1.523438,0.27344 2.03125,0 3.046875,-1.38672 1.035156,-1.40625 1.035156,-4.10156 v -15.17578 h -6.074219 v -3.04688 h 9.785156 z"
       style="font-style:normal;font-variant:normal;font-weight:normal;font-stretch:normal;font-family:'Liberation Mono';-inkscape-font-specification:'Liberation Mono';stroke-width:5.16415834"
       id="path1235"
       inkscape:connector-curvature="0" />
    <path
       d="m 78.222656,208.15388 q 0.292969,0 0.585938,-0.0391 0.292968,-0.0391 0.566406,-0.0977 v 2.1875 q -0.664063,0.15625 -1.328125,0.23437 -0.644531,0.0781 -1.386719,0.0781 -0.996094,0 -1.71875,-0.25391 -0.703125,-0.27343 -1.152344,-0.80078 -0.449218,-0.54687 -0.683593,-1.32812 -0.234375,-0.80078 -0.292969,-1.85547 h -0.117188 q -0.546875,1.01562 -1.210937,1.83594 -0.664063,0.82031 -1.523438,1.40625 -0.859375,0.5664 -1.972656,0.8789 -1.113281,0.3125 -2.558594,0.3125 -3.085937,0 -4.648437,-1.67969 -1.5625,-1.67968 -1.5625,-4.60937 0,-2.08984 0.761719,-3.41797 0.78125,-1.34766 2.03125,-2.10937 1.25,-0.76172 2.832031,-1.05469 1.601562,-0.3125 3.242187,-0.33203 l 4.609375,-0.0781 v -1.15234 q 0,-1.3086 -0.273437,-2.22656 -0.253906,-0.91797 -0.800781,-1.48438 -0.527344,-0.56641 -1.347657,-0.82031 -0.820312,-0.27344 -1.914062,-0.27344 -0.976563,0 -1.777344,0.15625 -0.78125,0.13672 -1.347656,0.52734 -0.566406,0.3711 -0.9375,1.03516 -0.351563,0.64453 -0.46875,1.64063 l -3.671875,-0.33204 q 0.195312,-1.25 0.722656,-2.28515 0.546875,-1.05469 1.523438,-1.81641 0.976562,-0.76172 2.441406,-1.17187 1.484375,-0.42969 3.574219,-0.42969 3.90625,0 5.859375,1.83594 1.972656,1.8164 1.972656,5.27343 v 9.10157 q 0,1.5625 0.410156,2.36328 0.410156,0.78125 1.5625,0.78125 z m -11.894531,-0.11719 q 1.621094,0 2.8125,-0.60547 1.191406,-0.625 1.972656,-1.5625 0.800781,-0.9375 1.191406,-2.07031 0.390625,-1.13281 0.390625,-2.16797 v -1.73828 l -3.710937,0.0781 q -1.074219,0.0195 -2.167969,0.17579 -1.074219,0.13671 -1.953125,0.60546 -0.859375,0.46875 -1.40625,1.36719 -0.546875,0.87891 -0.546875,2.36328 0,1.60157 0.859375,2.57813 0.878906,0.97656 2.558594,0.97656 z"
       style="font-style:normal;font-variant:normal;font-weight:normal;font-stretch:normal;font-family:'Liberation Mono';-inkscape-font-specification:'Liberation Mono';stroke-width:5.16415834"
       id="path1237"
       inkscape:connector-curvature="0" />
    <path
       d="m 94.667969,210.32185 h -4.160157 l -8.457031,-21.13282 h 3.945313 l 5.234375,13.75 q 0.15625,0.42969 0.332031,1.05469 0.175781,0.60547 0.371094,1.26953 0.195312,0.66407 0.351562,1.28907 0.175781,0.60546 0.292969,1.01562 0.117187,-0.41016 0.292969,-1.01562 0.195312,-0.625 0.390625,-1.26954 0.195312,-0.64453 0.390625,-1.25 0.214843,-0.625 0.371093,-1.05468 l 5.390625,-13.78907 h 3.925778 z"
       style="font-style:normal;font-variant:normal;font-weight:normal;font-stretch:normal;font-family:'Liberation Mono';-inkscape-font-specification:'Liberation Mono';stroke-width:5.16415834"
       id="path1239"
       inkscape:connector-curvature="0" />
    <path
       d="m 126.19141,208.15388 q 0.29297,0 0.58593,-0.0391 0.29297,-0.0391 0.56641,-0.0977 v 2.1875 q -0.66406,0.15625 -1.32812,0.23437 -0.64454,0.0781 -1.38672,0.0781 -0.9961,0 -1.71875,-0.25391 -0.70313,-0.27343 -1.15235,-0.80078 -0.44922,-0.54687 -0.68359,-1.32812 -0.23438,-0.80078 -0.29297,-1.85547 h -0.11719 q -0.54687,1.01562 -1.21093,1.83594 -0.66407,0.82031 -1.52344,1.40625 -0.85938,0.5664 -1.97266,0.8789 -1.11328,0.3125 -2.55859,0.3125 -3.08594,0 -4.64844,-1.67969 -1.5625,-1.67968 -1.5625,-4.60937 0,-2.08984 0.76172,-3.41797 0.78125,-1.34766 2.03125,-2.10937 1.25,-0.76172 2.83203,-1.05469 1.60156,-0.3125 3.24219,-0.33203 l 4.60937,-0.0781 v -1.15234 q 0,-1.3086 -0.27343,-2.22656 -0.25391,-0.91797 -0.80079,-1.48438 -0.52734,-0.56641 -1.34765,-0.82031 -0.82031,-0.27344 -1.91406,-0.27344 -0.97657,0 -1.77735,0.15625 -0.78125,0.13672 -1.34765,0.52734 -0.56641,0.3711 -0.9375,1.03516 -0.35157,0.64453 -0.46875,1.64063 l -3.67188,-0.33204 q 0.19531,-1.25 0.72266,-2.28515 0.54687,-1.05469 1.52343,-1.81641 0.97657,-0.76172 2.44141,-1.17187 1.48438,-0.42969 3.57422,-0.42969 3.90625,0 5.85937,1.83594 1.97266,1.8164 1.97266,5.27343 v 9.10157 q 0,1.5625 0.41016,2.36328 0.41015,0.78125 1.5625,0.78125 z m -11.89453,-0.11719 q 1.62109,0 2.8125,-0.60547 1.1914,-0.625 1.97265,-1.5625 0.80078,-0.9375 1.19141,-2.07031 0.39062,-1.13281 0.39062,-2.16797 v -1.73828 l -3.71093,0.0781 q -1.07422,0.0195 -2.16797,0.17579 -1.07422,0.13671 -1.95313,0.60546 -0.85937,0.46875 -1.40625,1.36719 -0.54687,0.87891 -0.54687,2.36328 0,1.60157 0.85937,2.57813 0.87891,0.97656 2.5586,0.97656 z"
       style="font-style:normal;font-variant:normal;font-weight:normal;font-stretch:normal;font-family:'Liberation Mono';-inkscape-font-specification:'Liberation Mono';stroke-width:5.16415834"
       id="path1241"
       inkscape:connector-curvature="0" />
    <path
       d="m -324.80469,265.01144 16.03516,-29.375 h 3.47656 l -15.95703,29.375 z"
       style="font-style:normal;font-variant:normal;font-weight:normal;font-stretch:normal;font-family:'Liberation Mono';-inkscape-font-specification:'Liberation Mono';stroke-width:5.16415834"
       id="path1243"
       inkscape:connector-curvature="0" />
    <path
       d="m -300.82031,265.01144 16.03515,-29.375 h 3.47657 l -15.95703,29.375 z"
       style="font-style:normal;font-variant:normal;font-weight:normal;font-stretch:normal;font-family:'Liberation Mono';-inkscape-font-specification:'Liberation Mono';stroke-width:5.16415834"
       id="path1245"
       inkscape:connector-curvature="0" />
    <path
       d="m -248.78906,254.79659 q 0,1.66016 0.37109,3.06641 0.3711,1.38672 1.11328,2.40234 0.74219,0.9961 1.83594,1.5625 1.11328,0.54688 2.55859,0.54688 1.07422,0 1.97266,-0.23438 0.91797,-0.2539 1.64063,-0.68359 0.72265,-0.42969 1.21093,-1.01563 0.48828,-0.60546 0.72266,-1.30859 l 3.08594,0.87891 q -0.3125,0.8789 -0.9375,1.77734 -0.625,0.87891 -1.66016,1.60156 -1.03516,0.70313 -2.51953,1.17188 -1.48438,0.44922 -3.51563,0.44922 -2.24609,0 -4.02343,-0.70313 -1.77735,-0.70312 -3.00782,-2.08984 -1.23046,-1.38672 -1.89453,-3.45703 -0.64453,-2.08985 -0.64453,-4.84375 0,-3.04688 0.76172,-5.11719 0.78125,-2.07031 2.08984,-3.33984 1.3086,-1.26954 3.00782,-1.81641 1.71875,-0.54688 3.59375,-0.54688 2.55859,0 4.3164,0.82032 1.77735,0.82031 2.89063,2.30468 1.11328,1.46485 1.60156,3.53516 0.50781,2.07031 0.50781,4.57031 v 0.46875 z m 5.80078,-9.10156 q -0.89844,0 -1.89453,0.29297 -0.97656,0.27344 -1.81641,0.99609 -0.83984,0.72266 -1.42578,1.97266 -0.56641,1.23047 -0.625,3.14453 h 11.40625 q -0.15625,-1.83594 -0.66406,-3.06641 -0.50781,-1.23046 -1.26953,-1.97265 -0.74219,-0.74219 -1.69922,-1.05469 -0.95703,-0.3125 -2.01172,-0.3125 z"
       style="font-style:normal;font-variant:normal;font-weight:normal;font-stretch:normal;font-family:'Liberation Mono';-inkscape-font-specification:'Liberation Mono';stroke-width:5.16415834"
       id="path1247"
       inkscape:connector-curvature="0" />
    <path
       d="m -214.14062,264.62081 v -13.57422 q 0,-1.5625 -0.33204,-2.55859 -0.3125,-1.01563 -0.89843,-1.60156 -0.56641,-0.60547 -1.34766,-0.83985 -0.78125,-0.23437 -1.71875,-0.23437 -1.15234,0 -2.16797,0.44922 -0.99609,0.42968 -1.75781,1.26953 -0.74219,0.82031 -1.17188,2.05078 -0.42968,1.21094 -0.42968,2.79297 v 12.24609 h -3.51563 v -16.62109 q 0,-0.66406 -0.0195,-1.38672 0,-0.74219 -0.0195,-1.38672 -0.0195,-0.66406 -0.0391,-1.13281 -0.0195,-0.46875 -0.0391,-0.60547 h 3.32032 q 0.0195,0.0977 0.0391,0.52734 0.0195,0.42969 0.0391,0.9961 0.0391,0.54687 0.0586,1.13281 0.0195,0.56641 0.0195,0.95703 h 0.0586 q 0.46875,-0.91797 1.09375,-1.66016 0.64453,-0.74218 1.46484,-1.25 0.83985,-0.52734 1.875,-0.80078 1.03516,-0.29297 2.32422,-0.29297 1.6211,0 2.8711,0.42969 1.25,0.42969 2.08984,1.32813 0.85938,0.89843 1.28906,2.30468 0.44922,1.40625 0.44922,3.37891 v 14.08203 z"
       style="font-style:normal;font-variant:normal;font-weight:normal;font-stretch:normal;font-family:'Liberation Mono';-inkscape-font-specification:'Liberation Mono';stroke-width:5.16415834"
       id="path1249"
       inkscape:connector-curvature="0" />
    <path
       d="m -166.79687,264.62081 -10.15625,-22.07031 q 0.0781,0.83984 0.15625,1.71875 0.0586,0.74219 0.0977,1.62109 0.0586,0.85938 0.0586,1.6211 v 17.10937 h -3.32032 v -26.34765 h 4.33594 l 10.3125,22.22656 q -0.0977,-0.78125 -0.17578,-1.67969 -0.0781,-0.76172 -0.13672,-1.71875 -0.0391,-0.95703 -0.0391,-1.95312 v -16.875 h 3.35937 v 26.34765 z"
       style="font-style:normal;font-variant:normal;font-weight:normal;font-stretch:normal;font-family:'Liberation Mono';-inkscape-font-specification:'Liberation Mono';stroke-width:5.16415834"
       id="path1251"
       inkscape:connector-curvature="0" />
    <path
       d="m -144.58984,261.84737 h 7.42187 v 2.77344 h -19.17969 v -2.77344 h 8.24219 v -15.58593 h -6.23047 V 243.488 h 9.7461 z m -3.90625,-22.46093 v -3.75 h 3.90625 v 3.75 z"
       style="font-style:normal;font-variant:normal;font-weight:normal;font-stretch:normal;font-family:'Liberation Mono';-inkscape-font-specification:'Liberation Mono';stroke-width:5.16415834"
       id="path1253"
       inkscape:connector-curvature="0" />
    <path
       d="m -132.61719,254.03487 q 0,-3.18359 0.83985,-5.29296 0.83984,-2.10938 2.20703,-3.35938 1.38672,-1.25 3.14453,-1.75781 1.75781,-0.52735 3.61328,-0.52735 1.91406,0 3.41797,0.48829 1.5039,0.48828 2.57812,1.34765 1.09375,0.83985 1.77735,1.99219 0.68359,1.15234 0.9375,2.48047 l -3.75,0.27344 q -0.3125,-1.77735 -1.5625,-2.79297 -1.25,-1.03516 -3.55469,-1.03516 -1.67969,0 -2.83203,0.54688 -1.13281,0.52734 -1.83594,1.5625 -0.68359,1.01562 -0.99609,2.53906 -0.29297,1.5039 -0.29297,3.45703 0,1.95312 0.29297,3.51562 0.3125,1.54297 0.99609,2.61719 0.70313,1.07422 1.83594,1.64063 1.15234,0.5664 2.8125,0.5664 2.10937,0 3.49609,-1.03515 1.38672,-1.03516 1.71875,-3.16407 l 3.71094,0.23438 q -0.17578,1.30859 -0.83984,2.51953 -0.66407,1.21094 -1.77735,2.12891 -1.11328,0.91797 -2.65625,1.48437 -1.54297,0.54688 -3.49609,0.54688 -2.67578,0 -4.55078,-0.83985 -1.85547,-0.83984 -3.02735,-2.30468 -1.15234,-1.48438 -1.67968,-3.47657 -0.52735,-2.01172 -0.52735,-4.35547 z"
       style="font-style:normal;font-variant:normal;font-weight:normal;font-stretch:normal;font-family:'Liberation Mono';-inkscape-font-specification:'Liberation Mono';stroke-width:5.16415834"
       id="path1255"
       inkscape:connector-curvature="0" />
    <path
       d="m -89.667969,262.45284 q 0.292969,0 0.585938,-0.0391 0.292969,-0.0391 0.566406,-0.0977 v 2.1875 q -0.664062,0.15625 -1.328125,0.23438 -0.644531,0.0781 -1.386719,0.0781 -0.996093,0 -1.71875,-0.2539 -0.703125,-0.27344 -1.152343,-0.80078 -0.449219,-0.54688 -0.683594,-1.32813 -0.234375,-0.80078 -0.292969,-1.85547 h -0.117187 q -0.546875,1.01563 -1.210938,1.83594 -0.664062,0.82031 -1.523437,1.40625 -0.859375,0.56641 -1.972657,0.87891 -1.113286,0.3125 -2.558596,0.3125 -3.08594,0 -4.64844,-1.67969 -1.5625,-1.67969 -1.5625,-4.60938 0,-2.08984 0.76172,-3.41796 0.78125,-1.34766 2.03125,-2.10938 1.25,-0.76172 2.83203,-1.05469 1.60157,-0.3125 3.242193,-0.33203 l 4.609375,-0.0781 v -1.15235 q 0,-1.30859 -0.273438,-2.22656 -0.253906,-0.91797 -0.800781,-1.48437 -0.527344,-0.56641 -1.347656,-0.82032 -0.820313,-0.27343 -1.914063,-0.27343 -0.97656,0 -1.77734,0.15625 -0.78125,0.13671 -1.34766,0.52734 -0.56641,0.37109 -0.9375,1.03516 -0.35156,0.64453 -0.46875,1.64062 l -3.67188,-0.33203 q 0.19532,-1.25 0.72266,-2.28516 0.54688,-1.05468 1.52344,-1.8164 0.97656,-0.76172 2.4414,-1.17188 1.48438,-0.42969 3.574224,-0.42969 3.90625,0 5.859375,1.83594 1.972656,1.81641 1.972656,5.27344 v 9.10156 q 0,1.5625 0.410156,2.36328 0.410157,0.78125 1.5625,0.78125 z m -11.894531,-0.11718 q 1.621094,0 2.8125,-0.60547 1.191406,-0.625 1.972656,-1.5625 0.800782,-0.9375 1.191407,-2.07032 0.390625,-1.13281 0.390625,-2.16796 v -1.73829 l -3.710938,0.0781 q -1.074219,0.0195 -2.16797,0.17578 -1.07422,0.13672 -1.95312,0.60547 -0.85938,0.46875 -1.40625,1.36719 -0.54688,0.8789 -0.54688,2.36328 0,1.60156 0.85938,2.57812 0.8789,0.97657 2.55859,0.97657 z"
       style="font-style:normal;font-variant:normal;font-weight:normal;font-stretch:normal;font-family:'Liberation Mono';-inkscape-font-specification:'Liberation Mono';stroke-width:5.16415834"
       id="path1257"
       inkscape:connector-curvature="0" />
    <path
       d="m -66.777344,246.69112 q -0.917968,-0.15625 -1.933593,-0.2539 -0.996094,-0.11719 -2.207032,-0.11719 -1.640625,0 -2.949218,0.66406 -1.308594,0.66407 -2.207032,1.81641 -0.898437,1.13281 -1.386718,2.65625 -0.46875,1.52344 -0.46875,3.24219 v 9.92187 h -3.515625 v -13.6914 q 0,-1.09375 -0.117188,-2.22657 -0.117187,-1.13281 -0.273437,-2.1289 -0.15625,-1.01563 -0.332032,-1.81641 -0.175781,-0.80078 -0.292968,-1.26953 h 3.339843 q 0.136719,0.46875 0.273438,1.07422 0.15625,0.60547 0.292969,1.26953 0.136718,0.64453 0.234375,1.30859 0.09766,0.66407 0.136718,1.23047 h 0.09766 q 0.546875,-1.21094 1.152343,-2.1875 0.605469,-0.97656 1.425782,-1.66015 0.839843,-0.6836 1.972656,-1.05469 1.132812,-0.3711 2.734375,-0.3711 1.09375,0 2.148437,0.0977 1.054688,0.0977 1.875,0.23438 z"
       style="font-style:normal;font-variant:normal;font-weight:normal;font-stretch:normal;font-family:'Liberation Mono';-inkscape-font-specification:'Liberation Mono';stroke-width:5.16415834"
       id="path1259"
       inkscape:connector-curvature="0" />
    <path
       d="m -41.699219,262.45284 q 0.292969,0 0.585938,-0.0391 0.292969,-0.0391 0.566406,-0.0977 v 2.1875 q -0.664062,0.15625 -1.328125,0.23438 -0.644531,0.0781 -1.386719,0.0781 -0.996093,0 -1.71875,-0.2539 -0.703125,-0.27344 -1.152343,-0.80078 -0.449219,-0.54688 -0.683594,-1.32813 -0.234375,-0.80078 -0.292969,-1.85547 h -0.117187 q -0.546875,1.01563 -1.210938,1.83594 -0.664062,0.82031 -1.523437,1.40625 -0.859375,0.56641 -1.972657,0.87891 -1.113281,0.3125 -2.558593,0.3125 -3.085938,0 -4.648438,-1.67969 -1.5625,-1.67969 -1.5625,-4.60938 0,-2.08984 0.761719,-3.41796 0.78125,-1.34766 2.03125,-2.10938 1.25,-0.76172 2.832031,-1.05469 1.601563,-0.3125 3.242188,-0.33203 l 4.609375,-0.0781 v -1.15235 q 0,-1.30859 -0.273438,-2.22656 -0.253906,-0.91797 -0.800781,-1.48437 -0.527344,-0.56641 -1.347656,-0.82032 -0.820313,-0.27343 -1.914063,-0.27343 -0.976562,0 -1.777344,0.15625 -0.78125,0.13671 -1.347656,0.52734 -0.566406,0.37109 -0.9375,1.03516 -0.351562,0.64453 -0.46875,1.64062 l -3.671875,-0.33203 q 0.195313,-1.25 0.722656,-2.28516 0.546875,-1.05468 1.523438,-1.8164 0.976562,-0.76172 2.441406,-1.17188 1.484375,-0.42969 3.574219,-0.42969 3.90625,0 5.859375,1.83594 1.972656,1.81641 1.972656,5.27344 v 9.10156 q 0,1.5625 0.410156,2.36328 0.410157,0.78125 1.5625,0.78125 z m -11.894531,-0.11718 q 1.621094,0 2.8125,-0.60547 1.191406,-0.625 1.972656,-1.5625 0.800782,-0.9375 1.191407,-2.07032 0.390625,-1.13281 0.390625,-2.16796 v -1.73829 l -3.710938,0.0781 q -1.074219,0.0195 -2.167969,0.17578 -1.074218,0.13672 -1.953125,0.60547 -0.859375,0.46875 -1.40625,1.36719 -0.546875,0.8789 -0.546875,2.36328 0,1.60156 0.859375,2.57812 0.878907,0.97657 2.558594,0.97657 z"
       style="font-style:normal;font-variant:normal;font-weight:normal;font-stretch:normal;font-family:'Liberation Mono';-inkscape-font-specification:'Liberation Mono';stroke-width:5.16415834"
       id="path1261"
       inkscape:connector-curvature="0" />
    <path
       d="m -27.207031,272.90206 q -1.757813,0 -3.105469,-0.37109 -1.328125,-0.3711 -2.304687,-1.07422 -0.957032,-0.68359 -1.5625,-1.64063 -0.585938,-0.95703 -0.839844,-2.1289 l 3.59375,-0.48828 q 0.332031,1.46484 1.425781,2.24609 1.113281,0.80078 2.910156,0.80078 1.113282,0 1.992188,-0.33203 0.898437,-0.33203 1.523437,-1.07422 0.644532,-0.72265 0.976563,-1.89453 0.351562,-1.17187 0.351562,-2.85156 v -3.78906 h -0.03906 q -0.371094,0.78125 -0.957031,1.52343 -0.566407,0.74219 -1.386719,1.3086 -0.800781,0.5664 -1.875,0.91797 -1.074219,0.33203 -2.480469,0.33203 -1.992187,0 -3.398437,-0.64453 -1.40625,-0.64454 -2.304688,-1.95313 -0.898437,-1.30859 -1.328125,-3.28125 -0.410156,-1.97266 -0.410156,-4.60937 0,-2.5586 0.410156,-4.55079 0.429688,-1.99218 1.347656,-3.35937 0.9375,-1.38672 2.421875,-2.10938 1.484375,-0.72265 3.632813,-0.72265 2.207031,0 3.828125,1.03515 1.640625,1.01563 2.519531,2.91016 h 0.05859 q 0,-0.48828 0.01953,-1.09375 0.03906,-0.60547 0.05859,-1.13281 0.03906,-0.54688 0.07813,-0.9375 0.05859,-0.39063 0.07813,-0.44922 h 3.339844 q -0.01953,0.17578 -0.03906,0.60547 -0.01953,0.41015 -0.03906,0.99609 -0.01953,0.58594 -0.03906,1.3086 0,0.70312 0,1.46484 v 16.13281 q 0,4.4336 -2.070312,6.66016 -2.070313,2.24609 -6.386719,2.24609 z m 4.960937,-19.04297 q 0,-2.20703 -0.46875,-3.75 -0.46875,-1.54297 -1.25,-2.5 -0.761718,-0.97656 -1.757812,-1.40625 -0.976563,-0.42968 -2.011719,-0.42968 -1.308594,0 -2.265625,0.44921 -0.957031,0.42969 -1.582031,1.40625 -0.625,0.95704 -0.917969,2.5 -0.292969,1.52344 -0.292969,3.73047 0,2.28516 0.292969,3.8086 0.292969,1.52343 0.898438,2.4414 0.625,0.91797 1.5625,1.3086 0.957031,0.37109 2.246093,0.37109 1.035157,0 2.03125,-0.41016 0.996094,-0.42968 1.777344,-1.36718 0.78125,-0.9375 1.25,-2.44141 0.488281,-1.52344 0.488281,-3.71094 z"
       style="font-style:normal;font-variant:normal;font-weight:normal;font-stretch:normal;font-family:'Liberation Mono';-inkscape-font-specification:'Liberation Mono';stroke-width:5.16415834"
       id="path1263"
       inkscape:connector-curvature="0" />
    <path
       d="m -8.1054688,243.488 v 13.39844 q 0,1.54297 0.2148438,2.57812 0.234375,1.03516 0.7421875,1.67969 0.5273438,0.625 1.3476563,0.89844 0.8398437,0.2539 2.0703124,0.2539 1.25,0 2.2460938,-0.42968 1.015625,-0.44922 1.71875,-1.26954 0.72265625,-0.83984 1.09375,-2.05078 0.390625,-1.23047 0.390625,-2.8125 V 243.488 h 3.5351562 v 16.62109 q 0,0.66407 0,1.40625 0.019531,0.72266 0.039063,1.38672 0.019531,0.64453 0.039063,1.11328 0.019531,0.46875 0.039063,0.60547 H 2.0507813 q -0.019531,-0.0976 -0.039063,-0.52734 -0.019531,-0.42969 -0.058594,-0.97656 -0.019531,-0.56641 -0.039063,-1.13282 -0.019531,-0.58593 -0.019531,-0.97656 h -0.058594 q -0.5078125,0.91797 -1.11328125,1.66016 -0.60546875,0.74218 -1.40625,1.26953 -0.80078125,0.50781 -1.83593755,0.78125 -1.0351562,0.29297 -2.4023437,0.29297 -1.7578125,0 -3.0273437,-0.42969 -1.2695313,-0.42969 -2.0898441,-1.32813 -0.820312,-0.89843 -1.210937,-2.30468 -0.371094,-1.42578 -0.371094,-3.37891 V 243.488 Z"
       style="font-style:normal;font-variant:normal;font-weight:normal;font-stretch:normal;font-family:'Liberation Mono';-inkscape-font-specification:'Liberation Mono';stroke-width:5.16415834"
       id="path1265"
       inkscape:connector-curvature="0" />
    <path
       d="m 30.253906,262.45284 q 0.292969,0 0.585938,-0.0391 0.292968,-0.0391 0.566406,-0.0977 v 2.1875 q -0.664063,0.15625 -1.328125,0.23438 -0.644531,0.0781 -1.386719,0.0781 -0.996094,0 -1.71875,-0.2539 -0.703125,-0.27344 -1.152344,-0.80078 -0.449218,-0.54688 -0.683593,-1.32813 -0.234375,-0.80078 -0.292969,-1.85547 h -0.117188 q -0.546875,1.01563 -1.210937,1.83594 -0.664063,0.82031 -1.523438,1.40625 -0.859375,0.56641 -1.972656,0.87891 -1.113281,0.3125 -2.558594,0.3125 -3.085937,0 -4.648437,-1.67969 -1.5625,-1.67969 -1.5625,-4.60938 0,-2.08984 0.761719,-3.41796 0.78125,-1.34766 2.03125,-2.10938 1.25,-0.76172 2.832031,-1.05469 1.601562,-0.3125 3.242187,-0.33203 l 4.609375,-0.0781 v -1.15235 q 0,-1.30859 -0.273437,-2.22656 -0.253906,-0.91797 -0.800781,-1.48437 -0.527344,-0.56641 -1.347657,-0.82032 -0.820312,-0.27343 -1.914062,-0.27343 -0.976563,0 -1.777344,0.15625 -0.78125,0.13671 -1.347656,0.52734 -0.566406,0.37109 -0.9375,1.03516 -0.351562,0.64453 -0.46875,1.64062 L 12.1875,248.8005 q 0.195313,-1.25 0.722656,-2.28516 0.546875,-1.05468 1.523438,-1.8164 0.976562,-0.76172 2.441406,-1.17188 1.484375,-0.42969 3.574219,-0.42969 3.90625,0 5.859375,1.83594 1.972656,1.81641 1.972656,5.27344 v 9.10156 q 0,1.5625 0.410156,2.36328 0.410156,0.78125 1.5625,0.78125 z m -11.894531,-0.11718 q 1.621094,0 2.8125,-0.60547 1.191406,-0.625 1.972656,-1.5625 0.800781,-0.9375 1.191406,-2.07032 0.390625,-1.13281 0.390625,-2.16796 v -1.73829 l -3.710937,0.0781 q -1.074219,0.0195 -2.167969,0.17578 -1.074219,0.13672 -1.953125,0.60547 -0.859375,0.46875 -1.40625,1.36719 -0.546875,0.8789 -0.546875,2.36328 0,1.60156 0.859375,2.57812 0.878906,0.97657 2.558594,0.97657 z"
       style="font-style:normal;font-variant:normal;font-weight:normal;font-stretch:normal;font-family:'Liberation Mono';-inkscape-font-specification:'Liberation Mono';stroke-width:5.16415834"
       id="path1267"
       inkscape:connector-curvature="0" />
    <path
       d="m -371.73828,327.22056 v -2.71485 h 4.16016 q 1.77734,0 2.55859,-0.8789 0.80078,-0.85938 0.80078,-2.92969 v -6.77734 q 0,-1.13282 0.39063,-2.03125 0.39062,-0.91797 1.01562,-1.58203 0.64453,-0.66407 1.44531,-1.09375 0.80078,-0.44922 1.64063,-0.64454 v -0.0391 q -0.80078,-0.19531 -1.60156,-0.625 -0.80079,-0.42969 -1.44532,-1.09375 -0.64453,-0.68359 -1.05468,-1.58203 -0.39063,-0.89844 -0.39063,-2.01172 v -6.75781 q 0,-1.05469 -0.19531,-1.77734 -0.19531,-0.72266 -0.60547,-1.17188 -0.41016,-0.44922 -1.05469,-0.64453 -0.625,-0.21484 -1.5039,-0.21484 h -4.16016 v -2.71485 h 5.17578 q 1.26953,0 2.32422,0.41016 1.05469,0.41015 1.81641,1.1914 0.76171,0.76172 1.17187,1.85547 0.42969,1.09375 0.42969,2.46094 v 6.875 q 0,1.21094 0.44922,2.05078 0.46875,0.83985 1.23047,1.38672 0.76171,0.52734 1.71875,0.78125 0.97656,0.25391 1.97265,0.29297 v 2.67578 q -0.99609,0.0391 -1.97265,0.29297 -0.95704,0.25391 -1.71875,0.78125 -0.76172,0.52734 -1.23047,1.38672 -0.44922,0.83984 -0.44922,2.07031 v 6.85547 q 0,1.32812 -0.42969,2.40234 -0.41016,1.09375 -1.17187,1.875 -0.76172,0.78125 -1.81641,1.21094 -1.05469,0.42969 -2.32422,0.42969 z"
       style="font-style:normal;font-variant:normal;font-weight:normal;font-stretch:normal;font-family:'Liberation Mono';-inkscape-font-specification:'Liberation Mono';stroke-width:5.16415834"
       id="path1269"
       inkscape:connector-curvature="0" />
  </g>
  <path
     style="fill:#ffffff;fill-opacity:1;stroke-width:0.99999952"
     id="path1187"
     d="M 98.925006,43.183325 153.50062,74.617938 V 137.47099 L 98.925006,168.90565 44.349385,137.47099 V 74.617938 Z m 0,-5.477489 -59.321326,34.169087 v 68.339107 l 59.321326,34.16909 59.321314,-34.16909 V 71.87492 Z"
     inkscape:connector-curvature="0" />
  <path
     inkscape:connector-curvature="0"
     style="fill:#5382a1;fill-opacity:1;stroke-width:1"
     id="path1189"
     d="M 98.925005,46.766545 150.3897,76.409315 V 135.67963 L 98.925005,165.3224 47.46031,135.67963 V 76.409315 Z m 0,-5.165265 L 42.98512,73.822654 V 138.2663 L 98.925005,170.48768 154.86488,138.2663 V 73.822654 Z" />
</svg>
