<?xml version="1.0" encoding="UTF-8" standalone="no"?>
<svg
   xmlns:dc="http://purl.org/dc/elements/1.1/"
   xmlns:cc="http://creativecommons.org/ns#"
   xmlns:rdf="http://www.w3.org/1999/02/22-rdf-syntax-ns#"
   xmlns:svg="http://www.w3.org/2000/svg"
   xmlns="http://www.w3.org/2000/svg"
   xmlns:sodipodi="http://sodipodi.sourceforge.net/DTD/sodipodi-0.dtd"
   xmlns:inkscape="http://www.inkscape.org/namespaces/inkscape"
   width="198.425"
   height="198.425"
   viewBox="0 0 198.425 198.425"
   version="1.1"
   id="svg6"
   sodipodi:docname="hex-sticker.svg"
   inkscape:version="0.92.2 (5c3e80d, 2017-08-06)">
  <metadata
     id="metadata12">
    <rdf:RDF>
      <cc:Work
         rdf:about="">
        <dc:format>image/svg+xml</dc:format>
        <dc:type
           rdf:resource="http://purl.org/dc/dcmitype/StillImage" />
      </cc:Work>
    </rdf:RDF>
  </metadata>
  <defs
     id="defs10" />
  <sodipodi:namedview
     pagecolor="#ffffff"
     bordercolor="#666666"
     borderopacity="1"
     objecttolerance="10"
     gridtolerance="10"
     guidetolerance="10"
     inkscape:pageopacity="0"
     inkscape:pageshadow="2"
     inkscape:window-width="1366"
     inkscape:window-height="713"
     id="namedview8"
     showgrid="false"
     inkscape:zoom="1.54958"
     inkscape:cx="111.38158"
     inkscape:cy="99.212502"
     inkscape:window-x="0"
     inkscape:window-y="0"
     inkscape:window-maximized="1"
     inkscape:current-layer="svg6" />
  <path
     fill="#050507"
     d="M98.925 32.983l57.5 33.119v66.221l-57.5 33.119-57.5-33.119V66.102l57.5-33.119zm0-5.771l-62.5 36v72.001l62.5 36 62.5-36V63.212l-62.5-36z"
     id="path4"
     style="fill:#5382a1;fill-opacity:1" />
  <g
     id="g1046"
     transform="translate(6.6657698,8.068086)">
    <g
       style="stroke-width:5.74528885"
       transform="matrix(0.17405564,0,0,0.17405564,142.4381,68.202061)"
       id="g997">
      <path
         inkscape:connector-curvature="0"
         style="fill:#5382a1;stroke-width:5.74528885"
         d="m -336.98172,102.11183 c 0,0 -14.178,8.245 10.09,11.035 29.4,3.354 44.426,2.873 76.825,-3.259 0,0 8.518,5.341 20.414,9.967 -72.63,31.128 -164.376,-1.803 -107.329,-17.743"
         id="path923" />
      <path
         inkscape:connector-curvature="0"
         style="fill:#5382a1;stroke-width:5.74528885"
         d="m -345.85672,61.49183 c 0,0 -15.902,11.771 8.384,14.283 31.406,3.24 56.208,3.505 99.125,-4.759 0,0 5.936,6.018 15.27,9.309 -87.814,25.678 -185.623,2.025 -122.779,-18.833"
         id="path925" />
      <path
         inkscape:connector-curvature="0"
         style="fill:#f8981d;stroke-width:5.74528885"
         d="m -271.03772,-7.41317 c 17.896,20.604 -4.702,39.145 -4.702,39.145 0,0 45.441,-23.458 24.572,-52.833 -19.491,-27.394 -34.438,-41.005 46.479,-87.934 0,0 -127.013,31.722 -66.349,101.622"
         id="path927" />
      <path
         inkscape:connector-curvature="0"
         style="fill:#5382a1;stroke-width:5.74528885"
         d="m -174.97872,132.15683 c 0,0 10.492,8.645 -11.555,15.333 -41.923,12.7 -174.488,16.535 -211.314,0.506 -13.238,-5.759 11.587,-13.751 19.396,-15.428 8.144,-1.766 12.798,-1.437 12.798,-1.437 -14.722,-10.371 -95.157,20.364 -40.857,29.166 148.084,24.015 269.943,-10.814 231.532,-28.14"
         id="path929" />
      <path
         inkscape:connector-curvature="0"
         style="fill:#5382a1;stroke-width:5.74528885"
         d="m -330.16372,19.40483 c 0,0 -67.431,16.016 -23.879,21.832 18.389,2.462 55.047,1.905 89.193,-0.956 27.906,-2.354 55.927,-7.359 55.927,-7.359 0,0 -9.84,4.214 -16.959,9.075 -68.475,18.009 -200.756,9.631 -162.674,-8.79 32.206,-15.568 58.392,-13.802 58.392,-13.802"
         id="path931" />
      <path
         inkscape:connector-curvature="0"
         style="fill:#5382a1;stroke-width:5.74528885"
         d="m -209.20072,87.01883 c 69.608,-36.171 37.424,-70.931 14.96,-66.248 -5.506,1.146 -7.961,2.139 -7.961,2.139 0,0 2.044,-3.202 5.948,-4.588 44.441,-15.624 78.619,46.081 -14.346,70.52 0,0.001 1.077,-0.962 1.399,-1.823"
         id="path933" />
      <path
         inkscape:connector-curvature="0"
         style="fill:#f8981d;stroke-width:5.74528885"
         d="m -251.16772,-184.81317 c 0,0 38.55,38.563 -36.563,97.862 -60.233,47.568 -13.735,74.69 -0.025,105.678 -35.159,-31.722 -60.961,-59.647 -43.651,-85.637 25.407,-38.151 95.793,-56.648 80.239,-117.903"
         id="path935" />
      <path
         inkscape:connector-curvature="0"
         style="fill:#5382a1;stroke-width:5.74528885"
         d="m -323.32372,185.03383 c 66.815,4.277 169.417,-2.373 171.847,-33.988 0,0 -4.671,11.985 -55.219,21.503 -57.028,10.732 -127.364,9.479 -169.081,2.601 0.001,-0.001 8.54,7.068 52.453,9.884"
         id="path937" />
    </g>
    <g
       style="stroke-width:4.37212229"
       transform="matrix(0.22872187,0,0,0.22872187,158.06748,52.808324)"
       id="g987">
      <path
         inkscape:connector-curvature="0"
         style="fill:#5382a1;stroke-width:4.37212229"
         d="m -154.55872,241.73283 h -2.038 v -1.14 h 5.486 v 1.14 h -2.024 v 5.688 h -1.424 z m 10.942,0.297 h -0.032 l -2.019,5.392 h -0.924 l -2.006,-5.392 h -0.025 v 5.392 h -1.342 v -6.828 h 1.975 l 1.86,4.835 1.854,-4.835 h 1.968 v 6.828 h -1.31 v -5.392 z"
         id="path921" />
      <path
         inkscape:connector-curvature="0"
         style="fill:#5382a1;stroke-width:4.37212229"
         d="m -334.27372,305.83583 c -6.303,5.467 -12.96,8.536 -18.934,8.536 -8.527,0 -13.134,-5.113 -13.134,-13.314 0,-8.871 4.936,-15.357 24.739,-15.357 h 7.328 v 20.135 m 17.393,19.623 v -60.742 c 0,-15.517 -8.85,-25.756 -30.188,-25.756 -12.457,0 -23.369,3.076 -32.238,6.999 l 2.56,10.752 c 6.983,-2.563 16.022,-4.949 24.894,-4.949 12.292,0 17.58,4.949 17.58,15.181 v 7.677 h -6.135 c -29.865,0 -43.337,11.593 -43.337,28.994 0,15.017 8.878,23.553 25.594,23.553 10.745,0 18.766,-4.436 26.264,-10.928 l 1.361,9.22 h 13.645 z"
         id="path939" />
      <path
         inkscape:connector-curvature="0"
         style="fill:#5382a1;stroke-width:4.37212229"
         d="m -258.83772,325.45883 h -21.692 l -26.106,-84.96 h 18.943 l 16.199,52.2 3.601,15.699 c 8.195,-22.698 13.991,-45.726 16.89,-67.899 h 18.427 c -4.937,27.977 -13.821,58.685 -26.262,84.96"
         id="path941" />
      <path
         inkscape:connector-curvature="0"
         style="fill:#5382a1;stroke-width:4.37212229"
         d="m -175.62472,305.83583 c -6.315,5.467 -12.984,8.536 -18.958,8.536 -8.512,0 -13.131,-5.113 -13.131,-13.314 0,-8.871 4.948,-15.357 24.749,-15.357 h 7.34 v 20.135 m 17.39,19.623 v -60.742 c 0,-15.517 -8.872,-25.756 -30.185,-25.756 -12.466,0 -23.382,3.076 -32.247,6.999 l 2.556,10.752 c 6.986,-2.563 16.042,-4.949 24.907,-4.949 12.283,0 17.579,4.949 17.579,15.181 v 7.677 h -6.145 c -29.874,0 -43.34,11.593 -43.34,28.994 0,15.017 8.871,23.553 25.584,23.553 10.751,0 18.769,-4.436 26.28,-10.928 l 1.366,9.22 h 13.645 z"
         id="path943" />
      <path
         inkscape:connector-curvature="0"
         style="fill:#5382a1;stroke-width:4.37212229"
         d="m -402.81572,339.88683 c -4.958,7.239 -12.966,12.966 -21.733,16.206 l -8.587,-10.105 c 6.673,-3.424 12.396,-8.954 15.055,-14.105 2.3,-4.581 3.252,-10.485 3.252,-24.604 v -96.995 h 18.478 v 95.666 c -10e-4,18.876 -1.51,26.501 -6.465,33.937"
         id="path945" />
    </g>
  </g>
</svg>
