<?xml version="1.0" encoding="UTF-8" standalone="no"?>
<!-- Created with Inkscape (http://www.inkscape.org/) -->

<svg
   xmlns:dc="http://purl.org/dc/elements/1.1/"
   xmlns:cc="http://creativecommons.org/ns#"
   xmlns:rdf="http://www.w3.org/1999/02/22-rdf-syntax-ns#"
   xmlns:svg="http://www.w3.org/2000/svg"
   xmlns="http://www.w3.org/2000/svg"
   xmlns:sodipodi="http://sodipodi.sourceforge.net/DTD/sodipodi-0.dtd"
   xmlns:inkscape="http://www.inkscape.org/namespaces/inkscape"
   width="500"
   height="500"
   viewBox="0 0 132.29166 132.29167"
   version="1.1"
   id="svg8"
   inkscape:version="0.92.3 (2405546, 2018-03-11)"
   sodipodi:docname="Duke2.svg"
   inkscape:export-filename="/home/wmoreno/bitmap.png"
   inkscape:export-xdpi="835.39001"
   inkscape:export-ydpi="835.39001">
  <defs
     id="defs2" />
  <sodipodi:namedview
     id="base"
     pagecolor="#ffffff"
     bordercolor="#666666"
     borderopacity="1.0"
     inkscape:pageopacity="0.0"
     inkscape:pageshadow="2"
     inkscape:zoom="0.68"
     inkscape:cx="22.089224"
     inkscape:cy="215.84899"
     inkscape:document-units="mm"
     inkscape:current-layer="layer1"
     showgrid="false"
     inkscape:window-width="1366"
     inkscape:window-height="725"
     inkscape:window-x="0"
     inkscape:window-y="0"
     inkscape:window-maximized="1"
     units="px" />
  <metadata
     id="metadata5">
    <rdf:RDF>
      <cc:Work
         rdf:about="">
        <dc:format>image/svg+xml</dc:format>
        <dc:type
           rdf:resource="http://purl.org/dc/dcmitype/StillImage" />
        <dc:title></dc:title>
      </cc:Work>
    </rdf:RDF>
  </metadata>
  <g
     inkscape:label="Capa 1"
     inkscape:groupmode="layer"
     id="layer1"
     transform="translate(0,-164.70832)">
    <rect
       style="opacity:1;fill:#000000;fill-opacity:0;stroke:none;stroke-width:0.5;stroke-linejoin:round;stroke-miterlimit:4;stroke-dasharray:none;stroke-dashoffset:6.91314125;stroke-opacity:1"
       id="rect3139"
       width="46.14024"
       height="59.659035"
       x="155.17227"
       y="247.03922" />
    <g
       style="stroke-width:0.45012996"
       transform="matrix(2.2565616,0,0,2.187142,-112.76667,-287.57212)"
       id="g3549">
      <ellipse
         style="opacity:1;fill:#ff1f1f;fill-opacity:1;stroke:none;stroke-width:0.04501299;stroke-linejoin:round;stroke-miterlimit:4;stroke-dasharray:none;stroke-dashoffset:6.91314125;stroke-opacity:1"
         id="ellipse3537"
         cx="79.860764"
         cy="235.36336"
         rx="7.1228404"
         ry="6.7446365" />
      <ellipse
         style="opacity:1;fill:#ffffff;fill-opacity:1;stroke:none;stroke-width:0.04501299;stroke-linejoin:round;stroke-miterlimit:4;stroke-dasharray:none;stroke-dashoffset:6.91314125;stroke-opacity:1"
         id="ellipse3539"
         cx="-101.26252"
         cy="222.10339"
         rx="2.8790319"
         ry="1.9879031"
         transform="rotate(-42.618313)"
         inkscape:transform-center-x="-1.7899309"
         inkscape:transform-center-y="1.1523783e-05" />
      <path
         inkscape:connector-curvature="0"
         id="path3541"
         d="m 64.192905,266.84267 c -0.330613,-0.0523 -0.97744,-0.45315 -1.437391,-0.89073 -0.942238,-0.89642 -1.41458,-2.20502 -1.691633,-4.68655 l -0.168934,-1.51314 -1.049652,0.0551 c -2.255553,0.11844 -3.698294,-0.84426 -3.549468,-2.36845 0.05256,-0.53832 0.286812,-0.85219 1.040568,-1.39428 1.97844,-1.42286 2.593992,-2.0496 2.593067,-2.64023 -0.0012,-0.61374 -0.676098,-1.78924 -2.674755,-4.65712 -1.871451,-2.68535 -1.988125,-2.50466 3.432219,-5.31535 4.013376,-2.08112 4.390055,-2.31942 4.741986,-2.99999 0.165086,-0.31924 1.095093,-2.81464 2.066676,-5.54532 2.291069,-6.43915 5.664695,-14.92857 8.685251,-21.85562 1.907313,-4.37403 2.516946,-5.57225 2.931064,-5.76094 0.366845,-0.16715 0.630742,-0.1707 0.88437,-0.0119 0.938464,0.58753 8.134638,17.939 11.942021,28.79469 0.856331,2.44158 1.671326,4.40206 1.955952,4.70502 0.268365,0.28566 1.956731,1.28105 3.751929,2.21198 5.013335,2.59974 5.544215,3.02891 5.177215,4.18523 -0.0839,0.26438 -0.75894,1.31006 -1.50006,2.32375 -1.488095,2.03536 -2.267447,3.44032 -2.267447,4.08758 0,0.59802 0.941846,1.64649 1.778977,1.98037 1.44091,0.57469 1.8958,1.03572 1.8958,1.92134 0,1.59869 -1.34395,2.49874 -3.52004,2.35738 l -1.127471,-0.0732 -0.13348,1.64135 c -0.189927,2.33532 -0.693856,3.68915 -1.717411,4.61387 -0.794799,0.71806 -0.948353,0.77009 -2.272754,0.77009 -1.670603,0 -4.029933,-0.72355 -6.058477,-1.85797 -0.740589,-0.41416 -2.157148,-1.05312 -3.147915,-1.41991 -1.531442,-0.56694 -2.193888,-0.68325 -4.420705,-0.77613 -3.307308,-0.13795 -5.11081,0.2344 -8.018044,1.65544 -3.810937,1.86275 -6.590524,2.70596 -8.121458,2.46369 z m 2.301235,-2.02882 c 0.459505,-0.12758 2.113153,-0.79698 3.674773,-1.48753 8.050274,-3.55985 10.588397,-3.55387 18.727305,0.0441 4.178192,1.84705 6.084022,1.99923 6.835623,0.5458 0.303045,-0.58603 0.33818,-1.18969 0.235607,-4.04759 -0.191618,-5.33855 -1.119794,-9.57032 -4.055576,-18.49025 -0.939113,-2.85336 -1.865297,-5.41232 -2.058195,-5.68658 -0.216177,-0.30738 -0.523573,-0.47322 -0.801331,-0.43233 -0.36682,0.054 -0.524284,0.36678 -0.84676,1.68198 -1.269181,5.1762 -5.918862,7.97759 -10.786872,6.49897 -2.919495,-0.88676 -4.630306,-2.68679 -5.661147,-5.95636 -0.623702,-1.97822 -0.893807,-2.24404 -1.869543,-1.83988 -0.911815,0.37769 -1.340688,1.26773 -2.763092,5.7342 -2.70047,8.47973 -3.890588,13.63057 -4.098248,17.73729 -0.170294,3.36774 0.0031,4.52585 0.79649,5.31923 0.669438,0.66943 1.301736,0.75914 2.670966,0.37895 z m -2.886254,-17.06897 c 0.653622,-2.44398 0.86002,-3.53664 0.698549,-3.69811 -0.270601,-0.2706 -1.324444,0.0287 -2.971021,0.84391 -2.493166,1.23429 -3.017033,2.0775 -1.924102,3.09703 0.308971,0.28823 1.046901,1.13201 1.639836,1.87508 0.59293,0.74305 1.202024,1.35101 1.353532,1.35101 0.173205,0 0.619897,-1.28785 1.203206,-3.46892 z m 34.74962,1.88451 c 0.844971,-0.87142 1.603636,-1.85263 1.685914,-2.18044 0.28833,-1.14881 -1.111581,-2.38696 -3.60781,-3.19093 -1.072575,-0.34545 -1.553538,-0.41352 -1.723158,-0.2439 -0.169626,0.16963 0.01734,1.16199 0.669799,3.55537 0.9516,3.49065 1.005234,3.64431 1.272066,3.64431 0.09178,0 0.858219,-0.71298 1.703189,-1.58441 z m -15.423949,-8.23265 c 2.839802,-1.38939 4.315625,-4.51438 3.483608,-7.37642 -0.704021,-2.42175 -2.342792,-4.11582 -4.622605,-4.77858 -1.52018,-0.44193 -2.785997,-0.29232 -4.871104,0.57571 -1.697202,0.70655 -3.051769,1.89686 -3.248871,2.85491 -0.05564,0.2705 -0.216311,1.01324 -0.357016,1.65053 -0.2988,1.35332 -0.157047,2.95359 0.351091,3.96354 0.460981,0.91623 1.962656,2.48762 2.798172,2.92808 2.001149,1.05494 4.536918,1.1264 6.466725,0.18223 z"
         style="fill:#5d5d5d;stroke-width:0.45012996" />
      <path
         inkscape:connector-curvature="0"
         id="path3543"
         d="m 64.145534,266.78511 c -0.356667,-0.0949 -0.551214,-0.18445 -0.432323,-0.19896 0.118885,-0.0145 -0.106593,-0.22316 -0.501073,-0.46367 -0.935479,-0.57033 -1.505952,-1.8865 -1.797821,-4.14786 -0.127071,-0.98453 -0.304731,-1.93596 -0.394792,-2.11429 -0.122758,-0.24308 -0.554774,-0.32444 -1.72572,-0.32504 -1.480379,-6.1e-4 -1.593898,-0.0365 -2.173403,-0.68511 -0.336292,-0.37638 -0.668452,-0.62731 -0.738131,-0.55763 -0.06968,0.0697 -0.126692,-0.23572 -0.126692,-0.67866 0,-0.48187 0.08683,-0.7517 0.216164,-0.67176 0.118889,0.0735 0.216162,0.0334 0.216162,-0.0891 0,-0.12247 0.704262,-0.68754 1.565023,-1.2557 1.626846,-1.07382 2.066387,-1.72016 1.824696,-2.68315 -0.15519,-0.61832 -2.430668,-4.08537 -3.376021,-5.1439 -0.364203,-0.40781 -0.660697,-0.89417 -0.658877,-1.08082 0.0037,-0.38489 0.302047,-0.92217 0.502884,-0.90578 0.07349,0.006 0.403069,-0.13935 0.732404,-0.32297 0.329334,-0.18364 2.197146,-1.17728 4.15069,-2.20811 2.006412,-1.05873 3.726188,-2.11265 3.952444,-2.42216 0.220295,-0.30135 1.307294,-3.07364 2.415555,-6.16064 3.02134,-8.41579 7.337774,-19.09276 10.308912,-25.49975 0.385932,-0.83223 0.686343,-1.58439 0.66758,-1.67147 -0.01875,-0.0871 0.213028,-0.22035 0.515093,-0.29616 0.518444,-0.13012 0.842005,-0.0137 0.862385,0.31038 0.0049,0.0793 0.164124,0.43592 0.353646,0.7926 0.575454,1.08295 4.018247,9.05132 5.697092,13.18595 2.078789,5.11962 3.717787,9.44521 5.510148,14.54225 0.805816,2.29153 1.616344,4.39722 1.801179,4.67931 0.198211,0.30251 1.825223,1.28227 3.966378,2.38848 1.996676,1.03157 3.946454,2.11653 4.332854,2.41103 0.38639,0.29449 0.70548,0.45754 0.7091,0.36232 0.004,-0.0952 0.1078,6.2e-4 0.23152,0.21342 0.21825,0.37502 0.0546,1.81556 -0.17967,1.58132 -0.15648,-0.15647 -2.55879,3.17553 -3.212551,4.45581 -0.612335,1.19915 -0.634204,1.48432 -0.181023,2.36067 0.226042,0.43713 0.724872,0.83313 1.491664,1.18418 0.63362,0.29008 1.27,0.66956 1.41417,0.84327 0.14418,0.17372 0.34839,0.26255 0.45381,0.19739 0.10542,-0.0652 0.19167,0.28212 0.19167,0.77171 0,0.4896 -0.0862,0.83689 -0.19159,0.77176 -0.10537,-0.0651 -0.24251,0.0763 -0.30476,0.31438 -0.17328,0.66261 -1.5245,1.12274 -3.052017,1.03928 l -1.315302,-0.0719 -0.132868,1.72931 c -0.07308,0.95112 -0.257065,2.13724 -0.408855,2.63583 -0.315956,1.03779 -1.388776,2.444 -1.864567,2.444 -0.176698,0 -0.261147,0.0973 -0.187672,0.21617 0.08436,0.13649 -0.44209,0.21616 -1.428329,0.21616 -0.859058,0 -1.4945,-0.0674 -1.412098,-0.14983 0.08241,-0.0824 -0.363426,-0.27891 -0.990749,-0.43667 -0.627317,-0.15776 -2.065983,-0.75843 -3.197033,-1.33481 -3.614472,-1.84193 -4.921906,-2.22503 -7.995127,-2.34271 -3.431028,-0.1314 -4.821374,0.17743 -8.430368,1.87258 -1.486117,0.69803 -3.256977,1.44078 -3.935232,1.65054 -0.678261,0.20976 -1.183206,0.46227 -1.122103,0.56114 0.06109,0.0989 -0.07703,0.17976 -0.306967,0.17976 -0.229933,0 -0.697722,0.0405 -1.03953,0.0901 -0.341808,0.0495 -0.913292,0.0124 -1.269959,-0.0825 z m 2.348606,-1.75509 c 0.459505,-0.12759 2.113153,-0.79698 3.674773,-1.48753 8.050274,-3.55986 10.588397,-3.55388 18.727305,0.0441 4.180968,1.84828 6.019212,1.98988 6.941193,0.53466 0.40815,-0.64421 0.432182,-0.94333 0.333603,-4.15282 -0.1625,-5.29062 -1.061135,-9.49701 -3.855673,-18.04788 -1.940266,-5.93691 -2.253582,-6.6733 -2.909379,-6.8379 -0.708819,-0.1779 -1.097245,0.21271 -1.275235,1.28239 -0.314498,1.89005 -0.976447,3.18125 -2.409924,4.70082 -1.082912,1.14793 -1.676846,1.58741 -2.624507,1.94198 -3.730502,1.39576 -7.686935,0.28591 -9.852563,-2.7638 -0.367311,-0.51727 -0.960185,-1.83547 -1.317502,-2.92935 -0.719449,-2.2025 -1.003243,-2.42701 -2.251786,-1.78137 -0.903739,0.46735 -1.385198,1.50379 -2.865844,6.16931 -2.998129,9.44715 -3.912572,13.68611 -3.940367,18.2658 -0.02169,3.57807 0.178267,4.4464 1.14502,4.97182 0.684762,0.37217 1.374059,0.39711 2.480886,0.0898 z m -2.725837,-17.05867 c 0.505859,-1.84279 0.894952,-3.54507 0.864652,-3.78285 -0.08697,-0.68243 -1.264708,-0.49177 -3.352352,0.5427 -3.169508,1.57055 -3.320186,2.05701 -1.320357,4.26262 0.729787,0.80488 1.473722,1.68716 1.653195,1.96062 0.20424,0.31121 0.4963,0.47294 0.780712,0.43233 0.391465,-0.0559 0.581796,-0.52898 1.37415,-3.41542 z m 34.669418,1.99951 c 0.769027,-0.8025 1.532128,-1.78922 1.695779,-2.19271 0.59948,-1.47796 -0.656862,-2.73822 -3.728466,-3.74013 -1.331356,-0.43426 -1.49241,-0.44641 -1.802907,-0.13591 -0.310497,0.3105 -0.289657,0.53162 0.233279,2.4753 1.21627,4.5207 1.407471,5.05255 1.816375,5.05255 0.213241,0 1.016913,-0.65659 1.78594,-1.4591 z m -15.504164,-8.57412 c 2.835537,-1.3873 4.281513,-4.42485 3.493019,-7.33777 -0.68807,-2.54195 -2.638876,-4.41178 -5.153015,-4.93912 -1.063642,-0.2231 -1.46613,-0.20284 -2.912382,0.14659 -2.042123,0.49342 -2.758558,0.82415 -3.696133,1.70626 -1.17002,1.10082 -1.355639,1.65847 -1.400253,4.20661 -0.03303,1.88791 0.03272,2.44587 0.361385,3.0647 0.516159,0.97193 2.007215,2.53113 2.840654,2.9705 2.001149,1.05494 4.536918,1.1264 6.466725,0.18223 z"
         style="fill:#5f1c1d;stroke-width:0.45012996" />
      <path
         inkscape:connector-curvature="0"
         id="path3545"
         d="m 64.145534,266.78511 c -0.356667,-0.0949 -0.551214,-0.18445 -0.432323,-0.19896 0.118885,-0.0145 -0.106593,-0.22316 -0.501073,-0.46367 -0.935479,-0.57033 -1.505952,-1.8865 -1.797821,-4.14786 -0.127071,-0.98453 -0.304731,-1.93596 -0.394792,-2.11429 -0.122758,-0.24308 -0.554774,-0.32444 -1.72572,-0.32504 -1.480379,-6.1e-4 -1.593898,-0.0365 -2.173403,-0.68511 -0.336292,-0.37638 -0.668452,-0.62731 -0.738131,-0.55763 -0.06968,0.0697 -0.126692,-0.23572 -0.126692,-0.67866 0,-0.48187 0.08683,-0.7517 0.216164,-0.67176 0.118889,0.0735 0.216162,0.0334 0.216162,-0.0891 0,-0.12247 0.704262,-0.68754 1.565023,-1.2557 1.626846,-1.07382 2.066387,-1.72016 1.824696,-2.68315 -0.15519,-0.61832 -2.430668,-4.08537 -3.376021,-5.1439 -0.364203,-0.40781 -0.660697,-0.89417 -0.658877,-1.08082 0.0037,-0.38489 0.302047,-0.92217 0.502884,-0.90578 0.07349,0.006 0.403069,-0.13935 0.732404,-0.32297 0.329334,-0.18364 2.197146,-1.17728 4.15069,-2.20811 2.006412,-1.05873 3.726188,-2.11265 3.952444,-2.42216 0.220295,-0.30135 1.307294,-3.07364 2.415555,-6.16064 3.02134,-8.41579 7.337774,-19.09276 10.308912,-25.49975 0.385932,-0.83223 0.686343,-1.58439 0.66758,-1.67147 -0.01875,-0.0871 0.213028,-0.22035 0.515093,-0.29616 0.518444,-0.13012 0.842005,-0.0137 0.862385,0.31038 0.0049,0.0793 0.164124,0.43592 0.353646,0.7926 0.575454,1.08295 4.018247,9.05132 5.697092,13.18595 2.078789,5.11962 3.717787,9.44521 5.510148,14.54225 0.805816,2.29153 1.616344,4.39722 1.801179,4.67931 0.198211,0.30251 1.825223,1.28227 3.966378,2.38848 1.996676,1.03157 3.946454,2.11653 4.332854,2.41103 0.38639,0.29449 0.70548,0.45754 0.7091,0.36232 0.004,-0.0952 0.1078,6.2e-4 0.23152,0.21342 0.21825,0.37502 0.0546,1.81556 -0.17967,1.58132 -0.15648,-0.15647 -2.55879,3.17553 -3.212551,4.45581 -0.612335,1.19915 -0.634204,1.48432 -0.181023,2.36067 0.226042,0.43713 0.724872,0.83313 1.491664,1.18418 0.63362,0.29008 1.27,0.66956 1.41417,0.84327 0.14418,0.17372 0.34839,0.26255 0.45381,0.19739 0.10542,-0.0652 0.19167,0.28212 0.19167,0.77171 0,0.4896 -0.0862,0.83689 -0.19159,0.77176 -0.10537,-0.0651 -0.24251,0.0763 -0.30476,0.31438 -0.17328,0.66261 -1.5245,1.12274 -3.052017,1.03928 l -1.315302,-0.0719 -0.132868,1.72931 c -0.07308,0.95112 -0.257065,2.13724 -0.408855,2.63583 -0.315956,1.03779 -1.388776,2.444 -1.864567,2.444 -0.176698,0 -0.261147,0.0973 -0.187672,0.21617 0.08436,0.13649 -0.44209,0.21616 -1.428329,0.21616 -0.859058,0 -1.4945,-0.0674 -1.412098,-0.14983 0.08241,-0.0824 -0.363426,-0.27891 -0.990749,-0.43667 -0.627317,-0.15776 -2.065983,-0.75843 -3.197033,-1.33481 -3.614472,-1.84193 -4.921906,-2.22503 -7.995127,-2.34271 -3.431028,-0.1314 -4.821374,0.17743 -8.430368,1.87258 -1.486117,0.69803 -3.256977,1.44078 -3.935232,1.65054 -0.678261,0.20976 -1.183206,0.46227 -1.122103,0.56114 0.06109,0.0989 -0.07703,0.17976 -0.306967,0.17976 -0.229933,0 -0.697722,0.0405 -1.03953,0.0901 -0.341808,0.0495 -0.913292,0.0124 -1.269959,-0.0825 z m 2.348606,-1.75509 c 0.459505,-0.12759 2.113153,-0.79698 3.674773,-1.48753 8.050274,-3.55986 10.588397,-3.55388 18.727305,0.0441 4.180968,1.84828 6.019212,1.98988 6.941193,0.53466 0.40815,-0.64421 0.432182,-0.94333 0.333603,-4.15282 -0.1625,-5.29062 -1.061135,-9.49701 -3.855673,-18.04788 -1.940266,-5.93691 -2.253582,-6.6733 -2.909379,-6.8379 -0.708819,-0.1779 -1.097245,0.21271 -1.275235,1.28239 -0.314498,1.89005 -0.976447,3.18125 -2.409924,4.70082 -1.082912,1.14793 -1.676846,1.58741 -2.624507,1.94198 -3.730502,1.39576 -7.686935,0.28591 -9.852563,-2.7638 -0.367311,-0.51727 -0.960185,-1.83547 -1.317502,-2.92935 -0.719449,-2.2025 -1.003243,-2.42701 -2.251786,-1.78137 -0.903739,0.46735 -1.385198,1.50379 -2.865844,6.16931 -2.998129,9.44715 -3.912572,13.68611 -3.940367,18.2658 -0.02169,3.57807 0.178267,4.4464 1.14502,4.97182 0.684762,0.37217 1.374059,0.39711 2.480886,0.0898 z m -2.725837,-17.05867 c 0.505859,-1.84279 0.894952,-3.54507 0.864652,-3.78285 -0.08697,-0.68243 -1.264708,-0.49177 -3.352352,0.5427 -3.169508,1.57055 -3.320186,2.05701 -1.320357,4.26262 0.729787,0.80488 1.473722,1.68716 1.653195,1.96062 0.20424,0.31121 0.4963,0.47294 0.780712,0.43233 0.391465,-0.0559 0.581796,-0.52898 1.37415,-3.41542 z m 34.669418,1.99951 c 0.769027,-0.8025 1.532128,-1.78922 1.695779,-2.19271 0.59948,-1.47796 -0.656862,-2.73822 -3.728466,-3.74013 -1.331356,-0.43426 -1.49241,-0.44641 -1.802907,-0.13591 -0.310497,0.3105 -0.289657,0.53162 0.233279,2.4753 1.21627,4.5207 1.407471,5.05255 1.816375,5.05255 0.213241,0 1.016913,-0.65659 1.78594,-1.4591 z m -14.803967,-8.52241 c 1.419285,-0.87215 2.749795,-2.55162 3.127406,-3.94764 0.130625,-0.48291 0.193836,-1.56547 0.140466,-2.40568 -0.158523,-2.49561 -1.597563,-4.66925 -3.814301,-5.76141 -0.816692,-0.40237 -1.357263,-0.4928 -2.945715,-0.4928 -1.797759,0 -2.057692,0.0574 -3.423497,0.75657 -2.733343,1.39914 -3.823418,3.23157 -3.813222,6.41008 0.0055,1.68275 0.421342,2.80272 1.495075,4.02563 1.499849,1.70824 3.177609,2.339 5.991345,2.25249 1.841546,-0.0566 2.066767,-0.11478 3.242443,-0.83724 z"
         style="fill:#2d2d2e;stroke-width:0.45012996" />
      <path
         inkscape:connector-curvature="0"
         id="path3547"
         d="m 64.145534,266.79511 -0.648487,-0.16256 0.648487,-0.11127 c 0.642887,-0.11032 0.643414,-0.11156 0.06128,-0.14367 -0.348831,-0.0192 -0.884395,-0.32954 -1.319151,-0.76429 -0.813959,-0.81396 -1.18967,-1.9756 -1.382771,-4.2753 -0.06653,-0.79228 -0.199725,-1.56796 -0.295993,-1.72373 -0.118505,-0.19174 -0.696723,-0.28503 -1.790088,-0.2888 -1.40747,-0.005 -1.686756,-0.0729 -2.172962,-0.52962 -0.383313,-0.36004 -0.557914,-0.74946 -0.557914,-1.24435 0,-0.65423 0.13662,-0.80788 1.489097,-1.6748 2.333373,-1.49566 2.590518,-2.10782 1.637949,-3.89935 -0.764259,-1.43738 -3.341798,-5.00314 -3.349782,-4.63409 -0.0045,0.20752 -0.07919,0.17896 -0.235667,-0.0901 -0.271361,-0.46663 -0.0452,-1.69238 0.230072,-1.24697 0.111403,0.18025 0.22366,0.20213 0.311119,0.0606 0.07526,-0.12177 1.862657,-1.11348 3.971999,-2.2038 2.109341,-1.09032 4.107064,-2.24757 4.439375,-2.57168 0.457396,-0.44609 1.092618,-1.95153 2.61425,-6.1956 3.116089,-8.69126 9.881209,-25.24067 11.055285,-27.04437 0.233928,-0.35938 0.243701,-0.49323 0.04148,-0.5678 -0.145533,-0.0537 0.01,-0.17054 0.345668,-0.25972 0.376496,-0.10003 0.70358,-0.0688 0.853843,0.0814 0.18065,0.18065 0.169725,0.24357 -0.04228,0.24357 -0.235374,0 -0.236073,0.06 -0.0037,0.33971 1.049316,1.26435 8.426452,19.33209 11.673663,28.5906 0.806251,2.29879 1.634469,4.36588 1.840486,4.59353 0.206012,0.22764 1.988802,1.24787 3.961752,2.26718 1.972944,1.01931 3.895536,2.08831 4.272426,2.37555 0.47779,0.36416 0.71513,0.44113 0.78396,0.25425 0.0543,-0.14741 0.16436,-0.0225 0.24459,0.27747 0.0802,0.30002 0.0498,0.78638 -0.0677,1.08081 -0.16449,0.41225 -0.21675,0.44336 -0.22731,0.13532 -0.0135,-0.39519 -0.13288,-0.24097 -2.531661,3.27136 -0.510185,0.74702 -1.041025,1.73678 -1.179653,2.19947 -0.352384,1.17615 0.190693,2.09346 1.669014,2.81914 0.6055,0.29722 1.26099,0.67391 1.45667,0.83707 0.4811,0.40119 0.45017,1.59245 -0.0576,2.2193 -0.36915,0.4557 -0.59551,0.51165 -2.114951,0.52275 -0.935853,0.007 -1.806186,0.0771 -1.934078,0.15614 -0.127886,0.079 -0.28212,1.01358 -0.342739,2.07676 -0.07871,1.3804 -0.247274,2.21618 -0.589609,2.92335 -0.712005,1.47081 -1.31855,1.85767 -2.902627,1.85134 -1.954843,-0.008 -2.989434,-0.31124 -5.861295,-1.71899 -3.726592,-1.82673 -4.948052,-2.18606 -7.895409,-2.32268 -3.142829,-0.14569 -5.088518,0.30272 -8.641072,1.99149 -2.716015,1.2911 -4.727519,2.03963 -5.600039,2.08392 -0.467745,0.0237 -0.435282,0.0548 0.195963,0.1877 0.450343,0.0948 0.57065,0.17077 0.297224,0.18771 -0.252641,0.0156 -0.739008,0.069 -1.08081,0.11852 -0.341808,0.0495 -0.913292,0.0169 -1.269959,-0.0725 z m 2.46281,-1.65196 c 0.624915,-0.18558 2.439672,-0.91484 4.032781,-1.62058 4.124491,-1.82713 6.210021,-2.40459 8.74391,-2.42107 2.980414,-0.0194 3.590881,0.16502 11.348569,3.42822 1.205235,0.50697 2.070144,0.72852 2.853993,0.73105 2.543276,0.008 2.999092,-0.87695 2.811677,-5.46016 -0.21136,-5.16874 -1.180724,-9.47694 -4.185398,-18.60137 -1.798716,-5.46225 -2.252816,-6.41748 -3.047455,-6.41053 -0.706067,0.006 -0.958892,0.36894 -1.260743,1.80895 -0.399315,1.90498 -0.982796,2.99418 -2.399777,4.47974 -1.436258,1.50576 -2.790696,2.13237 -4.964578,2.29679 -4.169828,0.31536 -7.262565,-1.93905 -8.520655,-6.21099 -0.262599,-0.89168 -0.573145,-1.74282 -0.690106,-1.89143 -0.289448,-0.36777 -0.864835,-0.33929 -1.758917,0.0871 -0.9554,0.4556 -1.38885,1.42681 -3.120654,6.99227 -2.791849,8.97214 -3.682358,12.98724 -3.835422,17.29306 -0.128034,3.6016 0.196005,4.84538 1.421883,5.45778 0.926913,0.46304 1.138947,0.46644 2.570892,0.0412 z M 63.127855,250.9436 c 1.663611,-6.10183 1.827821,-6.86242 1.55306,-7.19349 -0.38024,-0.45816 -1.184058,-0.27 -3.430557,0.80304 -3.219068,1.53758 -3.506639,2.25557 -1.6945,4.23069 0.626251,0.68259 1.415989,1.60584 1.75496,2.05168 0.807697,1.06232 1.544916,1.10617 1.817037,0.10808 z m 35.417544,-0.86466 c 1.923221,-1.99863 2.213991,-2.65606 1.667651,-3.77055 -0.507772,-1.03585 -1.392896,-1.62268 -3.511851,-2.32836 -1.679065,-0.55918 -2.266928,-0.56053 -2.479832,-0.006 -0.105772,0.27563 1.608053,6.95687 1.909739,7.44501 0.317954,0.51445 0.986742,0.14315 2.414293,-1.34038 z M 83.227944,241.6925 c 1.532129,-0.76562 2.493411,-1.77473 3.236243,-3.39728 0.455533,-0.99503 0.518953,-1.40585 0.45198,-2.92807 -0.09155,-2.08067 -0.650044,-3.42801 -1.966792,-4.74475 -1.3295,-1.3295 -2.747596,-1.88544 -4.807765,-1.88482 -1.496111,4.4e-4 -1.959261,0.10092 -3.434594,0.74499 -2.940378,1.28364 -3.600912,2.31169 -3.761323,5.85412 -0.08747,1.9315 -0.04498,2.2792 0.383279,3.13436 0.859591,1.71657 2.516971,3.12542 4.326759,3.67792 0.297224,0.0907 1.376013,0.17334 2.397313,0.18357 1.657521,0.0166 1.998416,-0.0521 3.1749,-0.64004 z m 9.829414,24.92758 c 0.445834,-0.0466 1.175387,-0.0466 1.621221,0 0.44584,0.0466 0.08106,0.0848 -0.810607,0.0848 -0.891674,0 -1.256448,-0.0382 -0.810614,-0.0848 z m -36.747266,-9.02947 c 0.0024,-0.47555 0.04667,-0.64465 0.09837,-0.37576 0.0517,0.26889 0.04974,0.65798 -0.0043,0.86465 -0.05411,0.20667 -0.09641,-0.0133 -0.09401,-0.48889 z m 46.263278,-0.10808 c 0,-0.535 0.0422,-0.75387 0.0937,-0.48636 0.0515,0.2675 0.0515,0.70523 0,0.97273 -0.0515,0.2675 -0.0937,0.0487 -0.0937,-0.48637 z"
         style="fill:#1c1c1d;stroke-width:0.45012996" />
    </g>
  </g>
</svg>
