<?xml version="1.0" encoding="UTF-8" standalone="no"?>
<!-- Created with Inkscape (http://www.inkscape.org/) -->

<svg
   xmlns:dc="http://purl.org/dc/elements/1.1/"
   xmlns:cc="http://creativecommons.org/ns#"
   xmlns:rdf="http://www.w3.org/1999/02/22-rdf-syntax-ns#"
   xmlns:svg="http://www.w3.org/2000/svg"
   xmlns="http://www.w3.org/2000/svg"
   xmlns:xlink="http://www.w3.org/1999/xlink"
   xmlns:sodipodi="http://sodipodi.sourceforge.net/DTD/sodipodi-0.dtd"
   xmlns:inkscape="http://www.inkscape.org/namespaces/inkscape"
   width="500"
   height="500"
   viewBox="0 0 132.29166 132.29167"
   version="1.1"
   id="svg8"
   inkscape:version="0.92.3 (2405546, 2018-03-11)"
   sodipodi:docname="logotipo.svg"
   inkscape:export-filename="/home/wmoreno/bitmap.png"
   inkscape:export-xdpi="835.39001"
   inkscape:export-ydpi="835.39001">
  <defs
     id="defs2" />
  <sodipodi:namedview
     id="base"
     pagecolor="#ffffff"
     bordercolor="#666666"
     borderopacity="1.0"
     inkscape:pageopacity="0.0"
     inkscape:pageshadow="2"
     inkscape:zoom="0.68"
     inkscape:cx="22.089224"
     inkscape:cy="215.84899"
     inkscape:document-units="mm"
     inkscape:current-layer="layer1"
     showgrid="false"
     inkscape:window-width="1366"
     inkscape:window-height="725"
     inkscape:window-x="0"
     inkscape:window-y="0"
     inkscape:window-maximized="1"
     units="px" />
  <metadata
     id="metadata5">
    <rdf:RDF>
      <cc:Work
         rdf:about="">
        <dc:format>image/svg+xml</dc:format>
        <dc:type
           rdf:resource="http://purl.org/dc/dcmitype/StillImage" />
        <dc:title></dc:title>
      </cc:Work>
    </rdf:RDF>
  </metadata>
  <g
     inkscape:label="Capa 1"
     inkscape:groupmode="layer"
     id="layer1"
     transform="translate(0,-164.70832)">
    <circle
       style="opacity:1;fill:#26036c;fill-opacity:1;stroke:none;stroke-width:0.09999998;stroke-linejoin:round;stroke-miterlimit:4;stroke-dasharray:none;stroke-dashoffset:6.91314125;stroke-opacity:1"
       id="path834"
       cx="66.145836"
       cy="230.85416"
       r="66.145836" />
    <circle
       r="62.838543"
       cy="218.92752"
       cx="98.563477"
       id="circle1152"
       style="opacity:1;fill:#26036c;fill-opacity:1;stroke:none;stroke-width:0.09999997;stroke-linejoin:round;stroke-miterlimit:4;stroke-dasharray:none;stroke-dashoffset:6.91314125;stroke-opacity:1"
       transform="matrix(-0.76346679,0.64584709,0.64584709,0.76346679,0,0)" />
    <circle
       transform="matrix(-0.76346679,0.64584709,0.64584709,0.76346679,0,0)"
       style="opacity:1;fill:#ffffff;fill-opacity:1;stroke:none;stroke-width:0.09999997;stroke-linejoin:round;stroke-miterlimit:4;stroke-dasharray:none;stroke-dashoffset:6.91314125;stroke-opacity:1"
       id="circle1177"
       cx="98.596344"
       cy="218.96956"
       r="50.270832" />
    <g
       id="g2075"
       transform="matrix(0.26516221,0,0,0.26516428,97.3962,125.47985)"
       style="fill:#5382a1;fill-opacity:1;stroke:none;stroke-width:1.88563097;stroke-miterlimit:4;stroke-dasharray:none;stroke-opacity:1">
      <path
         style="fill:#5382a1;fill-opacity:1;stroke:none;stroke-width:1.88563097;stroke-miterlimit:4;stroke-dasharray:none;stroke-opacity:1"
         d="m -118.32479,440.508 c -2.79365,-0.25535 -2.76446,-0.21297 -3.35501,-4.87075 -0.22901,-1.80627 -0.74511,-3.49559 -1.62993,-5.33521 -1.2686,-2.63754 -1.297,-2.78896 -1.40351,-7.48355 -0.1852,-8.16361 -0.59599,-13.56585 -1.19593,-15.72765 -0.16154,-0.58208 -0.39153,-1.6424 -0.5111,-2.35627 -0.17474,-1.04329 -0.56622,-1.54855 -1.99536,-2.57528 -1.87486,-1.34696 -2.78555,-2.9078 -2.78555,-4.7742 0,-1.48418 -0.99403,-5.55746 -1.70771,-6.99778 -0.44707,-0.90226 -1.23704,-1.5103 -3.34424,-2.57407 -2.33582,-1.1792 -2.83793,-1.59313 -3.27427,-2.69925 -0.28345,-0.71856 -0.74851,-1.72785 -1.03346,-2.24285 -0.28495,-0.51501 -0.51809,-1.17647 -0.51809,-1.46991 0,-0.29344 -0.16197,-0.58752 -0.35992,-0.65351 -0.23845,-0.0795 -0.25105,-0.71451 -0.0374,-1.88148 0.17741,-0.96883 0.34363,-5.08151 0.36937,-9.13929 0.0486,-7.65929 0.49146,-12.44533 1.43916,-15.55277 0.36303,-1.19033 1.36642,-5.18232 1.64043,-6.52639 0.0989,-0.48507 0.71195,-2.78694 1.36235,-5.11528 2.42266,-8.67263 3.02117,-11.35997 3.14277,-14.11111 0.22273,-5.03908 1.21327,-6.33442 6.08499,-7.95743 2.30509,-0.76795 3.42342,-1.32917 3.71139,-1.86252 1.07154,-1.98461 -0.21605,-6.63349 -2.24701,-8.1129 -0.51986,-0.37868 -1.47236,-0.7155 -2.11666,-0.74848 -1.61707,-0.0828 -4.17007,-1.35818 -4.17007,-2.08325 0,-0.12413 -0.3175,-0.54319 -0.70556,-0.93125 -0.96562,-0.96562 -0.89614,-1.41283 0.50456,-3.24726 1.01317,-1.32691 1.54803,-1.67966 3.28634,-2.1674 1.14192,-0.32041 2.58985,-0.58256 3.21761,-0.58256 0.98686,0 1.21517,-0.17911 1.6864,-1.32292 1.17043,-2.84098 3.03555,-6.57738 3.53019,-7.07202 0.35343,-0.35343 1.29706,-0.52488 2.94834,-0.53569 1.3357,-0.009 2.34811,-0.14606 2.24979,-0.30514 -0.29263,-0.47348 1.08785,-0.32862 2.18994,0.2298 0.56338,0.28546 1.39271,1.06567 1.84295,1.7338 0.91705,1.36087 2.31637,5.26685 2.69331,7.51794 l 0.2479,1.4805 2.59144,-0.0694 c 2.15391,-0.0577 2.75973,0.0562 3.58815,0.67425 0.59964,0.44738 0.9967,1.07362 0.9967,1.57199 0,0.69434 -0.52879,1.08772 -3.26834,2.43137 -2.36479,1.15985 -3.32646,1.82329 -3.47859,2.39983 -0.11974,0.45376 -0.58224,0.89018 -1.07424,1.01366 -0.5691,0.14284 -0.79659,0.39244 -0.66654,0.73134 0.10858,0.28297 0.19743,0.89626 0.19743,1.36285 0,0.6361 0.30892,0.97744 1.23472,1.36426 0.6791,0.28375 1.23472,0.66096 1.23472,0.83825 0,0.50689 4.13746,2.4007 7.12943,3.26331 1.516712,0.43727 3.018462,1.11299 3.395112,1.52764 1.21094,1.3331 2.07952,4.82468 3.57418,14.36779 0.9219,5.88611 1.35939,23.80546 0.92486,37.8813 l -0.29405,9.525 -0.97383,1.05833 c -0.81724,0.88816 -1.00131,1.45541 -1.14475,3.52778 -0.10855,1.56839 -0.56826,3.49922 -1.25989,5.29166 -0.85569,2.21764 -1.13924,3.61575 -1.32358,6.52639 -0.12902,2.03729 -0.44672,4.18042 -0.70599,4.7625 -0.25926,0.58209 -0.80606,1.96813 -1.21511,3.0801 -0.40905,1.11198 -0.89219,2.11353 -1.073662,2.22568 -0.44684,0.27617 -0.41671,2.00978 0.0561,3.22612 0.214412,0.55161 0.445012,4.12173 0.518722,8.03072 0.13652,7.23996 -0.2406,11.03331 -1.404662,14.12905 -0.29184,0.77611 -0.79116,2.64246 -1.1096,4.14743 -0.47995,2.2683 -0.7086,2.76486 -1.33681,2.90316 -0.86421,0.19026 -13.26195,0.40789 -14.86894,0.26101 z"
         id="path2056"
         inkscape:connector-curvature="0" />
      <path
         style="fill:#5382a1;fill-opacity:1;stroke:none;stroke-width:1.88563097;stroke-miterlimit:4;stroke-dasharray:none;stroke-opacity:1"
         d="m -118.76416,440.49633 c -1.84233,-0.13334 -2.03207,-0.45107 -2.55645,-4.28097 -0.41503,-3.03118 -1.02825,-4.94666 -2.2532,-7.03817 -0.5957,-1.01711 -0.71404,-1.94482 -0.78752,-6.17361 -0.12415,-7.14469 -0.37873,-11.31482 -0.77166,-12.64036 -0.18842,-0.63564 -0.34404,-1.47321 -0.34582,-1.86126 -0.002,-0.38806 -0.19727,-1.7064 -0.43444,-2.92964 -0.40577,-2.09292 -0.53995,-2.30442 -2.27537,-3.58645 -1.98328,-1.46514 -2.48129,-2.37151 -2.81624,-5.12558 -0.7302,-6.00386 -1.53488,-7.49418 -4.9846,-9.23185 -2.66279,-1.34128 -2.69227,-1.37147 -3.90278,-3.99732 -0.67084,-1.45521 -1.34439,-2.8772 -1.49678,-3.15998 -0.15238,-0.28279 -0.16265,-1.15591 -0.0228,-1.94028 0.13983,-0.78437 0.27801,-4.12488 0.30706,-7.42335 0.0723,-8.20541 1.74824,-19.99023 3.19767,-22.48479 0.19577,-0.33692 0.35593,-0.93726 0.35593,-1.33409 0,-0.39683 0.4825,-2.34367 1.07222,-4.32631 0.58972,-1.98265 1.31807,-4.79228 1.61855,-6.24365 0.30048,-1.45136 0.70248,-2.93062 0.89334,-3.28724 0.39008,-0.72887 0.76608,-3.98625 0.68752,-5.95614 -0.0686,-1.71965 0.86617,-3.97697 2.06433,-4.98516 0.53165,-0.44735 2.30011,-1.25923 3.92992,-1.80418 3.45678,-1.15582 3.79522,-1.41472 4.20096,-3.21371 0.36828,-1.63292 -0.71519,-5.33131 -1.95318,-6.66713 -0.73957,-0.79801 -3.7821,-1.96287 -5.12688,-1.96287 -0.64576,0 -3.15344,-2.64637 -3.15344,-3.32784 0,-0.22755 0.48803,-1.07734 1.08452,-1.88844 1.20242,-1.63504 3.41328,-2.54483 6.18409,-2.54483 1.40952,0 1.52078,-0.0747 1.92228,-1.29129 0.23439,-0.7102 0.8817,-2.20942 1.43847,-3.3316 0.55676,-1.12217 1.01304,-2.16828 1.01394,-2.32469 8.8e-4,-0.1564 0.44853,-0.76108 0.99475,-1.34373 0.90748,-0.96801 1.18046,-1.05566 3.16562,-1.01636 1.19487,0.0237 2.08724,-0.0949 1.98304,-0.26356 -0.10421,-0.1686 0.21678,-0.30655 0.7133,-0.30655 0.49652,0 0.90276,0.15875 0.90276,0.35278 0,0.19403 0.22317,0.35278 0.49593,0.35278 1.25208,0 3.82402,5.68821 4.36052,9.64391 l 0.18359,1.35365 2.33067,-0.22143 c 2.6849,-0.25507 4.72052,0.48449 4.90587,1.78235 0.0879,0.61572 -0.45639,1.02316 -3.23197,2.41918 -2.06084,1.03653 -3.40408,1.93254 -3.51119,2.34213 -0.0954,0.36486 -0.57691,0.81676 -1.07,1.00423 -0.80199,0.30492 -0.87483,0.48207 -0.69074,1.67995 0.22822,1.4851 0.67309,2.22102 1.3426,2.22102 0.24353,0 0.66065,0.26553 0.92694,0.59006 0.66324,0.8083 5.71755,3.11221 7.976612,3.63599 2.66396,0.61766 3.46957,1.39957 4.29156,4.16529 2.92396,9.83819 4.11939,27.10809 3.39929,49.10821 l -0.30589,9.34538 -1.06038,1.06038 c -0.8944,0.8944 -1.07141,1.3643 -1.13078,3.00185 -0.0852,2.35108 -0.31833,3.30192 -1.62452,6.62694 -0.82115,2.09029 -1.03668,3.2604 -1.15697,6.28136 -0.10281,2.5818 -0.31746,3.97142 -0.70476,4.56252 -0.30631,0.46748 -0.55693,1.06833 -0.55693,1.3352 0,0.26688 -0.50063,1.48709 -1.11251,2.71156 l -1.112512,2.22633 0.56045,2.32794 c 0.445212,1.84927 0.543202,4.03256 0.476582,10.61821 -0.0772,7.62967 -0.144982,8.43084 -0.850742,10.05417 -0.42177,0.97014 -1.07502,3.17162 -1.45167,4.89219 -0.37664,1.72056 -0.81695,3.2573 -0.97846,3.41498 -0.29329,0.28633 -12.71576,0.60898 -15.54968,0.40387 z"
         id="path2054"
         inkscape:connector-curvature="0" />
      <path
         style="fill:#5382a1;fill-opacity:1;stroke:none;stroke-width:1.88563097;stroke-miterlimit:4;stroke-dasharray:none;stroke-opacity:1"
         d="m -118.56252,440.49684 c -0.71284,-0.0593 -1.45691,-0.30169 -1.6535,-0.53857 -0.19659,-0.23688 -0.61079,-2.00511 -0.92044,-3.92941 -0.37859,-2.35275 -0.93472,-4.25491 -1.69789,-5.80737 -1.08631,-2.20983 -1.13629,-2.49756 -1.16767,-6.72242 -0.0505,-6.80023 -1.02814,-15.99249 -2.0208,-19.00107 -0.2578,-0.78132 -0.96789,-1.66783 -1.86825,-2.33238 -1.85552,-1.36954 -2.33273,-2.11137 -2.61857,-4.07061 -0.54344,-3.7248 -1.16232,-6.27178 -1.87277,-7.7073 -0.64653,-1.30636 -1.15866,-1.73551 -3.45498,-2.89521 -2.63273,-1.32958 -2.72577,-1.42189 -3.96875,-3.93748 -0.70005,-1.41679 -1.27281,-2.77301 -1.27281,-3.01383 0,-0.24081 -0.13826,-0.43784 -0.30724,-0.43784 -0.17219,0 -0.1788,-0.68743 -0.015,-1.56403 0.16071,-0.86021 0.27756,-2.8049 0.25967,-4.32153 -0.0405,-3.42932 0.63304,-11.94078 1.27894,-16.16305 0.55364,-3.61912 1.23395,-6.45348 3.89506,-16.22778 2.47679,-9.0973 2.93023,-11.29699 2.97674,-14.44071 0.0319,-2.15577 1.09253,-4.43015 2.43606,-5.2238 0.55781,-0.3295 2.30515,-1.00691 3.883,-1.50535 3.05965,-0.96654 3.41882,-1.30606 3.78158,-3.57468 0.24659,-1.54204 -0.79772,-5.02692 -1.86387,-6.21977 -0.80977,-0.90602 -3.39967,-2.02041 -4.6955,-2.02041 -1.18432,0 -3.51552,-2.1661 -3.51552,-3.26655 0,-0.37887 0.46765,-1.27932 1.03922,-2.00098 1.13961,-1.43888 2.86542,-2.1408 5.26352,-2.1408 1.42675,0 2.86949,-0.89426 2.86949,-1.7786 0,-0.20212 0.47625,-1.38613 1.05833,-2.63113 0.58208,-1.245 1.05833,-2.42348 1.05833,-2.61884 0,-0.19537 0.45808,-0.87694 1.01795,-1.51459 0.9527,-1.08506 1.15571,-1.15665 3.16725,-1.11683 1.18212,0.0234 2.06405,-0.0954 1.95985,-0.26402 -0.10421,-0.1686 0.16106,-0.30655 0.58947,-0.30655 1.02592,0 3.00918,2.07664 3.89435,4.07772 0.82222,1.85876 1.71836,5.13168 1.71836,6.27588 0,1.37981 0.61536,1.63947 3.33958,1.40919 2.36145,-0.19962 2.57481,-0.15665 3.55507,0.716 1.02743,0.91463 1.03241,0.93641 0.33729,1.47308 -0.38806,0.2996 -1.94137,1.13268 -3.4518,1.85129 -1.91781,0.91242 -2.80556,1.53901 -2.94284,2.0771 -0.1086,0.42568 -0.63723,0.92415 -1.18113,1.11375 -0.94009,0.32772 -0.97191,0.41225 -0.7049,1.87245 0.15381,0.84107 0.55177,1.68926 0.88436,1.88485 0.3326,0.1956 1.15291,0.71637 1.82293,1.15726 2.12366,1.39745 4.43405,2.44577 7.16088,3.24919 1.455212,0.42875 2.979602,1.08745 3.387542,1.46378 1.20374,1.11045 3.02943,8.6449 3.4935,14.41735 0.13259,1.64923 0.46693,4.50673 0.74299,6.35 0.56608,3.77983 1.2931,19.52577 0.99172,21.47909 -0.1082,0.70129 -0.30507,5.19535 -0.43749,9.98681 l -0.24076,8.71174 -1.13097,1.16678 c -1.00947,1.04144 -1.14667,1.43198 -1.27721,3.63548 -0.0988,1.6683 -0.51941,3.43019 -1.29719,5.43425 -1.15764,2.98283 -1.80003,6.70717 -1.50435,8.72175 0.0938,0.63921 -0.1268,1.72308 -0.53665,2.63656 -0.38277,0.85313 -0.81565,1.94802 -0.96195,2.43309 -0.14629,0.48507 -0.64203,1.60527 -1.101632,2.48935 -0.79745,1.53394 -0.81224,1.6871 -0.32365,3.35139 0.40106,1.36613 0.49146,3.69302 0.41726,10.73981 -0.0857,8.13575 -0.16396,9.16448 -0.81901,10.75972 -0.39836,0.97014 -1.00586,3.11327 -1.35001,4.7625 -0.34414,1.64924 -0.72135,3.10661 -0.83823,3.2386 -0.22036,0.24883 -12.98261,0.54784 -15.26692,0.35768 z"
         id="path2052"
         inkscape:connector-curvature="0" />
      <path
         style="fill:#5382a1;fill-opacity:1;stroke:none;stroke-width:1.88563097;stroke-miterlimit:4;stroke-dasharray:none;stroke-opacity:1"
         d="m -118.58832,440.4953 c -1.64435,-0.13612 -1.86697,-0.53654 -2.37952,-4.27994 -0.41502,-3.03118 -1.02824,-4.94666 -2.25319,-7.03817 -0.5959,-1.01745 -0.71384,-1.94341 -0.78635,-6.17361 -0.11632,-6.78621 -0.39648,-11.7702 -0.68816,-12.24215 -0.13343,-0.21589 -0.29971,-1.05072 -0.36952,-1.85517 -0.0698,-0.80445 -0.32805,-2.40951 -0.57388,-3.56679 -0.40429,-1.90328 -0.61297,-2.22941 -2.1859,-3.41616 -1.98255,-1.49581 -2.64235,-2.49148 -2.65376,-4.00469 -0.0248,-3.29121 -2.15041,-9.39156 -3.35948,-9.64152 -0.30999,-0.0641 -1.47068,-0.62186 -2.57933,-1.23949 -1.6618,-0.92581 -2.17056,-1.4449 -2.89766,-2.95648 -0.48507,-1.00843 -1.08038,-2.03022 -1.32291,-2.27065 -0.24254,-0.24042 -0.44097,-0.72288 -0.44097,-1.07213 0,-0.34925 -0.13826,-0.635 -0.30724,-0.635 -0.17415,0 -0.17322,-0.71733 0.002,-1.65604 0.17016,-0.91082 0.28122,-2.69676 0.2468,-3.96875 -0.0776,-2.86883 0.63708,-11.75623 1.29004,-16.04159 0.50811,-3.33466 1.72722,-8.6863 2.25688,-9.90723 0.16835,-0.38806 0.47425,-1.49931 0.67978,-2.46945 0.20553,-0.97014 1.07863,-4.46264 1.94021,-7.76111 1.68537,-6.45224 2.2191,-9.28604 2.05242,-10.89708 -0.14538,-1.40515 0.887,-3.94709 1.93922,-4.77477 0.47993,-0.3775 2.36994,-1.18522 4.20003,-1.79491 l 3.32744,-1.10854 0.52639,-1.77257 c 0.49083,-1.65279 0.47735,-1.91817 -0.19949,-3.92734 -0.39924,-1.18512 -1.03415,-2.58768 -1.41091,-3.11678 -0.71149,-0.99921 -3.88846,-2.41773 -5.41481,-2.41773 -0.55365,0 -1.20916,-0.46728 -1.92705,-1.37368 -0.59839,-0.75553 -1.08798,-1.47331 -1.08798,-1.59507 0,-0.12176 0.41807,-0.85312 0.92904,-1.62524 0.73372,-1.10873 1.30341,-1.51505 2.70986,-1.93272 0.97946,-0.29086 2.47449,-0.52884 3.3223,-0.52884 1.45002,0 1.57353,-0.0785 2.08176,-1.32292 0.29716,-0.72761 1.00343,-2.31553 1.5695,-3.52872 0.56607,-1.21319 1.02921,-2.30153 1.02921,-2.41852 0,-0.11699 0.41349,-0.70412 0.91887,-1.30473 0.83937,-0.99753 1.0978,-1.09047 2.98669,-1.07405 1.1373,0.01 1.98444,-0.11693 1.88253,-0.28182 -0.10191,-0.16489 0.16711,-0.2998 0.59782,-0.2998 0.8825,0 2.52727,1.66617 3.48246,3.52778 0.64604,1.25908 1.99402,5.81355 2.19263,7.40833 0.10714,0.86028 0.18104,0.88194 3.00892,0.88194 2.4953,0 3.00489,0.1056 3.65878,0.75817 0.41784,0.41699 0.6681,0.90639 0.55613,1.08755 -0.11196,0.18116 -1.57566,1.02183 -3.25265,1.86815 -1.92655,0.97226 -3.15666,1.82171 -3.34129,2.30733 -0.16072,0.42271 -0.70699,0.87267 -1.21395,0.99991 -0.84316,0.21162 -0.90287,0.34323 -0.70048,1.54401 0.1217,0.72196 0.28571,1.55079 0.36449,1.84183 0.2655,0.98092 6.61894,4.29009 9.84933,5.13 3.029922,0.78778 3.538682,1.22979 4.332352,3.76394 0.91401,2.9184 2.10767,9.45293 2.53183,13.86022 0.18674,1.94028 0.56951,5.35341 0.85061,7.58473 0.63347,5.02825 0.81549,15.55478 0.45752,26.45833 -0.33535,10.21483 -0.37006,10.44983 -1.73122,11.72135 -0.94477,0.88254 -1.09859,1.28341 -1.1613,3.02644 -0.0871,2.42043 -0.31354,3.35264 -1.62641,6.69464 -0.82115,2.09029 -1.03667,3.2604 -1.15697,6.28136 -0.10281,2.5818 -0.31746,3.97142 -0.70476,4.56252 -0.30631,0.46748 -0.55693,1.06833 -0.55693,1.3352 0,0.26688 -0.50063,1.48709 -1.112512,2.71156 l -1.11251,2.22633 0.56045,2.32794 c 0.44521,1.84927 0.5432,4.03256 0.47658,10.61821 -0.0775,7.65936 -0.14276,8.42452 -0.85777,10.05417 -0.42565,0.97014 -1.08205,3.24885 -1.45867,5.06381 -0.37662,1.81495 -0.73498,3.35013 -0.79636,3.41151 -0.1587,0.15871 -13.59849,0.36637 -15.18913,0.23469 z"
         id="path2050"
         inkscape:connector-curvature="0" />
      <path
         style="fill:#5382a1;fill-opacity:1;stroke:none;stroke-width:1.88563097;stroke-miterlimit:4;stroke-dasharray:none;stroke-opacity:1"
         d="m -118.55453,440.533 c -1.55924,-0.17322 -1.87112,-0.80295 -2.4105,-4.86716 -0.25251,-1.90263 -0.78474,-3.69682 -1.6334,-5.50635 -1.22551,-2.61305 -1.26193,-2.81393 -1.37531,-7.58473 -0.18403,-7.74375 -0.60294,-12.66839 -1.41138,-16.59208 -0.56492,-2.74175 -0.72573,-3.01328 -2.58,-4.35635 -1.63769,-1.18619 -2.52152,-2.80659 -2.54531,-4.66652 -0.0203,-1.58753 -1.11143,-5.85124 -1.84937,-7.22667 -0.44025,-0.82058 -1.34492,-1.49667 -3.30436,-2.46945 -2.39725,-1.19013 -2.77631,-1.51655 -3.39903,-2.92701 -0.38548,-0.87313 -1.02104,-2.04302 -1.41234,-2.59976 -0.62277,-0.88608 -0.70548,-1.52369 -0.66356,-5.11528 0.12125,-10.38879 1.47574,-21.30347 3.31102,-26.68079 0.19867,-0.58209 0.48037,-1.69334 0.62601,-2.46945 0.14563,-0.77611 0.75929,-3.15736 1.36368,-5.29166 2.456,-8.67297 2.883,-10.58155 3.04418,-13.60649 0.26187,-4.91495 1.0572,-5.93296 5.88797,-7.53648 3.28091,-1.08907 4.00604,-1.70321 4.33917,-3.67497 0.27599,-1.63353 -0.88561,-5.43842 -2.0485,-6.71 -0.93468,-1.02205 -3.47041,-2.16234 -4.8085,-2.16234 -0.71433,0 -1.33785,-0.4007 -2.25936,-1.45199 -0.70002,-0.79859 -1.16694,-1.63203 -1.03761,-1.85208 1.49648,-2.54626 2.66568,-3.20316 6.59753,-3.70677 0.987,-0.12641 1.84648,-0.44772 2.00693,-0.75027 0.15434,-0.29104 0.7024,-1.46428 1.21791,-2.60721 0.5155,-1.14292 1.23221,-2.73042 1.59268,-3.52777 1.11952,-2.47631 1.66013,-2.8649 3.93684,-2.8298 1.10769,0.0171 1.93176,-0.10198 1.83126,-0.26458 -0.10049,-0.1626 0.18384,-0.29073 0.63186,-0.28473 1.7891,0.024 4.65984,5.56646 5.43257,10.4886 l 0.23607,1.50368 2.72437,-0.0791 c 2.1141,-0.0614 2.93887,0.0615 3.68199,0.54839 1.27158,0.83318 0.90206,1.24616 -2.74837,3.07165 -1.57719,0.78871 -2.96123,1.69671 -3.07564,2.01778 -0.11442,0.32107 -0.67004,0.84163 -1.23473,1.1568 -1.03474,0.57753 -1.11477,0.94679 -0.66059,3.048 0.31424,1.45383 6.33047,4.80441 10.30133,5.73706 2.690112,0.63183 3.500342,1.42287 4.282552,4.18114 0.74122,2.6137 1.59399,7.22194 2.13373,11.53033 0.19446,1.55222 0.61259,4.64784 0.92919,6.87916 0.82851,5.8392 1.22314,17.13229 0.84443,24.16528 -0.17761,3.29847 -0.42283,8.04714 -0.54494,10.55261 l -0.22201,4.55539 -1.19589,1.23137 c -1.06869,1.10039 -1.19629,1.44135 -1.1997,3.20572 -0.004,2.02224 -0.43085,3.76708 -1.70488,6.96761 -0.47944,1.20442 -0.79713,3.0504 -0.94105,5.46805 -0.21803,3.66247 -0.43003,4.42138 -2.574072,9.21441 -0.87371,1.9532 -0.89217,2.127 -0.44944,4.23333 0.25392,1.20808 0.52177,4.89526 0.59522,8.19373 0.13732,6.16655 -0.26523,10.78919 -1.11184,12.76756 -0.26499,0.61924 -0.83351,2.80205 -1.26337,4.85069 l -0.78157,3.7248 -6.20134,0.005 c -3.41074,0.003 -6.51884,0.0584 -6.9069,0.12388 -0.38805,0.0655 -1.28519,0.0547 -1.99363,-0.024 z"
         id="path2048"
         inkscape:connector-curvature="0" />
      <path
         style="fill:#5382a1;fill-opacity:1;stroke:none;stroke-width:1.88563097;stroke-miterlimit:4;stroke-dasharray:none;stroke-opacity:1"
         d="m -118.60105,440.4736 c -0.73403,-0.1219 -1.3191,-0.30102 -1.30015,-0.39804 0.019,-0.097 -0.0503,-0.41451 -0.154,-0.70555 -0.10365,-0.29104 -0.4179,-1.9911 -0.69834,-3.7779 -0.34858,-2.22104 -0.87103,-3.95078 -1.65154,-5.46805 -1.10657,-2.15114 -1.14462,-2.37109 -1.23824,-7.15822 -0.13036,-6.66609 -0.41074,-11.73727 -0.67233,-12.16054 -0.11851,-0.19175 -0.44688,-1.89015 -0.72971,-3.77422 -0.54481,-3.62927 -1.06441,-4.58435 -3.05855,-5.62185 -1.23363,-0.64183 -1.7724,-1.65018 -2.05354,-3.84339 -0.6766,-5.2782 -2.20539,-9.27516 -3.70738,-9.69285 -0.37826,-0.10518 -1.52984,-0.63346 -2.55909,-1.17393 -1.53976,-0.80856 -1.99743,-1.27683 -2.58285,-2.64267 -0.39133,-0.913 -0.92883,-1.90016 -1.19444,-2.19371 -0.26561,-0.29355 -0.69083,-1.31211 -0.94492,-2.26348 -0.36776,-1.37695 -0.37205,-1.75977 -0.021,-1.87692 0.53097,-0.17721 0.61484,-3.61616 0.0882,-3.61616 -0.44301,0 -0.46812,-1.31053 -0.0282,-1.46991 0.17854,-0.0647 0.50301,-2.55367 0.72105,-5.5311 0.57966,-7.91545 2.06978,-16.56386 3.18452,-18.48239 0.19576,-0.33692 0.35593,-1.09608 0.35593,-1.68703 0,-0.59095 0.22904,-1.62262 0.50898,-2.29262 1.01129,-2.42034 3.41177,-12.9285 3.68377,-16.12577 0.26759,-3.14542 0.93761,-5.20032 1.89016,-5.79701 0.24391,-0.1528 2.03061,-0.83854 3.97044,-1.52388 3.43868,-1.21488 3.53896,-1.28133 4.00642,-2.65498 0.2637,-0.7749 0.46798,-1.90797 0.45394,-2.51793 -0.0301,-1.30943 -0.94286,-3.77511 -1.91959,-5.18566 -0.75091,-1.08443 -3.12616,-2.26457 -5.32599,-2.64619 -0.83081,-0.14413 -1.52886,-0.51633 -1.76389,-0.9405 -0.21393,-0.38608 -0.5874,-0.82892 -0.82994,-0.98408 -0.61855,-0.39572 -0.55579,-0.7851 0.35278,-2.18887 0.90279,-1.39482 2.23655,-1.95704 5.36752,-2.26256 1.78481,-0.17417 2.17225,-0.33926 2.55174,-1.08729 0.91504,-1.80369 2.92866,-6.37527 2.92866,-6.64902 0,-0.15595 0.39198,-0.6518 0.87107,-1.10188 0.47909,-0.45008 0.78722,-0.954 0.68474,-1.11982 -0.10249,-0.16583 -0.0182,-0.3015 0.18726,-0.3015 0.20548,0 0.3736,0.15875 0.3736,0.35278 0,0.19402 0.64436,0.35277 1.43193,0.35277 0.78756,0 1.3441,-0.14211 1.23674,-0.31581 -0.21587,-0.34929 0.59115,-0.74498 1.50532,-0.73808 1.39142,0.0105 4.25361,5.96148 4.90164,10.19135 0.31275,2.04136 0.63288,2.23777 3.25069,1.99442 2.31388,-0.21509 3.85729,0.18579 4.15127,1.07823 0.071,0.21562 -1.38487,1.14343 -3.23534,2.06179 -2.39421,1.18822 -3.36448,1.85366 -3.36448,2.30747 0,0.39381 -0.41176,0.78126 -1.07657,1.01302 -1.00925,0.35182 -1.06247,0.45876 -0.85114,1.7102 0.38419,2.27499 0.48094,2.4277 2.27453,3.5899 2.17179,1.40728 6.51156,3.40173 8.0129,3.68254 2.832172,0.52973 3.508832,1.08055 4.255872,3.46441 0.9393,2.99735 2.14284,9.54234 2.55261,13.88139 0.59916,6.34436 1.18553,10.57947 1.49397,10.79032 0.499,0.34111 0.48398,20.53597 -0.0154,20.70243 -0.30068,0.10023 -0.41898,1.76842 -0.41898,5.90813 0,6.18046 -0.22643,7.33452 -1.66558,8.48916 -0.77852,0.62461 -0.9266,1.04677 -0.98993,2.82222 -0.0892,2.50101 -0.30837,3.41246 -1.62861,6.77323 -0.82115,2.09029 -1.03667,3.2604 -1.15697,6.28136 -0.10281,2.5818 -0.31746,3.97142 -0.70476,4.56252 -0.30631,0.46748 -0.55693,1.06833 -0.55693,1.3352 0,0.26688 -0.50063,1.48709 -1.112512,2.71156 l -1.11251,2.22633 0.56045,2.32794 c 0.44521,1.84927 0.5432,4.03256 0.47658,10.61821 -0.077,7.61256 -0.14623,8.43447 -0.84673,10.05417 -0.78861,1.8234 -1.77332,5.72177 -1.91501,7.58134 l -0.0809,1.06171 -6.18677,0.005 c -3.40272,0.003 -6.50426,0.0627 -6.89232,0.13346 -0.38805,0.0708 -1.30612,0.0289 -2.04015,-0.093 z"
         id="path2046"
         inkscape:connector-curvature="0" />
      <path
         style="fill:#5382a1;fill-opacity:1;stroke:none;stroke-width:1.88563097;stroke-miterlimit:4;stroke-dasharray:none;stroke-opacity:1"
         d="m -117.93502,440.52808 c -0.53718,-0.13755 -0.57185,-0.23244 -0.17639,-0.48284 0.35603,-0.22544 0.22958,-0.31314 -0.45714,-0.31705 -0.52213,-0.003 -1.02894,-0.13423 -1.12626,-0.29169 -0.0973,-0.15746 -0.41305,-1.75315 -0.70164,-3.54598 -0.34021,-2.11354 -0.92869,-4.09058 -1.67365,-5.62275 -1.10788,-2.27858 -1.15132,-2.53326 -1.21532,-7.12554 -0.0823,-5.90641 -0.37208,-10.22169 -0.84097,-12.52361 -0.19762,-0.97014 -0.53751,-2.92821 -0.75532,-4.35127 -0.3101,-2.02596 -0.62238,-2.84518 -1.4392,-3.77548 -0.57374,-0.65346 -1.35263,-1.28633 -1.73086,-1.40637 -0.80713,-0.25618 -1.74023,-1.90365 -1.73377,-3.06116 0.008,-1.52665 -1.12656,-6.10148 -1.97432,-7.9574 -0.79092,-1.73149 -1.0246,-1.93756 -3.52433,-3.1079 -2.47463,-1.15857 -2.74302,-1.39201 -3.5463,-3.08443 -0.47798,-1.00704 -1.08999,-2.21825 -1.36002,-2.69156 -0.3684,-0.64574 -0.4599,-1.96677 -0.36653,-5.29167 0.316,-11.25194 1.56483,-20.92687 3.50904,-27.18526 0.27124,-0.87312 0.67366,-2.30187 0.89426,-3.175 0.2206,-0.87312 1.04177,-4.04812 1.82482,-7.05555 1.63651,-6.28534 2.00772,-8.25831 2.04366,-10.86197 0.0152,-1.09949 0.30485,-2.41321 0.70512,-3.19781 0.73125,-1.43336 1.39102,-1.80472 6.07826,-3.42114 2.66849,-0.92024 2.70529,-0.94962 3.08681,-2.46476 0.54499,-2.16435 0.48731,-3.04072 -0.34685,-5.2702 -1.28796,-3.4424 -2.53055,-4.36562 -7.12882,-5.29656 -0.59797,-0.12106 -1.1069,-0.52582 -1.30012,-1.03402 -0.17462,-0.45931 -0.5262,-0.90965 -0.78127,-1.00076 -0.36762,-0.13132 -0.3414,-0.3767 0.12644,-1.18353 0.96908,-1.67125 2.10449,-2.29336 4.55925,-2.49807 2.31947,-0.19342 3.84637,-0.83983 3.84637,-1.62833 0,-0.24554 0.32837,-1.07532 0.7297,-1.84395 0.40133,-0.76863 1.04824,-2.19126 1.43758,-3.1614 0.99055,-2.46819 1.90083,-3.36679 3.1562,-3.11572 1.17351,0.2347 2.79041,-0.10375 2.79041,-0.58409 0,-0.18425 -0.27781,-0.24562 -0.61736,-0.13639 -0.5211,0.16763 -0.53485,0.13924 -0.0882,-0.18206 0.7356,-0.52916 2.21121,-0.49871 2.03101,0.0419 -0.0795,0.23835 0.15982,0.75429 0.53172,1.14653 1.18419,1.24896 2.50389,4.54193 3.24166,8.0887 0.27876,1.34016 0.714,2.57625 0.9672,2.74687 0.25319,0.17062 1.44797,0.21292 2.65507,0.094 4.54119,-0.44739 4.77629,0.5768 0.61655,2.68599 -2.1695,1.10004 -3.06643,1.75251 -3.21325,2.33749 -0.11652,0.46427 -0.47073,0.8115 -0.82779,0.8115 -1.11251,0 -1.44201,0.80536 -1.09326,2.67213 0.22814,1.22116 0.61143,1.95762 1.32215,2.54037 1.4447,1.18456 7.0694,3.86743 9.00036,4.29299 2.858312,0.62994 3.396722,1.0287 4.166342,3.0857 0.39081,1.04454 0.71057,2.17846 0.71057,2.51981 0,0.34136 0.30492,2.04196 0.67759,3.77913 0.37268,1.73717 0.84899,4.98411 1.05847,7.21543 0.20948,2.23132 0.6175,5.88257 0.90672,8.11389 0.28921,2.23132 0.5603,6.12069 0.60242,8.64305 l 0.0766,4.58611 0.19119,-5.11528 0.19119,-5.11527 0.20189,7.23194 c 0.11104,3.97757 0.0992,8.74007 -0.0263,10.58333 l -0.22819,3.35139 -0.11896,-2.82222 -0.11896,-2.82222 -0.25623,3.35139 c -0.14092,1.84326 -0.27399,5.76486 -0.29571,8.71465 -0.042,5.71039 -0.29447,6.8418 -1.66589,7.46666 -0.85632,0.39016 -1.07275,1.28572 -0.89864,3.71831 0.0818,1.14257 -0.23488,2.28391 -1.74828,6.30129 -0.82753,2.19672 -1.05501,3.42295 -1.14526,6.17361 -0.076,2.31511 -0.31669,3.89176 -0.73954,4.84353 -0.3448,0.77611 -1.098942,2.4488 -1.675862,3.71709 -1.04228,2.29135 -1.04547,2.31819 -0.50341,4.23333 0.4414,1.5595 0.52502,3.61064 0.4381,10.7468 -0.0979,8.03635 -0.1722,8.96041 -0.83705,10.40695 -0.40131,0.87312 -1.00277,2.97656 -1.33659,4.6743 l -0.60695,3.08681 -6.21353,0.005 c -3.52612,0.003 -6.00991,0.13448 -5.74273,0.30384 0.35163,0.2229 0.26234,0.35425 -0.35278,0.51895 -0.45295,0.12128 -0.90293,0.20427 -0.99995,0.18441 -0.097,-0.0199 -0.47724,-0.11314 -0.84495,-0.2073 z m -23.42794,-62.01223 c 0.007,-0.58209 0.0863,-0.77751 0.1757,-0.43426 0.0894,0.34324 0.0836,0.81949 -0.0131,1.05833 -0.0966,0.23884 -0.16982,-0.042 -0.16263,-0.62407 z m -0.0131,-5.11528 c 0,-0.48507 0.0801,-0.68351 0.17794,-0.44097 0.0979,0.24253 0.0979,0.63941 0,0.88194 -0.0979,0.24253 -0.17794,0.0441 -0.17794,-0.44097 z"
         id="path2044"
         inkscape:connector-curvature="0" />
    </g>
    <path
       inkscape:connector-curvature="0"
       d="m 45.89713,230.61457 h 15.29091 v 1.74755 H 45.89713 Z m 1.50178,1.38175 h 12.28735 v 1.69294 H 47.39891 Z m -0.84645,1.34884 h 13.98026 v 3.16742 H 46.55246 Z m 27.67923,13.82302 -8.54457,-0.0563 -8.54458,-0.0562 4.33242,-5.97401 4.33241,-5.97399 4.21216,6.03032 z m -24.52957,0 -8.54458,-0.0563 -8.54457,-0.0562 4.33241,-5.97401 4.33242,-5.97399 4.21216,6.03032 z M 41.2778,235.10755 h 24.52957 v 12.06076 H 41.2778 Z"
       style="opacity:1;fill:#5382a1;fill-opacity:1;stroke:none;stroke-width:0.09999999;stroke-linejoin:round;stroke-miterlimit:4;stroke-dasharray:none;stroke-dashoffset:6.91314125;stroke-opacity:1"
       id="rect1839" />
    <path
       inkscape:connector-curvature="0"
       style="opacity:1;fill:#5382a1;fill-opacity:1;stroke:none;stroke-width:0.09999995;stroke-linejoin:round;stroke-miterlimit:4;stroke-dasharray:none;stroke-dashoffset:6.91314125;stroke-opacity:1"
       d="m 17.99167,244.53998 a 50.270833,50.279133 0 0 0 9.940477,18.82833 50.270833,50.279133 0 0 0 56.811524,14.23868 v -33.06701 z"
       id="circle2077" />
    <path
       id="rect1849"
       d="m 79.672121,209.17409 h 18.03017 v 71.58303 h -18.03017 z"
       style="opacity:1;fill:#26036c;fill-opacity:1;stroke:none;stroke-width:1;stroke-linejoin:round;stroke-miterlimit:4;stroke-dasharray:none;stroke-dashoffset:6.91314125;stroke-opacity:1"
       inkscape:connector-curvature="0" />
    <g
       id="g1863"
       transform="matrix(1.698684,0,0,1.6986972,4.5210699,-358.57967)"
       style="stroke-width:0.58868867">
      <path
         id="rect1851"
         d="m 45.357143,335.9606 h 1.502213 v 2.90751 h -1.502213 z"
         style="opacity:1;fill:#ffffff;fill-opacity:1;stroke:none;stroke-width:0.05886887;stroke-linejoin:round;stroke-miterlimit:4;stroke-dasharray:none;stroke-dashoffset:6.91314125;stroke-opacity:1"
         inkscape:connector-curvature="0" />
      <path
         id="rect1853"
         d="m 47.6502,335.9606 h 1.502213 v 2.90751 H 47.6502 Z"
         style="opacity:1;fill:#ffffff;fill-opacity:1;stroke:none;stroke-width:0.05886887;stroke-linejoin:round;stroke-miterlimit:4;stroke-dasharray:none;stroke-dashoffset:6.91314125;stroke-opacity:1"
         inkscape:connector-curvature="0" />
      <path
         id="rect1855"
         d="m 49.943256,335.9606 h 1.502213 v 2.90751 h -1.502213 z"
         style="opacity:1;fill:#ffffff;fill-opacity:1;stroke:none;stroke-width:0.05886887;stroke-linejoin:round;stroke-miterlimit:4;stroke-dasharray:none;stroke-dashoffset:6.91314125;stroke-opacity:1"
         inkscape:connector-curvature="0" />
      <path
         id="rect1857"
         d="m 52.236317,335.9606 h 1.502213 v 2.90751 h -1.502213 z"
         style="opacity:1;fill:#ffffff;fill-opacity:1;stroke:none;stroke-width:0.05886887;stroke-linejoin:round;stroke-miterlimit:4;stroke-dasharray:none;stroke-dashoffset:6.91314125;stroke-opacity:1"
         inkscape:connector-curvature="0" />
    </g>
    <g
       id="g1873"
       transform="matrix(1.698684,0,0,1.6986972,4.5210699,-353.18631)"
       style="stroke-width:0.58868867">
      <path
         id="rect1865"
         d="m 45.357143,335.9606 h 1.502213 v 2.90751 h -1.502213 z"
         style="opacity:1;fill:#ffffff;fill-opacity:1;stroke:none;stroke-width:0.05886887;stroke-linejoin:round;stroke-miterlimit:4;stroke-dasharray:none;stroke-dashoffset:6.91314125;stroke-opacity:1"
         inkscape:connector-curvature="0" />
      <path
         id="rect1867"
         d="m 47.6502,335.9606 h 1.502213 v 2.90751 H 47.6502 Z"
         style="opacity:1;fill:#ffffff;fill-opacity:1;stroke:none;stroke-width:0.05886887;stroke-linejoin:round;stroke-miterlimit:4;stroke-dasharray:none;stroke-dashoffset:6.91314125;stroke-opacity:1"
         inkscape:connector-curvature="0" />
      <path
         id="rect1869"
         d="m 49.943256,335.9606 h 1.502213 v 2.90751 h -1.502213 z"
         style="opacity:1;fill:#ffffff;fill-opacity:1;stroke:none;stroke-width:0.05886887;stroke-linejoin:round;stroke-miterlimit:4;stroke-dasharray:none;stroke-dashoffset:6.91314125;stroke-opacity:1"
         inkscape:connector-curvature="0" />
      <path
         id="rect1871"
         d="m 52.236317,335.9606 h 1.502213 v 2.90751 h -1.502213 z"
         style="opacity:1;fill:#ffffff;fill-opacity:1;stroke:none;stroke-width:0.05886887;stroke-linejoin:round;stroke-miterlimit:4;stroke-dasharray:none;stroke-dashoffset:6.91314125;stroke-opacity:1"
         inkscape:connector-curvature="0" />
    </g>
    <g
       transform="matrix(1.698684,0,0,1.6986972,4.5210699,-347.79295)"
       id="g1883"
       style="stroke-width:0.58868867">
      <path
         id="rect1875"
         d="m 45.357143,335.9606 h 1.502213 v 2.90751 h -1.502213 z"
         style="opacity:1;fill:#ffffff;fill-opacity:1;stroke:none;stroke-width:0.05886887;stroke-linejoin:round;stroke-miterlimit:4;stroke-dasharray:none;stroke-dashoffset:6.91314125;stroke-opacity:1"
         inkscape:connector-curvature="0" />
      <path
         id="rect1877"
         d="m 47.6502,335.9606 h 1.502213 v 2.90751 H 47.6502 Z"
         style="opacity:1;fill:#ffffff;fill-opacity:1;stroke:none;stroke-width:0.05886887;stroke-linejoin:round;stroke-miterlimit:4;stroke-dasharray:none;stroke-dashoffset:6.91314125;stroke-opacity:1"
         inkscape:connector-curvature="0" />
      <path
         id="rect1879"
         d="m 49.943256,335.9606 h 1.502213 v 2.90751 h -1.502213 z"
         style="opacity:1;fill:#ffffff;fill-opacity:1;stroke:none;stroke-width:0.05886887;stroke-linejoin:round;stroke-miterlimit:4;stroke-dasharray:none;stroke-dashoffset:6.91314125;stroke-opacity:1"
         inkscape:connector-curvature="0" />
      <path
         id="rect1881"
         d="m 52.236317,335.9606 h 1.502213 v 2.90751 h -1.502213 z"
         style="opacity:1;fill:#ffffff;fill-opacity:1;stroke:none;stroke-width:0.05886887;stroke-linejoin:round;stroke-miterlimit:4;stroke-dasharray:none;stroke-dashoffset:6.91314125;stroke-opacity:1"
         inkscape:connector-curvature="0" />
    </g>
    <g
       id="g1893"
       transform="matrix(1.698684,0,0,1.6986972,4.5210699,-342.39958)"
       style="stroke-width:0.58868867">
      <path
         id="rect1885"
         d="m 45.357143,335.9606 h 1.502213 v 2.90751 h -1.502213 z"
         style="opacity:1;fill:#ffffff;fill-opacity:1;stroke:none;stroke-width:0.05886887;stroke-linejoin:round;stroke-miterlimit:4;stroke-dasharray:none;stroke-dashoffset:6.91314125;stroke-opacity:1"
         inkscape:connector-curvature="0" />
      <path
         id="rect1887"
         d="m 47.6502,335.9606 h 1.502213 v 2.90751 H 47.6502 Z"
         style="opacity:1;fill:#ffffff;fill-opacity:1;stroke:none;stroke-width:0.05886887;stroke-linejoin:round;stroke-miterlimit:4;stroke-dasharray:none;stroke-dashoffset:6.91314125;stroke-opacity:1"
         inkscape:connector-curvature="0" />
      <path
         id="rect1889"
         d="m 49.943256,335.9606 h 1.502213 v 2.90751 h -1.502213 z"
         style="opacity:1;fill:#ffffff;fill-opacity:1;stroke:none;stroke-width:0.05886887;stroke-linejoin:round;stroke-miterlimit:4;stroke-dasharray:none;stroke-dashoffset:6.91314125;stroke-opacity:1"
         inkscape:connector-curvature="0" />
      <path
         id="rect1891"
         d="m 52.236317,335.9606 h 1.502213 v 2.90751 h -1.502213 z"
         style="opacity:1;fill:#ffffff;fill-opacity:1;stroke:none;stroke-width:0.05886887;stroke-linejoin:round;stroke-miterlimit:4;stroke-dasharray:none;stroke-dashoffset:6.91314125;stroke-opacity:1"
         inkscape:connector-curvature="0" />
    </g>
    <g
       transform="matrix(1.698684,0,0,1.6986972,4.5210699,-337.00622)"
       id="g1903"
       style="stroke-width:0.58868867">
      <path
         id="rect1895"
         d="m 45.357143,335.9606 h 1.502213 v 2.90751 h -1.502213 z"
         style="opacity:1;fill:#ffffff;fill-opacity:1;stroke:none;stroke-width:0.05886887;stroke-linejoin:round;stroke-miterlimit:4;stroke-dasharray:none;stroke-dashoffset:6.91314125;stroke-opacity:1"
         inkscape:connector-curvature="0" />
      <path
         id="rect1897"
         d="m 47.6502,335.9606 h 1.502213 v 2.90751 H 47.6502 Z"
         style="opacity:1;fill:#ffffff;fill-opacity:1;stroke:none;stroke-width:0.05886887;stroke-linejoin:round;stroke-miterlimit:4;stroke-dasharray:none;stroke-dashoffset:6.91314125;stroke-opacity:1"
         inkscape:connector-curvature="0" />
      <path
         id="rect1899"
         d="m 49.943256,335.9606 h 1.502213 v 2.90751 h -1.502213 z"
         style="opacity:1;fill:#ffffff;fill-opacity:1;stroke:none;stroke-width:0.05886887;stroke-linejoin:round;stroke-miterlimit:4;stroke-dasharray:none;stroke-dashoffset:6.91314125;stroke-opacity:1"
         inkscape:connector-curvature="0" />
      <path
         id="rect1901"
         d="m 52.236317,335.9606 h 1.502213 v 2.90751 h -1.502213 z"
         style="opacity:1;fill:#ffffff;fill-opacity:1;stroke:none;stroke-width:0.05886887;stroke-linejoin:round;stroke-miterlimit:4;stroke-dasharray:none;stroke-dashoffset:6.91314125;stroke-opacity:1"
         inkscape:connector-curvature="0" />
    </g>
    <g
       id="g1913"
       transform="matrix(1.698684,0,0,1.6986972,4.5210699,-331.61284)"
       style="stroke-width:0.58868867">
      <path
         id="rect1905"
         d="m 45.357143,335.9606 h 1.502213 v 2.90751 h -1.502213 z"
         style="opacity:1;fill:#ffffff;fill-opacity:1;stroke:none;stroke-width:0.05886887;stroke-linejoin:round;stroke-miterlimit:4;stroke-dasharray:none;stroke-dashoffset:6.91314125;stroke-opacity:1"
         inkscape:connector-curvature="0" />
      <path
         id="rect1907"
         d="m 47.6502,335.9606 h 1.502213 v 2.90751 H 47.6502 Z"
         style="opacity:1;fill:#ffffff;fill-opacity:1;stroke:none;stroke-width:0.05886887;stroke-linejoin:round;stroke-miterlimit:4;stroke-dasharray:none;stroke-dashoffset:6.91314125;stroke-opacity:1"
         inkscape:connector-curvature="0" />
      <path
         id="rect1909"
         d="m 49.943256,335.9606 h 1.502213 v 2.90751 h -1.502213 z"
         style="opacity:1;fill:#ffffff;fill-opacity:1;stroke:none;stroke-width:0.05886887;stroke-linejoin:round;stroke-miterlimit:4;stroke-dasharray:none;stroke-dashoffset:6.91314125;stroke-opacity:1"
         inkscape:connector-curvature="0" />
      <path
         id="rect1911"
         d="m 52.236317,335.9606 h 1.502213 v 2.90751 h -1.502213 z"
         style="opacity:1;fill:#ffffff;fill-opacity:1;stroke:none;stroke-width:0.05886887;stroke-linejoin:round;stroke-miterlimit:4;stroke-dasharray:none;stroke-dashoffset:6.91314125;stroke-opacity:1"
         inkscape:connector-curvature="0" />
    </g>
    <g
       transform="matrix(1.698684,0,0,1.6986972,4.5210699,-326.21949)"
       id="g1923"
       style="stroke-width:0.58868867">
      <path
         id="rect1915"
         d="m 45.357143,335.9606 h 1.502213 v 2.90751 h -1.502213 z"
         style="opacity:1;fill:#ffffff;fill-opacity:1;stroke:none;stroke-width:0.05886887;stroke-linejoin:round;stroke-miterlimit:4;stroke-dasharray:none;stroke-dashoffset:6.91314125;stroke-opacity:1"
         inkscape:connector-curvature="0" />
      <path
         id="rect1917"
         d="m 47.6502,335.9606 h 1.502213 v 2.90751 H 47.6502 Z"
         style="opacity:1;fill:#ffffff;fill-opacity:1;stroke:none;stroke-width:0.05886887;stroke-linejoin:round;stroke-miterlimit:4;stroke-dasharray:none;stroke-dashoffset:6.91314125;stroke-opacity:1"
         inkscape:connector-curvature="0" />
      <path
         id="rect1919"
         d="m 49.943256,335.9606 h 1.502213 v 2.90751 h -1.502213 z"
         style="opacity:1;fill:#ffffff;fill-opacity:1;stroke:none;stroke-width:0.05886887;stroke-linejoin:round;stroke-miterlimit:4;stroke-dasharray:none;stroke-dashoffset:6.91314125;stroke-opacity:1"
         inkscape:connector-curvature="0" />
      <path
         id="rect1921"
         d="m 52.236317,335.9606 h 1.502213 v 2.90751 h -1.502213 z"
         style="opacity:1;fill:#ffffff;fill-opacity:1;stroke:none;stroke-width:0.05886887;stroke-linejoin:round;stroke-miterlimit:4;stroke-dasharray:none;stroke-dashoffset:6.91314125;stroke-opacity:1"
         inkscape:connector-curvature="0" />
    </g>
    <g
       id="g1933"
       transform="matrix(1.698684,0,0,1.6986972,4.5210699,-320.82611)"
       style="stroke-width:0.58868867">
      <path
         id="rect1925"
         d="m 45.357143,335.9606 h 1.502213 v 2.90751 h -1.502213 z"
         style="opacity:1;fill:#ffffff;fill-opacity:1;stroke:none;stroke-width:0.05886887;stroke-linejoin:round;stroke-miterlimit:4;stroke-dasharray:none;stroke-dashoffset:6.91314125;stroke-opacity:1"
         inkscape:connector-curvature="0" />
      <path
         id="rect1927"
         d="m 47.6502,335.9606 h 1.502213 v 2.90751 H 47.6502 Z"
         style="opacity:1;fill:#ffffff;fill-opacity:1;stroke:none;stroke-width:0.05886887;stroke-linejoin:round;stroke-miterlimit:4;stroke-dasharray:none;stroke-dashoffset:6.91314125;stroke-opacity:1"
         inkscape:connector-curvature="0" />
      <path
         id="rect1929"
         d="m 49.943256,335.9606 h 1.502213 v 2.90751 h -1.502213 z"
         style="opacity:1;fill:#ffffff;fill-opacity:1;stroke:none;stroke-width:0.05886887;stroke-linejoin:round;stroke-miterlimit:4;stroke-dasharray:none;stroke-dashoffset:6.91314125;stroke-opacity:1"
         inkscape:connector-curvature="0" />
      <path
         id="rect1931"
         d="m 52.236317,335.9606 h 1.502213 v 2.90751 h -1.502213 z"
         style="opacity:1;fill:#ffffff;fill-opacity:1;stroke:none;stroke-width:0.05886887;stroke-linejoin:round;stroke-miterlimit:4;stroke-dasharray:none;stroke-dashoffset:6.91314125;stroke-opacity:1"
         inkscape:connector-curvature="0" />
    </g>
    <g
       transform="matrix(1.698684,0,0,1.6986972,4.5210699,-315.43275)"
       id="g1943"
       style="stroke-width:0.58868867">
      <path
         id="rect1935"
         d="m 45.357143,335.9606 h 1.502213 v 2.90751 h -1.502213 z"
         style="opacity:1;fill:#ffffff;fill-opacity:1;stroke:none;stroke-width:0.05886887;stroke-linejoin:round;stroke-miterlimit:4;stroke-dasharray:none;stroke-dashoffset:6.91314125;stroke-opacity:1"
         inkscape:connector-curvature="0" />
      <path
         id="rect1937"
         d="m 47.6502,335.9606 h 1.502213 v 2.90751 H 47.6502 Z"
         style="opacity:1;fill:#ffffff;fill-opacity:1;stroke:none;stroke-width:0.05886887;stroke-linejoin:round;stroke-miterlimit:4;stroke-dasharray:none;stroke-dashoffset:6.91314125;stroke-opacity:1"
         inkscape:connector-curvature="0" />
      <path
         id="rect1939"
         d="m 49.943256,335.9606 h 1.502213 v 2.90751 h -1.502213 z"
         style="opacity:1;fill:#ffffff;fill-opacity:1;stroke:none;stroke-width:0.05886887;stroke-linejoin:round;stroke-miterlimit:4;stroke-dasharray:none;stroke-dashoffset:6.91314125;stroke-opacity:1"
         inkscape:connector-curvature="0" />
      <path
         id="rect1941"
         d="m 52.236317,335.9606 h 1.502213 v 2.90751 h -1.502213 z"
         style="opacity:1;fill:#ffffff;fill-opacity:1;stroke:none;stroke-width:0.05886887;stroke-linejoin:round;stroke-miterlimit:4;stroke-dasharray:none;stroke-dashoffset:6.91314125;stroke-opacity:1"
         inkscape:connector-curvature="0" />
    </g>
    <g
       id="g1953"
       transform="matrix(1.698684,0,0,1.6986972,4.5210699,-310.03938)"
       style="stroke-width:0.58868867">
      <path
         id="rect1945"
         d="m 45.357143,335.9606 h 1.502213 v 2.90751 h -1.502213 z"
         style="opacity:1;fill:#ffffff;fill-opacity:1;stroke:none;stroke-width:0.05886887;stroke-linejoin:round;stroke-miterlimit:4;stroke-dasharray:none;stroke-dashoffset:6.91314125;stroke-opacity:1"
         inkscape:connector-curvature="0" />
      <path
         id="rect1947"
         d="m 47.6502,335.9606 h 1.502213 v 2.90751 H 47.6502 Z"
         style="opacity:1;fill:#ffffff;fill-opacity:1;stroke:none;stroke-width:0.05886887;stroke-linejoin:round;stroke-miterlimit:4;stroke-dasharray:none;stroke-dashoffset:6.91314125;stroke-opacity:1"
         inkscape:connector-curvature="0" />
      <path
         id="rect1949"
         d="m 49.943256,335.9606 h 1.502213 v 2.90751 h -1.502213 z"
         style="opacity:1;fill:#ffffff;fill-opacity:1;stroke:none;stroke-width:0.05886887;stroke-linejoin:round;stroke-miterlimit:4;stroke-dasharray:none;stroke-dashoffset:6.91314125;stroke-opacity:1"
         inkscape:connector-curvature="0" />
      <path
         id="rect1951"
         d="m 52.236317,335.9606 h 1.502213 v 2.90751 h -1.502213 z"
         style="opacity:1;fill:#ffffff;fill-opacity:1;stroke:none;stroke-width:0.05886887;stroke-linejoin:round;stroke-miterlimit:4;stroke-dasharray:none;stroke-dashoffset:6.91314125;stroke-opacity:1"
         inkscape:connector-curvature="0" />
    </g>
    <text
       xml:space="preserve"
       style="font-size:12.3562727px;line-height:1.25;font-family:'Smartest Kid';-inkscape-font-specification:'Smartest Kid';letter-spacing:0px;word-spacing:0px;stroke-width:0.85651505;fill:#ffffff;"
       id="text1158"><textPath
         xlink:href="#circle1152"
         id="textPath1160"
         style="font-style:normal;font-variant:normal;font-weight:bold;font-stretch:normal;font-family:sans-serif;-inkscape-font-specification:'sans-serif Bold';stroke-width:0.85651505;fill:#ffffff;"><tspan
   id="tspan1154"
   style="font-style:normal;font-variant:normal;font-weight:bold;font-stretch:normal;font-family:sans-serif;-inkscape-font-specification:'sans-serif Bold';stroke-width:0.85652149;fill:#ffffff;"
   y="175.68762"
   x="-167.00806">JUG NICARAGUA</tspan></textPath></text>
    <rect
       style="opacity:1;fill:#000000;fill-opacity:0;stroke:none;stroke-width:0.5;stroke-linejoin:round;stroke-miterlimit:4;stroke-dasharray:none;stroke-dashoffset:6.91314125;stroke-opacity:1"
       id="rect3139"
       width="46.14024"
       height="59.659035"
       x="155.17227"
       y="247.03922" />
    <path
       id="path3143"
       d="m 81.568523,266.47682 h 2.551785 v 4.93898 h -2.551785 z"
       style="opacity:1;fill:#ffffff;fill-opacity:1;stroke:none;stroke-width:0.09999999;stroke-linejoin:round;stroke-miterlimit:4;stroke-dasharray:none;stroke-dashoffset:6.91314125;stroke-opacity:1"
       inkscape:connector-curvature="0" />
    <path
       id="path3145"
       d="m 85.463702,266.47682 h 2.551785 v 4.93898 h -2.551785 z"
       style="opacity:1;fill:#ffffff;fill-opacity:1;stroke:none;stroke-width:0.09999999;stroke-linejoin:round;stroke-miterlimit:4;stroke-dasharray:none;stroke-dashoffset:6.91314125;stroke-opacity:1"
       inkscape:connector-curvature="0" />
    <path
       id="path3147"
       d="m 89.35888,266.47682 h 2.551785 v 4.93898 H 89.35888 Z"
       style="opacity:1;fill:#ffffff;fill-opacity:1;stroke:none;stroke-width:0.09999999;stroke-linejoin:round;stroke-miterlimit:4;stroke-dasharray:none;stroke-dashoffset:6.91314125;stroke-opacity:1"
       inkscape:connector-curvature="0" />
    <path
       id="path3149"
       d="m 93.254066,266.47682 h 2.551785 v 4.93898 h -2.551785 z"
       style="opacity:1;fill:#ffffff;fill-opacity:1;stroke:none;stroke-width:0.09999999;stroke-linejoin:round;stroke-miterlimit:4;stroke-dasharray:none;stroke-dashoffset:6.91314125;stroke-opacity:1"
       inkscape:connector-curvature="0" />
    <path
       inkscape:connector-curvature="0"
       style="opacity:1;fill:#ffffff;fill-opacity:1;stroke:none;stroke-width:0.09999999;stroke-linejoin:round;stroke-miterlimit:4;stroke-dasharray:none;stroke-dashoffset:6.91314125;stroke-opacity:1"
       d="m 81.568523,266.47682 h 2.551785 v 4.93898 h -2.551785 z"
       id="path3234" />
    <path
       inkscape:connector-curvature="0"
       style="opacity:1;fill:#ffffff;fill-opacity:1;stroke:none;stroke-width:0.09999999;stroke-linejoin:round;stroke-miterlimit:4;stroke-dasharray:none;stroke-dashoffset:6.91314125;stroke-opacity:1"
       d="m 85.463702,266.47682 h 2.551785 v 4.93898 h -2.551785 z"
       id="path3236" />
    <path
       inkscape:connector-curvature="0"
       style="opacity:1;fill:#ffffff;fill-opacity:1;stroke:none;stroke-width:0.09999999;stroke-linejoin:round;stroke-miterlimit:4;stroke-dasharray:none;stroke-dashoffset:6.91314125;stroke-opacity:1"
       d="m 89.35888,266.47682 h 2.551785 v 4.93898 H 89.35888 Z"
       id="path3238" />
    <path
       inkscape:connector-curvature="0"
       style="opacity:1;fill:#ffffff;fill-opacity:1;stroke:none;stroke-width:0.09999999;stroke-linejoin:round;stroke-miterlimit:4;stroke-dasharray:none;stroke-dashoffset:6.91314125;stroke-opacity:1"
       d="m 93.254066,266.47682 h 2.551785 v 4.93898 h -2.551785 z"
       id="path3240" />
    <g
       style="stroke-width:0.94520342"
       transform="matrix(1.0363204,0,0,1.0800786,-138.54157,-25.569192)"
       id="g3549">
      <ellipse
         style="opacity:1;fill:#ff1f1f;fill-opacity:1;stroke:none;stroke-width:0.09452034;stroke-linejoin:round;stroke-miterlimit:4;stroke-dasharray:none;stroke-dashoffset:6.91314125;stroke-opacity:1"
         id="ellipse3537"
         cx="79.860764"
         cy="235.36336"
         rx="7.1228404"
         ry="6.7446365" />
      <ellipse
         style="opacity:1;fill:#ffffff;fill-opacity:1;stroke:none;stroke-width:0.09452034;stroke-linejoin:round;stroke-miterlimit:4;stroke-dasharray:none;stroke-dashoffset:6.91314125;stroke-opacity:1"
         id="ellipse3539"
         cx="-101.26252"
         cy="222.10339"
         rx="2.8790319"
         ry="1.9879031"
         transform="rotate(-42.618313)"
         inkscape:transform-center-x="-1.7899309"
         inkscape:transform-center-y="1.1523783e-05" />
      <path
         inkscape:connector-curvature="0"
         id="path3541"
         d="m 64.192905,266.84267 c -0.330613,-0.0523 -0.97744,-0.45315 -1.437391,-0.89073 -0.942238,-0.89642 -1.41458,-2.20502 -1.691633,-4.68655 l -0.168934,-1.51314 -1.049652,0.0551 c -2.255553,0.11844 -3.698294,-0.84426 -3.549468,-2.36845 0.05256,-0.53832 0.286812,-0.85219 1.040568,-1.39428 1.97844,-1.42286 2.593992,-2.0496 2.593067,-2.64023 -0.0012,-0.61374 -0.676098,-1.78924 -2.674755,-4.65712 -1.871451,-2.68535 -1.988125,-2.50466 3.432219,-5.31535 4.013376,-2.08112 4.390055,-2.31942 4.741986,-2.99999 0.165086,-0.31924 1.095093,-2.81464 2.066676,-5.54532 2.291069,-6.43915 5.664695,-14.92857 8.685251,-21.85562 1.907313,-4.37403 2.516946,-5.57225 2.931064,-5.76094 0.366845,-0.16715 0.630742,-0.1707 0.88437,-0.0119 0.938464,0.58753 8.134638,17.939 11.942021,28.79469 0.856331,2.44158 1.671326,4.40206 1.955952,4.70502 0.268365,0.28566 1.956731,1.28105 3.751929,2.21198 5.013335,2.59974 5.544215,3.02891 5.177215,4.18523 -0.0839,0.26438 -0.75894,1.31006 -1.50006,2.32375 -1.488095,2.03536 -2.267447,3.44032 -2.267447,4.08758 0,0.59802 0.941846,1.64649 1.778977,1.98037 1.44091,0.57469 1.8958,1.03572 1.8958,1.92134 0,1.59869 -1.34395,2.49874 -3.52004,2.35738 l -1.127471,-0.0732 -0.13348,1.64135 c -0.189927,2.33532 -0.693856,3.68915 -1.717411,4.61387 -0.794799,0.71806 -0.948353,0.77009 -2.272754,0.77009 -1.670603,0 -4.029933,-0.72355 -6.058477,-1.85797 -0.740589,-0.41416 -2.157148,-1.05312 -3.147915,-1.41991 -1.531442,-0.56694 -2.193888,-0.68325 -4.420705,-0.77613 -3.307308,-0.13795 -5.11081,0.2344 -8.018044,1.65544 -3.810937,1.86275 -6.590524,2.70596 -8.121458,2.46369 z m 2.301235,-2.02882 c 0.459505,-0.12758 2.113153,-0.79698 3.674773,-1.48753 8.050274,-3.55985 10.588397,-3.55387 18.727305,0.0441 4.178192,1.84705 6.084022,1.99923 6.835623,0.5458 0.303045,-0.58603 0.33818,-1.18969 0.235607,-4.04759 -0.191618,-5.33855 -1.119794,-9.57032 -4.055576,-18.49025 -0.939113,-2.85336 -1.865297,-5.41232 -2.058195,-5.68658 -0.216177,-0.30738 -0.523573,-0.47322 -0.801331,-0.43233 -0.36682,0.054 -0.524284,0.36678 -0.84676,1.68198 -1.269181,5.1762 -5.918862,7.97759 -10.786872,6.49897 -2.919495,-0.88676 -4.630306,-2.68679 -5.661147,-5.95636 -0.623702,-1.97822 -0.893807,-2.24404 -1.869543,-1.83988 -0.911815,0.37769 -1.340688,1.26773 -2.763092,5.7342 -2.70047,8.47973 -3.890588,13.63057 -4.098248,17.73729 -0.170294,3.36774 0.0031,4.52585 0.79649,5.31923 0.669438,0.66943 1.301736,0.75914 2.670966,0.37895 z m -2.886254,-17.06897 c 0.653622,-2.44398 0.86002,-3.53664 0.698549,-3.69811 -0.270601,-0.2706 -1.324444,0.0287 -2.971021,0.84391 -2.493166,1.23429 -3.017033,2.0775 -1.924102,3.09703 0.308971,0.28823 1.046901,1.13201 1.639836,1.87508 0.59293,0.74305 1.202024,1.35101 1.353532,1.35101 0.173205,0 0.619897,-1.28785 1.203206,-3.46892 z m 34.74962,1.88451 c 0.844971,-0.87142 1.603636,-1.85263 1.685914,-2.18044 0.28833,-1.14881 -1.111581,-2.38696 -3.60781,-3.19093 -1.072575,-0.34545 -1.553538,-0.41352 -1.723158,-0.2439 -0.169626,0.16963 0.01734,1.16199 0.669799,3.55537 0.9516,3.49065 1.005234,3.64431 1.272066,3.64431 0.09178,0 0.858219,-0.71298 1.703189,-1.58441 z m -15.423949,-8.23265 c 2.839802,-1.38939 4.315625,-4.51438 3.483608,-7.37642 -0.704021,-2.42175 -2.342792,-4.11582 -4.622605,-4.77858 -1.52018,-0.44193 -2.785997,-0.29232 -4.871104,0.57571 -1.697202,0.70655 -3.051769,1.89686 -3.248871,2.85491 -0.05564,0.2705 -0.216311,1.01324 -0.357016,1.65053 -0.2988,1.35332 -0.157047,2.95359 0.351091,3.96354 0.460981,0.91623 1.962656,2.48762 2.798172,2.92808 2.001149,1.05494 4.536918,1.1264 6.466725,0.18223 z"
         style="fill:#5d5d5d;stroke-width:0.94520342" />
      <path
         inkscape:connector-curvature="0"
         id="path3543"
         d="m 64.145534,266.78511 c -0.356667,-0.0949 -0.551214,-0.18445 -0.432323,-0.19896 0.118885,-0.0145 -0.106593,-0.22316 -0.501073,-0.46367 -0.935479,-0.57033 -1.505952,-1.8865 -1.797821,-4.14786 -0.127071,-0.98453 -0.304731,-1.93596 -0.394792,-2.11429 -0.122758,-0.24308 -0.554774,-0.32444 -1.72572,-0.32504 -1.480379,-6.1e-4 -1.593898,-0.0365 -2.173403,-0.68511 -0.336292,-0.37638 -0.668452,-0.62731 -0.738131,-0.55763 -0.06968,0.0697 -0.126692,-0.23572 -0.126692,-0.67866 0,-0.48187 0.08683,-0.7517 0.216164,-0.67176 0.118889,0.0735 0.216162,0.0334 0.216162,-0.0891 0,-0.12247 0.704262,-0.68754 1.565023,-1.2557 1.626846,-1.07382 2.066387,-1.72016 1.824696,-2.68315 -0.15519,-0.61832 -2.430668,-4.08537 -3.376021,-5.1439 -0.364203,-0.40781 -0.660697,-0.89417 -0.658877,-1.08082 0.0037,-0.38489 0.302047,-0.92217 0.502884,-0.90578 0.07349,0.006 0.403069,-0.13935 0.732404,-0.32297 0.329334,-0.18364 2.197146,-1.17728 4.15069,-2.20811 2.006412,-1.05873 3.726188,-2.11265 3.952444,-2.42216 0.220295,-0.30135 1.307294,-3.07364 2.415555,-6.16064 3.02134,-8.41579 7.337774,-19.09276 10.308912,-25.49975 0.385932,-0.83223 0.686343,-1.58439 0.66758,-1.67147 -0.01875,-0.0871 0.213028,-0.22035 0.515093,-0.29616 0.518444,-0.13012 0.842005,-0.0137 0.862385,0.31038 0.0049,0.0793 0.164124,0.43592 0.353646,0.7926 0.575454,1.08295 4.018247,9.05132 5.697092,13.18595 2.078789,5.11962 3.717787,9.44521 5.510148,14.54225 0.805816,2.29153 1.616344,4.39722 1.801179,4.67931 0.198211,0.30251 1.825223,1.28227 3.966378,2.38848 1.996676,1.03157 3.946454,2.11653 4.332854,2.41103 0.38639,0.29449 0.70548,0.45754 0.7091,0.36232 0.004,-0.0952 0.1078,6.2e-4 0.23152,0.21342 0.21825,0.37502 0.0546,1.81556 -0.17967,1.58132 -0.15648,-0.15647 -2.55879,3.17553 -3.212551,4.45581 -0.612335,1.19915 -0.634204,1.48432 -0.181023,2.36067 0.226042,0.43713 0.724872,0.83313 1.491664,1.18418 0.63362,0.29008 1.27,0.66956 1.41417,0.84327 0.14418,0.17372 0.34839,0.26255 0.45381,0.19739 0.10542,-0.0652 0.19167,0.28212 0.19167,0.77171 0,0.4896 -0.0862,0.83689 -0.19159,0.77176 -0.10537,-0.0651 -0.24251,0.0763 -0.30476,0.31438 -0.17328,0.66261 -1.5245,1.12274 -3.052017,1.03928 l -1.315302,-0.0719 -0.132868,1.72931 c -0.07308,0.95112 -0.257065,2.13724 -0.408855,2.63583 -0.315956,1.03779 -1.388776,2.444 -1.864567,2.444 -0.176698,0 -0.261147,0.0973 -0.187672,0.21617 0.08436,0.13649 -0.44209,0.21616 -1.428329,0.21616 -0.859058,0 -1.4945,-0.0674 -1.412098,-0.14983 0.08241,-0.0824 -0.363426,-0.27891 -0.990749,-0.43667 -0.627317,-0.15776 -2.065983,-0.75843 -3.197033,-1.33481 -3.614472,-1.84193 -4.921906,-2.22503 -7.995127,-2.34271 -3.431028,-0.1314 -4.821374,0.17743 -8.430368,1.87258 -1.486117,0.69803 -3.256977,1.44078 -3.935232,1.65054 -0.678261,0.20976 -1.183206,0.46227 -1.122103,0.56114 0.06109,0.0989 -0.07703,0.17976 -0.306967,0.17976 -0.229933,0 -0.697722,0.0405 -1.03953,0.0901 -0.341808,0.0495 -0.913292,0.0124 -1.269959,-0.0825 z m 2.348606,-1.75509 c 0.459505,-0.12759 2.113153,-0.79698 3.674773,-1.48753 8.050274,-3.55986 10.588397,-3.55388 18.727305,0.0441 4.180968,1.84828 6.019212,1.98988 6.941193,0.53466 0.40815,-0.64421 0.432182,-0.94333 0.333603,-4.15282 -0.1625,-5.29062 -1.061135,-9.49701 -3.855673,-18.04788 -1.940266,-5.93691 -2.253582,-6.6733 -2.909379,-6.8379 -0.708819,-0.1779 -1.097245,0.21271 -1.275235,1.28239 -0.314498,1.89005 -0.976447,3.18125 -2.409924,4.70082 -1.082912,1.14793 -1.676846,1.58741 -2.624507,1.94198 -3.730502,1.39576 -7.686935,0.28591 -9.852563,-2.7638 -0.367311,-0.51727 -0.960185,-1.83547 -1.317502,-2.92935 -0.719449,-2.2025 -1.003243,-2.42701 -2.251786,-1.78137 -0.903739,0.46735 -1.385198,1.50379 -2.865844,6.16931 -2.998129,9.44715 -3.912572,13.68611 -3.940367,18.2658 -0.02169,3.57807 0.178267,4.4464 1.14502,4.97182 0.684762,0.37217 1.374059,0.39711 2.480886,0.0898 z m -2.725837,-17.05867 c 0.505859,-1.84279 0.894952,-3.54507 0.864652,-3.78285 -0.08697,-0.68243 -1.264708,-0.49177 -3.352352,0.5427 -3.169508,1.57055 -3.320186,2.05701 -1.320357,4.26262 0.729787,0.80488 1.473722,1.68716 1.653195,1.96062 0.20424,0.31121 0.4963,0.47294 0.780712,0.43233 0.391465,-0.0559 0.581796,-0.52898 1.37415,-3.41542 z m 34.669418,1.99951 c 0.769027,-0.8025 1.532128,-1.78922 1.695779,-2.19271 0.59948,-1.47796 -0.656862,-2.73822 -3.728466,-3.74013 -1.331356,-0.43426 -1.49241,-0.44641 -1.802907,-0.13591 -0.310497,0.3105 -0.289657,0.53162 0.233279,2.4753 1.21627,4.5207 1.407471,5.05255 1.816375,5.05255 0.213241,0 1.016913,-0.65659 1.78594,-1.4591 z m -15.504164,-8.57412 c 2.835537,-1.3873 4.281513,-4.42485 3.493019,-7.33777 -0.68807,-2.54195 -2.638876,-4.41178 -5.153015,-4.93912 -1.063642,-0.2231 -1.46613,-0.20284 -2.912382,0.14659 -2.042123,0.49342 -2.758558,0.82415 -3.696133,1.70626 -1.17002,1.10082 -1.355639,1.65847 -1.400253,4.20661 -0.03303,1.88791 0.03272,2.44587 0.361385,3.0647 0.516159,0.97193 2.007215,2.53113 2.840654,2.9705 2.001149,1.05494 4.536918,1.1264 6.466725,0.18223 z"
         style="fill:#5f1c1d;stroke-width:0.94520342" />
      <path
         inkscape:connector-curvature="0"
         id="path3545"
         d="m 64.145534,266.78511 c -0.356667,-0.0949 -0.551214,-0.18445 -0.432323,-0.19896 0.118885,-0.0145 -0.106593,-0.22316 -0.501073,-0.46367 -0.935479,-0.57033 -1.505952,-1.8865 -1.797821,-4.14786 -0.127071,-0.98453 -0.304731,-1.93596 -0.394792,-2.11429 -0.122758,-0.24308 -0.554774,-0.32444 -1.72572,-0.32504 -1.480379,-6.1e-4 -1.593898,-0.0365 -2.173403,-0.68511 -0.336292,-0.37638 -0.668452,-0.62731 -0.738131,-0.55763 -0.06968,0.0697 -0.126692,-0.23572 -0.126692,-0.67866 0,-0.48187 0.08683,-0.7517 0.216164,-0.67176 0.118889,0.0735 0.216162,0.0334 0.216162,-0.0891 0,-0.12247 0.704262,-0.68754 1.565023,-1.2557 1.626846,-1.07382 2.066387,-1.72016 1.824696,-2.68315 -0.15519,-0.61832 -2.430668,-4.08537 -3.376021,-5.1439 -0.364203,-0.40781 -0.660697,-0.89417 -0.658877,-1.08082 0.0037,-0.38489 0.302047,-0.92217 0.502884,-0.90578 0.07349,0.006 0.403069,-0.13935 0.732404,-0.32297 0.329334,-0.18364 2.197146,-1.17728 4.15069,-2.20811 2.006412,-1.05873 3.726188,-2.11265 3.952444,-2.42216 0.220295,-0.30135 1.307294,-3.07364 2.415555,-6.16064 3.02134,-8.41579 7.337774,-19.09276 10.308912,-25.49975 0.385932,-0.83223 0.686343,-1.58439 0.66758,-1.67147 -0.01875,-0.0871 0.213028,-0.22035 0.515093,-0.29616 0.518444,-0.13012 0.842005,-0.0137 0.862385,0.31038 0.0049,0.0793 0.164124,0.43592 0.353646,0.7926 0.575454,1.08295 4.018247,9.05132 5.697092,13.18595 2.078789,5.11962 3.717787,9.44521 5.510148,14.54225 0.805816,2.29153 1.616344,4.39722 1.801179,4.67931 0.198211,0.30251 1.825223,1.28227 3.966378,2.38848 1.996676,1.03157 3.946454,2.11653 4.332854,2.41103 0.38639,0.29449 0.70548,0.45754 0.7091,0.36232 0.004,-0.0952 0.1078,6.2e-4 0.23152,0.21342 0.21825,0.37502 0.0546,1.81556 -0.17967,1.58132 -0.15648,-0.15647 -2.55879,3.17553 -3.212551,4.45581 -0.612335,1.19915 -0.634204,1.48432 -0.181023,2.36067 0.226042,0.43713 0.724872,0.83313 1.491664,1.18418 0.63362,0.29008 1.27,0.66956 1.41417,0.84327 0.14418,0.17372 0.34839,0.26255 0.45381,0.19739 0.10542,-0.0652 0.19167,0.28212 0.19167,0.77171 0,0.4896 -0.0862,0.83689 -0.19159,0.77176 -0.10537,-0.0651 -0.24251,0.0763 -0.30476,0.31438 -0.17328,0.66261 -1.5245,1.12274 -3.052017,1.03928 l -1.315302,-0.0719 -0.132868,1.72931 c -0.07308,0.95112 -0.257065,2.13724 -0.408855,2.63583 -0.315956,1.03779 -1.388776,2.444 -1.864567,2.444 -0.176698,0 -0.261147,0.0973 -0.187672,0.21617 0.08436,0.13649 -0.44209,0.21616 -1.428329,0.21616 -0.859058,0 -1.4945,-0.0674 -1.412098,-0.14983 0.08241,-0.0824 -0.363426,-0.27891 -0.990749,-0.43667 -0.627317,-0.15776 -2.065983,-0.75843 -3.197033,-1.33481 -3.614472,-1.84193 -4.921906,-2.22503 -7.995127,-2.34271 -3.431028,-0.1314 -4.821374,0.17743 -8.430368,1.87258 -1.486117,0.69803 -3.256977,1.44078 -3.935232,1.65054 -0.678261,0.20976 -1.183206,0.46227 -1.122103,0.56114 0.06109,0.0989 -0.07703,0.17976 -0.306967,0.17976 -0.229933,0 -0.697722,0.0405 -1.03953,0.0901 -0.341808,0.0495 -0.913292,0.0124 -1.269959,-0.0825 z m 2.348606,-1.75509 c 0.459505,-0.12759 2.113153,-0.79698 3.674773,-1.48753 8.050274,-3.55986 10.588397,-3.55388 18.727305,0.0441 4.180968,1.84828 6.019212,1.98988 6.941193,0.53466 0.40815,-0.64421 0.432182,-0.94333 0.333603,-4.15282 -0.1625,-5.29062 -1.061135,-9.49701 -3.855673,-18.04788 -1.940266,-5.93691 -2.253582,-6.6733 -2.909379,-6.8379 -0.708819,-0.1779 -1.097245,0.21271 -1.275235,1.28239 -0.314498,1.89005 -0.976447,3.18125 -2.409924,4.70082 -1.082912,1.14793 -1.676846,1.58741 -2.624507,1.94198 -3.730502,1.39576 -7.686935,0.28591 -9.852563,-2.7638 -0.367311,-0.51727 -0.960185,-1.83547 -1.317502,-2.92935 -0.719449,-2.2025 -1.003243,-2.42701 -2.251786,-1.78137 -0.903739,0.46735 -1.385198,1.50379 -2.865844,6.16931 -2.998129,9.44715 -3.912572,13.68611 -3.940367,18.2658 -0.02169,3.57807 0.178267,4.4464 1.14502,4.97182 0.684762,0.37217 1.374059,0.39711 2.480886,0.0898 z m -2.725837,-17.05867 c 0.505859,-1.84279 0.894952,-3.54507 0.864652,-3.78285 -0.08697,-0.68243 -1.264708,-0.49177 -3.352352,0.5427 -3.169508,1.57055 -3.320186,2.05701 -1.320357,4.26262 0.729787,0.80488 1.473722,1.68716 1.653195,1.96062 0.20424,0.31121 0.4963,0.47294 0.780712,0.43233 0.391465,-0.0559 0.581796,-0.52898 1.37415,-3.41542 z m 34.669418,1.99951 c 0.769027,-0.8025 1.532128,-1.78922 1.695779,-2.19271 0.59948,-1.47796 -0.656862,-2.73822 -3.728466,-3.74013 -1.331356,-0.43426 -1.49241,-0.44641 -1.802907,-0.13591 -0.310497,0.3105 -0.289657,0.53162 0.233279,2.4753 1.21627,4.5207 1.407471,5.05255 1.816375,5.05255 0.213241,0 1.016913,-0.65659 1.78594,-1.4591 z m -14.803967,-8.52241 c 1.419285,-0.87215 2.749795,-2.55162 3.127406,-3.94764 0.130625,-0.48291 0.193836,-1.56547 0.140466,-2.40568 -0.158523,-2.49561 -1.597563,-4.66925 -3.814301,-5.76141 -0.816692,-0.40237 -1.357263,-0.4928 -2.945715,-0.4928 -1.797759,0 -2.057692,0.0574 -3.423497,0.75657 -2.733343,1.39914 -3.823418,3.23157 -3.813222,6.41008 0.0055,1.68275 0.421342,2.80272 1.495075,4.02563 1.499849,1.70824 3.177609,2.339 5.991345,2.25249 1.841546,-0.0566 2.066767,-0.11478 3.242443,-0.83724 z"
         style="fill:#2d2d2e;stroke-width:0.94520342" />
      <path
         inkscape:connector-curvature="0"
         id="path3547"
         d="m 64.145534,266.79511 -0.648487,-0.16256 0.648487,-0.11127 c 0.642887,-0.11032 0.643414,-0.11156 0.06128,-0.14367 -0.348831,-0.0192 -0.884395,-0.32954 -1.319151,-0.76429 -0.813959,-0.81396 -1.18967,-1.9756 -1.382771,-4.2753 -0.06653,-0.79228 -0.199725,-1.56796 -0.295993,-1.72373 -0.118505,-0.19174 -0.696723,-0.28503 -1.790088,-0.2888 -1.40747,-0.005 -1.686756,-0.0729 -2.172962,-0.52962 -0.383313,-0.36004 -0.557914,-0.74946 -0.557914,-1.24435 0,-0.65423 0.13662,-0.80788 1.489097,-1.6748 2.333373,-1.49566 2.590518,-2.10782 1.637949,-3.89935 -0.764259,-1.43738 -3.341798,-5.00314 -3.349782,-4.63409 -0.0045,0.20752 -0.07919,0.17896 -0.235667,-0.0901 -0.271361,-0.46663 -0.0452,-1.69238 0.230072,-1.24697 0.111403,0.18025 0.22366,0.20213 0.311119,0.0606 0.07526,-0.12177 1.862657,-1.11348 3.971999,-2.2038 2.109341,-1.09032 4.107064,-2.24757 4.439375,-2.57168 0.457396,-0.44609 1.092618,-1.95153 2.61425,-6.1956 3.116089,-8.69126 9.881209,-25.24067 11.055285,-27.04437 0.233928,-0.35938 0.243701,-0.49323 0.04148,-0.5678 -0.145533,-0.0537 0.01,-0.17054 0.345668,-0.25972 0.376496,-0.10003 0.70358,-0.0688 0.853843,0.0814 0.18065,0.18065 0.169725,0.24357 -0.04228,0.24357 -0.235374,0 -0.236073,0.06 -0.0037,0.33971 1.049316,1.26435 8.426452,19.33209 11.673663,28.5906 0.806251,2.29879 1.634469,4.36588 1.840486,4.59353 0.206012,0.22764 1.988802,1.24787 3.961752,2.26718 1.972944,1.01931 3.895536,2.08831 4.272426,2.37555 0.47779,0.36416 0.71513,0.44113 0.78396,0.25425 0.0543,-0.14741 0.16436,-0.0225 0.24459,0.27747 0.0802,0.30002 0.0498,0.78638 -0.0677,1.08081 -0.16449,0.41225 -0.21675,0.44336 -0.22731,0.13532 -0.0135,-0.39519 -0.13288,-0.24097 -2.531661,3.27136 -0.510185,0.74702 -1.041025,1.73678 -1.179653,2.19947 -0.352384,1.17615 0.190693,2.09346 1.669014,2.81914 0.6055,0.29722 1.26099,0.67391 1.45667,0.83707 0.4811,0.40119 0.45017,1.59245 -0.0576,2.2193 -0.36915,0.4557 -0.59551,0.51165 -2.114951,0.52275 -0.935853,0.007 -1.806186,0.0771 -1.934078,0.15614 -0.127886,0.079 -0.28212,1.01358 -0.342739,2.07676 -0.07871,1.3804 -0.247274,2.21618 -0.589609,2.92335 -0.712005,1.47081 -1.31855,1.85767 -2.902627,1.85134 -1.954843,-0.008 -2.989434,-0.31124 -5.861295,-1.71899 -3.726592,-1.82673 -4.948052,-2.18606 -7.895409,-2.32268 -3.142829,-0.14569 -5.088518,0.30272 -8.641072,1.99149 -2.716015,1.2911 -4.727519,2.03963 -5.600039,2.08392 -0.467745,0.0237 -0.435282,0.0548 0.195963,0.1877 0.450343,0.0948 0.57065,0.17077 0.297224,0.18771 -0.252641,0.0156 -0.739008,0.069 -1.08081,0.11852 -0.341808,0.0495 -0.913292,0.0169 -1.269959,-0.0725 z m 2.46281,-1.65196 c 0.624915,-0.18558 2.439672,-0.91484 4.032781,-1.62058 4.124491,-1.82713 6.210021,-2.40459 8.74391,-2.42107 2.980414,-0.0194 3.590881,0.16502 11.348569,3.42822 1.205235,0.50697 2.070144,0.72852 2.853993,0.73105 2.543276,0.008 2.999092,-0.87695 2.811677,-5.46016 -0.21136,-5.16874 -1.180724,-9.47694 -4.185398,-18.60137 -1.798716,-5.46225 -2.252816,-6.41748 -3.047455,-6.41053 -0.706067,0.006 -0.958892,0.36894 -1.260743,1.80895 -0.399315,1.90498 -0.982796,2.99418 -2.399777,4.47974 -1.436258,1.50576 -2.790696,2.13237 -4.964578,2.29679 -4.169828,0.31536 -7.262565,-1.93905 -8.520655,-6.21099 -0.262599,-0.89168 -0.573145,-1.74282 -0.690106,-1.89143 -0.289448,-0.36777 -0.864835,-0.33929 -1.758917,0.0871 -0.9554,0.4556 -1.38885,1.42681 -3.120654,6.99227 -2.791849,8.97214 -3.682358,12.98724 -3.835422,17.29306 -0.128034,3.6016 0.196005,4.84538 1.421883,5.45778 0.926913,0.46304 1.138947,0.46644 2.570892,0.0412 z M 63.127855,250.9436 c 1.663611,-6.10183 1.827821,-6.86242 1.55306,-7.19349 -0.38024,-0.45816 -1.184058,-0.27 -3.430557,0.80304 -3.219068,1.53758 -3.506639,2.25557 -1.6945,4.23069 0.626251,0.68259 1.415989,1.60584 1.75496,2.05168 0.807697,1.06232 1.544916,1.10617 1.817037,0.10808 z m 35.417544,-0.86466 c 1.923221,-1.99863 2.213991,-2.65606 1.667651,-3.77055 -0.507772,-1.03585 -1.392896,-1.62268 -3.511851,-2.32836 -1.679065,-0.55918 -2.266928,-0.56053 -2.479832,-0.006 -0.105772,0.27563 1.608053,6.95687 1.909739,7.44501 0.317954,0.51445 0.986742,0.14315 2.414293,-1.34038 z M 83.227944,241.6925 c 1.532129,-0.76562 2.493411,-1.77473 3.236243,-3.39728 0.455533,-0.99503 0.518953,-1.40585 0.45198,-2.92807 -0.09155,-2.08067 -0.650044,-3.42801 -1.966792,-4.74475 -1.3295,-1.3295 -2.747596,-1.88544 -4.807765,-1.88482 -1.496111,4.4e-4 -1.959261,0.10092 -3.434594,0.74499 -2.940378,1.28364 -3.600912,2.31169 -3.761323,5.85412 -0.08747,1.9315 -0.04498,2.2792 0.383279,3.13436 0.859591,1.71657 2.516971,3.12542 4.326759,3.67792 0.297224,0.0907 1.376013,0.17334 2.397313,0.18357 1.657521,0.0166 1.998416,-0.0521 3.1749,-0.64004 z m 9.829414,24.92758 c 0.445834,-0.0466 1.175387,-0.0466 1.621221,0 0.44584,0.0466 0.08106,0.0848 -0.810607,0.0848 -0.891674,0 -1.256448,-0.0382 -0.810614,-0.0848 z m -36.747266,-9.02947 c 0.0024,-0.47555 0.04667,-0.64465 0.09837,-0.37576 0.0517,0.26889 0.04974,0.65798 -0.0043,0.86465 -0.05411,0.20667 -0.09641,-0.0133 -0.09401,-0.48889 z m 46.263278,-0.10808 c 0,-0.535 0.0422,-0.75387 0.0937,-0.48636 0.0515,0.2675 0.0515,0.70523 0,0.97273 -0.0515,0.2675 -0.0937,0.0487 -0.0937,-0.48637 z"
         style="fill:#1c1c1d;stroke-width:0.94520342" />
    </g>
    <g
       id="g4870"
       transform="matrix(0.17461643,0,0,0.18650132,26.387081,192.19085)"
       style="stroke-width:1.46615195">
      <path
         id="path4807"
         d="m 48.859,43.518 c 8.424,17.64 2.736,140.832 -7.128,184.032 -9.864,43.272 -19.728,98.28 -22.032,144.576 -1.008,19.728 2.016,27.504 14.904,27.504 22.752,0 51.624,-47.952 87.84,-46.872 36.288,1.08 47.808,55.008 64.8,54.648 16.992,-0.36 30.672,-6.264 30.816,-58.752 C 218.563,191.981 87.235,64.973 48.859,43.518 Z"
         inkscape:connector-curvature="0"
         style="clip-rule:evenodd;fill-rule:evenodd;stroke-width:1.46615195" />
      <path
         id="path4809"
         d="m 162.763,168.726 c 7.992,13.464 28.368,3.096 29.232,-12.096 0.864,-15.192 -1.368,-34.344 -11.232,-35.064 -9.864,-0.72 -16.92,-10.584 -26.784,-11.304 -9.864,-0.72 -20.448,9.144 -25.056,-3.96 -4.608,-13.104 12.384,-18.648 25.056,-20.736 -11.304,-11.304 -17.928,-23.832 -22.896,-36.864 -4.968,-13.032 -8.64,-24.984 5.256,-30.096 13.896,-5.112 12.744,21.168 28.656,33.192 -4.68,-17.712 -6.408,-25.056 -6.048,-35.352 0.36,-10.296 -0.36,-18.144 14.256,-16.128 14.616,2.016 8.28,32.4 19.656,44.784 3.456,-11.736 5.544,-26.64 13.896,-32.76 8.352,-6.12 27.36,-6.264 15.264,18.864 -12.096,25.128 3.528,38.736 -0.144,58.536 -3.672,19.8 -15.048,16.2 -19.944,28.944 -4.896,12.744 2.88,41.76 -6.336,54.792 -9.216,13.032 -10.872,33.048 -4.896,49.032 -18.36,-17.136 -27.936,-53.784 -27.936,-53.784 z"
         inkscape:connector-curvature="0"
         style="clip-rule:evenodd;fill-rule:evenodd;stroke-width:1.46615195" />
      <path
         id="path4811"
         d="m 48.355,185.646 c -7.416,50.832 -33.192,56.88 -34.488,77.976 -1.296,21.096 6.84,23.112 6.336,42.624 -0.504,19.512 -17.856,27.432 -19.944,38.016 -2.088,10.584 8.928,13.968 15.336,13.968 6.408,0 12.816,-28.08 15.408,-45.936 2.592,-17.856 -8.496,-28.368 -8.496,-40.608 0,-12.24 16.056,-34.632 13.104,-14.976 13.32,-21.024 19.657,-47.809 12.744,-71.064 z"
         inkscape:connector-curvature="0"
         style="clip-rule:evenodd;fill-rule:evenodd;stroke-width:1.46615195" />
      <path
         id="path4813"
         d="m 58.292,205.013 c -5.616,27.504 -40.68,181.08 -22.824,183.024 17.856,1.944 43.272,-47.52 84.888,-47.16 41.688,0.36 58.104,55.44 68.256,55.08 10.152,-0.36 16.848,3.6 17.928,-58.464 1.08,-62.064 -36.792,-141.336 -59.184,-176.256 -30.385,1.944 -63.073,26.281 -89.064,43.776 z"
         inkscape:connector-curvature="0"
         style="clip-rule:evenodd;fill:#ffffff;fill-rule:evenodd;stroke-width:1.46615195" />
      <g
         id="g4842"
         style="stroke-width:1.46615195">
	<path
   id="path4815"
   d="m 139.162,172.181 c -1.95,-18.251 -19.12,-25.421 -35.661,-23.168 -13.889,1.893 -32.403,13.613 -34.107,28.64 -1.921,16.937 11.402,32.522 28.361,33.203 15.03,0.604 31.176,-6.668 37.93,-20.79 2.73,-5.704 3.797,-11.578 3.477,-17.885"
   inkscape:connector-curvature="0"
   style="fill:none;stroke-width:1.46615195" />

	<path
   id="path4817"
   d="m 147.082,171.533 c -1.662,-17.195 -14.407,-27.988 -30.895,-30.627 -15.924,-2.549 -33.26,4.998 -44.408,16.146 -12.538,12.538 -13.039,29.978 -4.26,44.833 8.661,14.657 27.847,19.501 43.563,15.835 21.506,-5.015 37.398,-23.824 36,-46.187"
   inkscape:connector-curvature="0"
   style="stroke-width:1.46615195" />

	<radialGradient
   gradientUnits="userSpaceOnUse"
   r="54.7155"
   cy="167.06931"
   cx="86.629898"
   id="SVGID_1_"
   gradientTransform="matrix(1.5152259,0,0,1.4186673,-288.81705,-33.231054)">
		<stop
   id="stop4819"
   style="stop-color:#FFFFFF"
   offset="0" />

		<stop
   id="stop4821"
   style="stop-color:#FBC8B4"
   offset="0.0604" />

		<stop
   id="stop4823"
   style="stop-color:#FBC3B0"
   offset="0.0712" />

		<stop
   id="stop4825"
   style="stop-color:#F7978B"
   offset="0.1829" />

		<stop
   id="stop4827"
   style="stop-color:#F4716B"
   offset="0.2995" />

		<stop
   id="stop4829"
   style="stop-color:#F15251"
   offset="0.4199" />

		<stop
   id="stop4831"
   style="stop-color:#EF3A3D"
   offset="0.5453" />

		<stop
   id="stop4833"
   style="stop-color:#EE292F"
   offset="0.6778" />

		<stop
   id="stop4835"
   style="stop-color:#ED1F27"
   offset="0.822" />

		<stop
   id="stop4837"
   style="stop-color:#ED1C24"
   offset="1" />

	</radialGradient>

	<path
   id="path4840"
   d="m 139.162,177.941 c -1.493,15.627 -13.947,28.182 -28.944,31.824 -15.87,3.854 -33.393,-2.257 -39.096,-18.576 -2.912,-8.332 -2.37,-16.879 2.637,-24.198 4.223,-6.171 11.033,-11 17.779,-14.066 13.924,-6.326 33.832,-7.029 43.531,7.077 3.675,5.346 4.318,11.639 4.093,17.939"
   inkscape:connector-curvature="0"
   style="fill:url(#SVGID_1_);stroke:#000000;stroke-width:1.46615195" />

</g>
    </g>
  </g>
</svg>
